<?xml version="1.0" standalone="no"?>
<!DOCTYPE svg PUBLIC "-//W3C//DTD SVG 1.1//EN" "http://www.w3.org/Graphics/SVG/1.1/DTD/svg11.dtd" >
<svg xmlns="http://www.w3.org/2000/svg" width="100%" height="100%">
<metadata>
Created by FontXChange 20110222 at Tue Nov  4 10:47:39 2014
 By Stedman Halliday
Copyright (c) 1992-2011 by Apple Inc. All rights reserved.
</metadata>
<defs>
<font id="Silom" horiz-adv-x="666" >
  <font-face 
    font-family="Silom"
    font-weight="400"
    font-stretch="normal"
    units-per-em="1000"
    panose-1="0 0 4 0 0 0 0 0 0 0"
    ascent="800"
    descent="-200"
    x-height="583"
    cap-height="750"
    bbox="-585 -496 1250 1351"
    underline-thickness="8"
    underline-position="-49"
    unicode-range="U+0008-FEFF"
  />
<missing-glyph horiz-adv-x="500" 
d="M63 0v800h375v-800h-375zM125 63h250v675h-250v-675z" />
    <glyph glyph-name="fi" unicode="fi" horiz-adv-x="833" 
d="M167 0v500h-84v83h84v8q0 55 47 107t119 52h167v-83h-87q-32 0 -56 -26t-24 -50v-8h417v-583h-167v500h-250v-500h-166zM583 667v83h167v-83h-167z" />
    <glyph glyph-name="fl" unicode="fl" horiz-adv-x="833" 
d="M167 0v500h-84v83h84v8q0 55 47 107t119 52h417v-750h-167v667h-170q-32 0 -56 -26t-24 -50v-8h84v-83h-84v-500h-166z" />
    <glyph glyph-name=".notdef" horiz-adv-x="500" 
d="M63 0v800h375v-800h-375zM125 63h250v675h-250v-675z" />
    <glyph glyph-name=".null" horiz-adv-x="0" 
 />
    <glyph glyph-name=".null" horiz-adv-x="0" 
 />
    <glyph glyph-name=".null" horiz-adv-x="0" 
 />
    <glyph glyph-name="nonmarkingreturn" unicode="&#x9;" horiz-adv-x="250" 
 />
    <glyph glyph-name="nonmarkingreturn" unicode="&#xd;" horiz-adv-x="250" 
 />
    <glyph glyph-name="space" unicode=" " horiz-adv-x="250" 
 />
    <glyph glyph-name="controlNULL" horiz-adv-x="0" 
 />
    <glyph glyph-name="maieklowleftthai" horiz-adv-x="0" 
d="M-235 608q-4 -34 -27 -32q-10 -5 -22 15l3 112q2 6 6 11q8 12 21 14q19 5 19 -27v-93z" />
    <glyph glyph-name="maitholowleftthai" horiz-adv-x="0" 
d="M-115 669q-5 -22 -16 -40q-28 -44 -86 -62q-39 -6 -95 0q-15 6 -15 9q0 7 15 17q-10 5 -17 13q-18 20 -20 54q3 19 11 34q18 34 57 37q64 -1 64 -67q5 -35 -22 -59q60 -6 84 66q13 15 24 15t16 -17zM-259 660q-8 31 -28 29q-23 -3 -20 -27q6 -31 28 -31q23 2 20 29z" />
    <glyph glyph-name="maitrilowleftthai" horiz-adv-x="0" 
d="M-118 719q2 -8 2 -19q0 -83 -105 -128q-5 -1 -10 -1q-14 0 -14 12q0 7 5 18q14 21 14 45q0 20 -12 37q-1 8 -8 8q-8 0 -20 -8q-8 -6 -15 -6q-10 0 -16 11q-9 8 -20 8q-12 0 -23 -11q66 8 64 -59q0 -15 -6 -26q-13 -27 -51 -33q-16 0 -27 7q-27 15 -28 57q0 89 80 99
q14 1 26 -7q4 -5 10 -5t13 5q15 7 23 7q41 -12 41 -66q0 -18 -5 -40q12 3 22 12q23 20 28 66q2 23 16 23q7 0 16 -6zM-310 624q-2 26 -27 26q-15 0 -19 -19q8 -24 27 -28q26 4 19 21z" />
    <glyph glyph-name="maichattawalowleftthai" horiz-adv-x="0" 
d="M-193 652q-2 -15 -20 -22h-52l-1 -55q-3 -20 -20 -20q-17 -4 -17 14v61h-56q-18 0 -15 16q0 17 25 20h46v49q2 5 5 9q8 10 18 11q17 4 16 -22l-1 -47h56q19 0 19 -8q0 -3 -3 -6z" />
    <glyph glyph-name="thanthakhatlowleftthai" horiz-adv-x="0" 
d="M-159 762q-6 -14 -16 -26q-22 -27 -54 -38q26 -22 21 -57q-7 -70 -73 -70q-64 8 -64 66q1 19 8 33q16 36 56 45q18 4 34 12q37 20 58 54q12 8 21 8q11 0 11 -14q0 -5 -2 -13zM-248 634q0 45 -31 40q-21 0 -23 -25q0 -33 30 -38q29 0 24 23z" />
    <glyph glyph-name="maieklowrightthai" horiz-adv-x="0" 
d="M-121 610q-4 -35 -27 -32q-11 -5 -22 14l3 113q2 6 6 11q8 12 21 13q19 5 19 -27v-92z" />
    <glyph glyph-name="maitholowrightthai" horiz-adv-x="0" 
d="M-15 669q-5 -22 -16 -40q-28 -44 -86 -62q-39 -6 -95 0q-15 6 -15 9q0 7 15 17q-10 5 -17 13q-18 20 -20 54q3 19 11 34q18 34 57 37q64 -1 64 -67q5 -35 -22 -59q60 -6 84 66q13 15 24 15t16 -17zM-159 660q-8 31 -28 29q-23 -3 -20 -27q6 -31 28 -31q23 2 20 29z" />
    <glyph glyph-name="maitrilowrightthai" horiz-adv-x="0" 
d="M-43 719q2 -8 2 -19q0 -83 -105 -128q-5 -1 -10 -1q-14 0 -14 12q0 7 5 18q14 21 14 45q0 20 -12 37q-1 8 -8 8q-8 0 -20 -8q-8 -6 -15 -6q-10 0 -16 11q-9 8 -20 8q-12 0 -23 -11q66 8 64 -59q0 -15 -6 -26q-13 -27 -51 -33q-16 0 -27 7q-27 15 -28 57q0 89 80 99
q14 1 26 -7q4 -5 10 -5t13 5q15 7 23 7q41 -12 41 -66q0 -18 -5 -40q12 3 22 12q23 20 28 66q2 23 16 23q7 0 16 -6zM-235 624q-2 26 -27 26q-15 0 -19 -19q8 -24 27 -28q26 4 19 21z" />
    <glyph glyph-name="maichattawalowrightthai" horiz-adv-x="0" 
d="M-53 652q-2 -15 -20 -22h-52l-1 -55q-3 -20 -20 -20q-17 -4 -17 14v61h-56q-18 0 -15 16q0 17 25 20h46v49q2 5 5 9q8 10 18 11q17 4 16 -22l-1 -47h56q19 0 19 -8q0 -3 -3 -6z" />
    <glyph glyph-name="thanthakhatlowrightthai" horiz-adv-x="0" 
d="M-34 757q-6 -14 -16 -26q-22 -27 -54 -38q26 -22 21 -57q-7 -70 -73 -70q-64 8 -64 66q1 19 8 33q16 36 56 45q18 4 34 12q37 20 58 54q12 8 21 8q11 0 11 -14q0 -5 -2 -13zM-123 629q0 45 -31 40q-21 0 -23 -25q0 -33 30 -38q29 0 24 23z" />
    <glyph glyph-name="nikhahitleftthai" horiz-adv-x="0" 
d="M-204 634q0 -31 -25 -54.5t-54 -23.5q-28 0 -48 22t-20 53t24 55t52 24q29 0 50 -22.5t21 -53.5zM-247 621q0 16 -12.5 31.5t-23.5 15.5q-27 0 -27 -32q0 -15 11.5 -26t23.5 -11q28 0 28 22z" />
    <glyph glyph-name="yoyingnobasethai" horiz-adv-x="650" 
d="M530 75q3 -60 -64 -75h-157q-16 -2 -16 16v359q-3 22 -14 39q-28 41 -92 49q-16 0 -31 -2q-36 -4 -57 -14q-9 -6 -9 -11t12.5 -8t23.5 -8q27 -12 37 -29q14 -11 14 -22q0 -14 -22 -23q-17 -7 -30 -15q-32 -17 -37 -33v-128q13 6 37 6q80 -12 80 -91q-1 -22 -9 -39
q-21 -41 -76 -51q-80 8 -80 90v205q0 12 6 23q12 28 47 52q8 3 8 8q0 6 -18 13q-40 13 -70 11q-17 15 -17 17q0 10 12 23q20 19 45 34q60 34 136 38q38 0 67 -12q70 -27 85 -106v-340h138v426q10 32 32 32q19 0 19 -24v-410zM157 77q3 45 -45 53q-27 -5 -29 -37
q7 -42 45 -50q30 10 30 27q0 4 -1 7z" />
    <glyph glyph-name="maihanakatleftthai" horiz-adv-x="0" 
d="M-34 678q-21 -33 -48 -57q-64 -59 -150 -67q-35 2 -61 12q-61 25 -63 86q4 21 13 37q23 39 72 43q68 -8 68 -83q3 -26 -22 -51q31 5 56 15q62 24 86 68q16 14 29 14q14 0 20 -17zM-247 642q3 41 -36 49q-30 -3 -30 -32q5 -47 37 -44q34 2 29 27z" />
    <glyph glyph-name="maitaikhuleftthai" horiz-adv-x="0" 
d="M-178 719l-41 -24q-3 -6 -28 -6q-19 0 -48 4q-77 2 -89 -72q1 -6 8 -24l18 13q13 8 25 8t18 -10q6 69 63 67q53 -4 53 -58q-1 -59 -64 -59q-52 -5 -80 24q-31 -22 -43 -22q-29 -2 -35 54q5 31 19 53q35 55 109 60q51 -6 72 5q18 17 32 17q19 -1 19 -12q0 -7 -8 -18z
M-236 612q0 24 -24 28q-15 0 -16 -19q0 -22 24 -28q19 0 16 19z" />
    <glyph glyph-name="saraileftthai" horiz-adv-x="0" 
d="M-192 581q-3 -25 -26 -25q-12 0 -26 6q-56 11 -122 11q-75 0 -143 -13q-7 -1 -13 -1q-25 0 -25 18q0 13 12 32q63 116 179 114q107 -9 146 -77q17 -28 18 -65zM-260 620q-8 14 -20 24q-31 26 -83 33q-21 -1 -40 -6q-46 -14 -75 -51q185 7 218 0z" />
    <glyph glyph-name="saraiileftthai" horiz-adv-x="0" 
d="M-197 767l-2 -188q-4 -24 -26 -24q-12 0 -26 6q-55 11 -118 11q-77 0 -145 -14q-7 -1 -13 -1q-24 0 -24 18q0 14 11 32q62 115 178 114q73 -7 116 -42v65q2 41 31 39q18 1 18 -16zM-266 618q-8 14 -21 24q-31 26 -83 32q-21 0 -39 -6q-45 -13 -74 -50q183 7 217 0z" />
    <glyph glyph-name="saraueleftthai" horiz-adv-x="0" 
d="M-182 731q4 -51 -41 -73q26 -35 26 -78q-4 -25 -27 -25q-12 0 -25 6q-57 12 -122 12q-76 0 -144 -14q-8 -1 -14 -1q-24 0 -24 18q0 13 12 32q63 116 180 115q13 -1 32 -5l-6 7q2 23 10 40q20 40 70 44q76 -4 73 -78zM-231 720q5 32 -32 42q-8 -1 -13 -3q-14 -7 -15 -23
q4 -10 9 -18q13 -19 27 -24q26 1 26 17q0 4 -2 9zM-265 619q-8 14 -21 25q-31 26 -83 32q-21 0 -40 -6q-46 -13 -75 -51q185 7 219 0z" />
    <glyph glyph-name="saraueeleftthai" horiz-adv-x="0" 
d="M-197 770l-3 -190q-3 -24 -25 -24q-12 0 -26 6q-55 11 -120 11q-77 0 -146 -14q-7 -1 -13 -1q-25 0 -25 19q0 13 12 32q63 116 180 114q18 -2 27 -4l-1 29q4 37 28 37q19 0 19 -21v-57q23 -10 44 -26v66q2 41 31 39q18 1 18 -16zM-267 619q-8 14 -21 25q-31 26 -83 32
q-21 0 -40 -6q-45 -13 -74 -51q185 7 218 0z" />
    <glyph glyph-name="maiekupperleftthai" horiz-adv-x="0" 
d="M-235 783q-4 -34 -27 -32q-10 -5 -22 15l3 112q2 6 6 11q8 12 21 14q19 5 19 -27v-93z" />
    <glyph glyph-name="maithoupperleftthai" horiz-adv-x="0" 
d="M-115 839q-5 -22 -16 -40q-28 -44 -86 -62q-39 -6 -95 0q-15 6 -15 9q0 7 15 17q-10 5 -17 13q-18 20 -20 54q3 19 11 34q18 34 57 37q64 -1 64 -67q5 -35 -22 -59q60 -6 84 66q13 15 24 15t16 -17zM-259 830q-8 31 -28 29q-23 -3 -20 -27q6 -31 28 -31q23 2 20 29z" />
    <glyph glyph-name="maitriupperleftthai" horiz-adv-x="0" 
d="M-118 884q2 -8 2 -19q0 -83 -105 -128q-5 -1 -10 -1q-14 0 -14 12q0 7 5 18q14 21 14 45q0 20 -12 37q-1 8 -8 8q-8 0 -20 -8q-8 -6 -15 -6q-10 0 -16 11q-9 8 -20 8q-12 0 -23 -11q66 8 64 -59q0 -15 -6 -26q-13 -27 -51 -33q-16 0 -27 7q-27 15 -28 57q0 89 80 99
q14 1 26 -7q4 -5 10 -5t13 5q15 7 23 7q41 -12 41 -66q0 -18 -5 -40q12 3 22 12q23 20 28 66q2 23 16 23q7 0 16 -6zM-310 789q-2 26 -27 26q-15 0 -19 -19q8 -24 27 -28q26 4 19 21z" />
    <glyph glyph-name="maichattawaupperleftthai" horiz-adv-x="0" 
d="M-193 822q-2 -15 -20 -22h-52l-1 -55q-3 -20 -20 -20q-17 -4 -17 14v61h-56q-18 0 -15 16q0 17 25 20h46v49q2 5 5 9q8 10 18 11q17 4 16 -22l-1 -47h56q19 0 19 -8q0 -3 -3 -6z" />
    <glyph glyph-name="thanthakhatupperleftthai" horiz-adv-x="0" 
d="M-159 932q-6 -14 -16 -26q-22 -27 -54 -38q26 -22 21 -57q-7 -70 -73 -70q-64 8 -64 66q1 19 8 33q16 36 56 45q18 4 34 12q37 20 58 54q12 8 21 8q11 0 11 -14q0 -5 -2 -13zM-248 804q0 45 -31 40q-21 0 -23 -25q0 -33 30 -38q29 0 24 23z" />
    <glyph glyph-name="thothannobasethai" horiz-adv-x="422" 
d="M367 440q-26 -21 -67 -21q-40 0 -84 21q-27 24 -67 24q-24 -7 -42 -15q-43 -17 -52 -31q41 -7 77 -16q86 -23 130 -56q41 -20 40 -70l-2 -172q8 -88 -100 -110q-71 -6 -80 105l-3 37q-13 -10 -35 -10q-80 3 -80 86q3 23 13 40q22 42 72 51q81 -4 81 -102v-78
q-2 -58 35 -78q4 -1 9 -1q33 0 39 39v201q-20 21 -49 37q-70 38 -176 46q-6 -2 -12 -2q-21 0 -21 23q0 10 3 22q58 94 153 94q60 6 102 -27q23 -14 50 -14q24 0 44 12q29 -1 29 -17q0 -8 -7 -18zM120 209q1 32 -21 42q-9 4 -22 4q-31 0 -30 -35q7 -45 46 -49q34 10 27 38z
" />
    <glyph glyph-name="kokaithai" unicode="&#xe01;" horiz-adv-x="473" 
d="M353 33q2 -4 2 -9q0 -22 -28 -36q-24 2 -24 24v336q1 87 -118 107q-9 1 -66 -11q-8 -5 -8 -9q0 -6 13 -10q18 -5 53 -29q7 -11 7 -22q0 -13 -12 -20t-24 -15q-28 -19 -48 -44l-5 -248q-1 -54 -35 -51q-16 -3 -21 27l2 142v116q2 12 8 24q14 28 44 48q12 8 12 15t-13 12
q-22 8 -59 8q-16 8 -16 17q0 8 8 20q16 22 38 38q53 39 128 42q135 2 162 -114v-358z" />
    <glyph glyph-name="khokhaithai" unicode="&#xe02;" horiz-adv-x="508" 
d="M388 72q0 -17 -7 -31q-16 -33 -64 -43l-150 -2q-18 16 -18 26v260q-4 19 13 32q42 34 42 78q-2 60 -62 60q-14 0 -30 -4q36 -26 36 -63q0 -8 -2 -16q4 -68 -86 -87q-21 3 -36 12q-38 23 -43 77q-3 68 123 129q22 4 45 4q115 0 110 -91q6 -77 -63 -131l3 -229l121 -5
q16 -1 16 21l-3 389q2 11 6 20q10 20 31 25q23 0 18 -26v-405zM99 374q-12 34 -42 39q-32 -9 -26 -44q9 -30 31 -32q39 -6 39 23q0 7 -2 14z" />
    <glyph glyph-name="khokhuatthai" unicode="&#xe03;" horiz-adv-x="558" 
d="M438 72q8 -57 -57 -72h-171q-19 -1 -19 24v252q4 12 19 32q59 39 54 96q2 44 -38 56l-43 -26q-12 -13 -30 -13q-10 0 -21 5l-26 26q-9 -7 -16 -15q-18 -20 -27 -44q81 2 88 -83q-2 -25 -11 -43q-21 -45 -75 -50q-73 -1 -83 91q5 30 16 60q27 71 84 130q12 11 26 11
q12 0 22 -8l21 -17q4 -8 12 -8q7 0 15 6l21 16q21 12 40 12q16 0 27 -9q10 -5 19 -13q19 -18 24 -46q0 -2 4 -24q2 -13 -4 -27q3 -55 -64 -113l-3 -227h129q15 -4 15 18l-3 389q2 11 6 20q10 20 31 25q23 0 18 -26v-405zM103 294q3 46 -46 54q-27 -5 -26 -38q5 -42 42 -45
q35 10 30 29z" />
    <glyph glyph-name="khokhwaithai" unicode="&#xe04;" horiz-adv-x="536" 
d="M416 36q3 -5 3 -11q0 -20 -35 -31q-21 2 -21 24v312q-3 32 -18 57q-36 58 -125 68q-6 1 -14 1q-82 0 -127 -107q-4 -24 -4 -52q0 -50 15 -86q-1 10 -1 22q0 116 96 116q74 -4 74 -88q2 -6 2 -14q0 -53 -84 -76q-12 -4 -34 6v-141q1 -4 1 -8q0 -24 -33 -34q-21 1 -21 21
v98q-69 62 -64 175q1 59 21 103q46 104 175 114q50 -1 88 -16q91 -38 106 -146v-307zM212 251q0 44 -43 53q-28 -6 -28 -27q0 -6 2 -10q5 -40 40 -48q31 13 31 26q0 4 -2 6z" />
    <glyph glyph-name="khokhonthai" unicode="&#xe05;" horiz-adv-x="536" 
d="M420 36q3 -38 -28 -41q-3 -2 -7 -2q-13 0 -17 29v371q2 5 2 11q0 36 -51 57l-46 -30q-9 -10 -24 -10q-14 0 -30 10l-49 30q-58 4 -91 -112q-4 -24 -4 -52q0 -50 15 -86q-1 10 -1 22q0 116 96 116q74 -4 74 -88q2 -6 2 -14q0 -53 -84 -76q-12 -4 -34 6v-141q1 -4 1 -8
q0 -24 -33 -34q-21 1 -21 21v98q-69 62 -64 175q-1 54 10 96q27 100 111 121q12 5 26 5q26 0 49 -16l32 -22l38 24q20 12 41 12q18 0 32 -9q55 -39 55 -87v-376zM212 251q0 44 -43 53q-28 -6 -28 -27q0 -6 2 -10q5 -40 40 -48q31 13 31 26q0 4 -2 6z" />
    <glyph glyph-name="khorakhangthai" unicode="&#xe06;" horiz-adv-x="620" 
d="M500 61q5 -32 -11 -52q-9 -16 -20 -15q-13 0 -26 20q-18 37 -44 65q-61 66 -149 77l3 -90q-2 -18 -10 -32q-21 -34 -74 -41q-79 15 -79 111q1 28 12 50q27 51 99 61v125q1 7 5 14q8 16 25 30q22 11 22 23q0 8 -11 15l-22 19q-5 9 -12 9q-11 0 -22.5 -15.5t-29.5 -15.5
q-13 0 -28 8l-16 16q-4 5 -9 5q-6 0 -13 -10l-30 -46q94 1 87 -92q7 -72 -84 -87q-72 -4 -84 89q3 25 13 53q24 67 82 135q20 21 38 21q16 0 27 -16l16 -16q3 -8 8 -8t11 8l22 13q16 8 30 8q20 0 30 -16q14 -8 46 -49q13 -9 13 -22t-16 -27l-32 -29q-17 7 -17 -36v-108
q40 -6 73 -17q81 -28 120 -81l3 358q1 9 5 16q8 18 27 25q25 -2 22 -24v-429zM104 294q-5 53 -66 46q-10 -13 -10 -40q21 -38 43 -38q33 -3 33 32zM201 158q-11 2 -20 2q-31 0 -37 -21q-2 -12 -2 -23q0 -39 19 -50q17 -17 27 -17q11 0 11 20z" />
    <glyph glyph-name="ngonguthai" unicode="&#xe07;" horiz-adv-x="414" 
d="M294 95q0 -83 -100 -103q-57 -5 -70 60q-3 22 -15 44q-29 52 -98 96q-22 9 -22 23q0 13 25 28q32 -8 59 -25q65 -43 97 -131q3 -46 38 -43q35 5 35 37v257q-19 -8 -40 -8q-69 0 -79 89q3 24 12 41q23 43 77 50q83 -10 83 -81q0 -10 -2 -21v-313zM246 408q5 45 -44 54
q-24 -6 -29 -38q15 -47 46 -43q34 5 27 27z" />
    <glyph glyph-name="chochanthai" unicode="&#xe08;" horiz-adv-x="456" 
d="M335 79q0 -20 -10 -35q-23 -38 -89 -50q-12 0 -22 5q-24 11 -34 43l-8 153q-3 -11 -38 -11q-70 -4 -83 80q3 24 12 43q23 43 77 48q77 0 80 -75l8 -211q12 -25 23 -25q15 0 36 19v325q-20 72 -112 72q-76 2 -153 -72q-10 -5 -18 -5q-13 0 -13 15q0 6 2 14q20 26 46 45
q62 45 144 48q118 7 150 -85zM172 262q0 45 -43 51q-30 -6 -29 -41q9 -40 43 -43q31 4 31 24q0 5 -2 9z" />
    <glyph glyph-name="chochingthai" unicode="&#xe09;" horiz-adv-x="513" 
d="M437 96q3 -86 -89 -104q-47 -3 -56 43v99q-18 -13 -35 -29q-40 -37 -67 -81q-17 -24 -51 -24q-5 -2 -11 -2q-23 0 -27 34v140q-2 -11 -35 -11q-65 -1 -83 83q2 25 11 44q22 45 77 56q21 -4 38 -13q38 -23 43 -71v-196q30 32 55 57q60 60 87 75v182q-6 21 -21 38
q-36 38 -110 43q-25 -1 -49 -8q-56 -15 -94 -54q-11 -6 -20 -6q-18 0 -15 28q23 25 49 43q63 44 134 45q137 0 175 -110v-193q95 -13 95 -92q0 -8 -1 -16zM386 83q5 42 -20 55q-10 5 -26 4l-3 -70q-1 -22 10 -28q5 -2 12 -1q34 2 27 40zM101 244q-3 46 -40 46
q-28 -3 -30 -32q10 -50 46 -49q26 10 26 26q0 5 -2 9z" />
    <glyph glyph-name="chochangthai" unicode="&#xe0a;" horiz-adv-x="508" 
d="M430 496q-44 -63 -118 -81q76 -32 76 -113l-2 -234q-1 -61 -66 -68l-142 3q-29 1 -23 36v221q0 34 21 50q35 18 35 43q0 10 -4 17q-4 87 -84 87q-15 0 -29 -3q57 -21 50 -81q-15 -88 -87 -87q-78 12 -76 84q30 132 153 137q87 -3 118 -82q7 13 29 21q66 22 126 79
q28 2 28 -14q0 -7 -5 -15zM341 76v223q-15 66 -84 92q2 -12 2 -23q0 -68 -57 -95v-223h113q32 0 26 26zM94 365q1 5 1 10q0 33 -35 40q-29 0 -34 -37q12 -46 42 -42q28 6 28 22q0 4 -2 7z" />
    <glyph glyph-name="sosothai" unicode="&#xe0b;" horiz-adv-x="558" 
d="M478 509q-3 -11 -15 -24q-28 -31 -95 -65q16 -13 29 -28q30 -35 41 -73l-3 -255q-2 -14 -8 -26q-14 -28 -46 -38h-171q-19 -1 -19 24v252q4 12 19 32q59 39 54 96q2 44 -38 56l-43 -26q-12 -13 -30 -13q-10 0 -21 5l-26 26q-9 -7 -16 -15q-18 -20 -27 -44q81 2 88 -83
q-2 -25 -11 -43q-21 -45 -75 -50q-73 -1 -83 91q5 30 16 60q27 71 84 130q12 11 26 11q12 0 22 -8l21 -17q4 -8 12 -8q7 0 15 6l21 16q21 12 40 12q16 0 27 -9q10 -5 19 -13q19 -18 24 -46q31 13 55 26q59 32 76 59q14 7 25 7q14 0 14 -15q0 -4 -1 -10zM384 302q-2 16 -9 30
q-19 35 -66 59q3 -55 -64 -113l-3 -227l137 3zM103 294q3 46 -46 54q-27 -5 -26 -38q5 -42 42 -45q35 10 30 29z" />
    <glyph glyph-name="chochoethai" unicode="&#xe0c;" horiz-adv-x="650" 
d="M530 480l-3 -411q3 -65 -69 -75h-22l-77 102q-1 -28 -10 -48q-23 -48 -86 -51q-62 -9 -62 80q3 29 15 53q27 56 92 73v173q-5 21 -17 37q-31 39 -98 46q-60 1 -112 -30q15 -4 29 -9q32 -12 48 -25q20 -11 20 -24q0 -14 -22 -27q-27 -14 -62 -37v-94q104 -15 94 -112
q2 -7 2 -15q0 -72 -96 -89q-46 -6 -53 56v246q8 17 16 30q21 32 43 42q-67 18 -104 16q-9 8 -9 18q0 11 11 22q81 77 195 77q144 7 166 -112v-200l107 -144q10 -4 10 16v400q5 38 35 38q19 0 19 -22zM308 77v80q-49 -15 -59 -75q3 -32 24 -37q33 10 35 32zM140 85q1 8 1 15
q0 50 -49 54l-3 -85q6 -23 16 -23q3 0 5 2q32 10 32 29q0 4 -2 8z" />
    <glyph glyph-name="yoyingthai" unicode="&#xe0d;" horiz-adv-x="650" 
d="M530 75q3 -60 -64 -75h-157q-16 -2 -16 16v359q-3 22 -14 39q-28 41 -92 49q-16 0 -31 -2q-36 -4 -57 -14q-9 -6 -9 -11t12.5 -8t23.5 -8q27 -12 37 -29q14 -11 14 -22q0 -14 -22 -23q-17 -7 -30 -15q-32 -17 -37 -33v-128q13 6 37 6q80 -12 80 -91q-1 -22 -9 -39
q-21 -41 -76 -51q-80 8 -80 90v205q0 12 6 23q12 28 47 52q8 3 8 8q0 6 -18 13q-40 13 -70 11q-17 15 -17 17q0 10 12 23q20 19 45 34q60 34 136 38q38 0 67 -12q70 -27 85 -106v-340h138v426q10 32 32 32q19 0 19 -24v-410zM519 -72q-6 -41 -24 -72q-42 -74 -135 -82
q-38 2 -66 13q-67 27 -70 93q4 23 15 41q25 42 78 47q75 -9 75 -90q3 -29 -24 -56q26 1 45 10q46 23 53 83q21 35 37 35q11 0 16 -22zM157 77q3 45 -45 53q-27 -5 -29 -37q7 -42 45 -50q30 10 30 27q0 4 -1 7zM344 -130q2 44 -40 53q-32 -3 -32 -35q5 -52 40 -48q37 3 32 30
z" />
    <glyph glyph-name="dochadathai" unicode="&#xe0e;" horiz-adv-x="515" 
d="M399 -108q1 -32 -7 -42q-3 -4 -7 -3l-82 -70q-13 -11 -25 -11q-15 0 -23 17q-12 24 -51 50q-34 -61 -125 -69q-76 7 -77 75q10 84 85 82q40 3 93 -18q22 30 32 71q17 12 27 12q12 0 12 -20q0 -6 -1 -13l-27 -69q30 -15 69 -59l59 51l-8 509q-15 71 -115 71q-49 0 -88 -21
q-12 -4 -12 -9q0 -4 12 -7q33 -5 70 -32q19 -9 19 -20q0 -14 -25 -28q-34 -7 -53 -42v-216q-15 -86 -96 -85q-74 15 -72 90q10 82 88 88q18 3 29 -5l3 133q7 18 43 59q-45 30 -96 24q-22 6 -22 18q0 11 14 24q79 72 186 77q149 7 163 -117zM100 78q7 47 -40 51
q-27 0 -32 -35q6 -46 43 -50q31 6 31 25q0 5 -2 9zM162 -148q-30 30 -86 24q-20 2 -24 -13q-2 -7 0 -16q5 -36 31 -36q5 0 9 1q65 18 70 40z" />
    <glyph glyph-name="topatakthai" unicode="&#xe0f;" horiz-adv-x="523" 
d="M403 -109q0 -28 -13 -46l-56 -67q-13 -16 -26 -16t-22 14l-35 42l-38 -42q-11 -12 -20 -12q-11 0 -17 14q0 30 -13 35q-22 -52 -78 -51q-82 10 -75 78q10 72 78 77q37 0 59 -10q15 19 32 77q12 6 21 6q15 0 15 -20q0 -7 -2 -15l-29 -78q18 -12 27 -35l18 30q9 14 21 14
q14 0 28 -14l40 -46l32 43v479q-10 110 -121 107q-42 0 -88 -19q-18 -8 -18 -12t13 -4q30 -7 72 -34q17 -14 17 -25q0 -13 -20 -21q-37 -15 -56 -48l3 -217q-15 -79 -88 -83q-83 10 -81 91q10 77 83 89q4 1 9 1q14 0 26 -9v128q18 34 48 67q-37 30 -93 24q-27 2 -27 19
q0 9 8 21q79 72 190 83q109 5 151 -69q17 -31 20 -75zM101 75q0 43 -40 51q-32 0 -35 -35q10 -49 46 -51q33 12 33 26q0 5 -4 9zM128 -149q-6 19 -54 21q-17 0 -16 -27q0 -30 32 -43q35 0 38 49z" />
    <glyph glyph-name="thothanthai" unicode="&#xe10;" horiz-adv-x="422" 
d="M367 440q-26 -21 -67 -21q-40 0 -84 21q-27 24 -67 24q-24 -7 -42 -15q-43 -17 -52 -31q41 -7 77 -16q86 -23 130 -56q41 -20 40 -70l-2 -172q8 -88 -100 -110q-71 -6 -80 105l-3 37q-13 -10 -35 -10q-80 3 -80 86q3 23 13 40q22 42 72 51q81 -4 81 -102v-78
q-2 -58 35 -78q4 -1 9 -1q33 0 39 39v201q-20 21 -49 37q-70 38 -176 46q-6 -2 -12 -2q-21 0 -21 23q0 10 3 22q58 94 153 94q60 6 102 -27q23 -14 50 -14q24 0 44 12q29 -1 29 -17q0 -8 -7 -18zM308 -116q9 -23 -6 -70q2 -3 2 -8q0 -14 -21 -32l-37 -32q-11 -8 -24 -8
q-12 0 -24 8l-25 18l-59 -24q-8 -8 -16 -8q-11 0 -19 14l-5 21q-25 -35 -75 -35q-20 3 -34 11q-34 19 -36 59q13 78 78 78q34 3 59 -16l8 48q13 35 30 35q9 0 18 -13q2 -8 2 -21q0 -37 -18 -89l16 -33l65 24q-10 8 -17 17q-17 21 -18 45q13 86 83 86q79 -3 73 -75zM120 209
q1 32 -21 42q-9 4 -22 4q-31 0 -30 -35q7 -45 46 -49q34 10 27 38zM262 -127q0 43 -35 41q-25 0 -24 -30q0 -40 35 -40q26 0 26 18q0 6 -2 11zM50 -199q-22 27 -57 21q-17 0 -13 -19q5 -30 32 -26q43 9 38 24z" />
    <glyph glyph-name="thonangmonthothai" unicode="&#xe11;" horiz-adv-x="657" 
d="M527 41q7 -46 -30 -46q-4 -2 -7 -2q-12 0 -12 24v400q1 30 -22 35q-34 -30 -65 -82q-76 -124 -127 -337q2 -2 2 -4q0 -13 -37 -36q-19 -1 -19 30v321q1 8 3 15q7 17 22 26l21 13q14 11 14 15q0 8 -8 18l-27 27l-46 -35q-12 -13 -28 -13q-13 0 -26 10l-33 32
q-11 -9 -19 -19q-22 -24 -32 -48q100 9 103 -87q3 -76 -87 -92q-86 13 -84 98q4 34 15 65q28 76 85 127q12 11 26 11t26 -11l24 -22q5 -8 13 -8q7 0 14 8l22 19q12 14 32 14q19 0 41 -14q35 -33 35 -70q3 -7 3 -15q0 -17 -17 -29l-43 -29v-168q10 44 30 91q48 112 138 220
q18 14 36 14q25 0 42 -28q22 -17 22 -65v-373zM108 287q0 46 -46 52q-25 0 -30 -33q0 -37 46 -54q30 0 30 35z" />
    <glyph glyph-name="thophuthaothai" unicode="&#xe12;" horiz-adv-x="727" 
d="M610 480l-3 -412q-1 -20 -9 -35q-17 -36 -61 -41q-36 -2 -48 33q-7 24 -16 44q-23 49 -54 72v-60q-2 -24 -12 -41q-24 -42 -85 -45q-62 1 -62 78q-2 85 113 138v199q1 46 -49 51l-48 -32q-12 -10 -28 -10q-15 0 -31 10l-41 27q-22 -12 -41 -30q-44 -45 -61 -118
q0 -15 19 -65l70 -135l32 78q-73 19 -70 87q18 89 86 89q84 -5 81 -92q2 -15 -13 -35q-20 -32 -36 -63q-37 -73 -45 -129q1 -6 1 -12q0 -32 -31 -36q-21 -5 -21 30q-1 5 -14 32l-86 164q-17 33 -17 74q0 29 9 56q12 31 28 56q39 61 88 87q15 12 32 12q15 0 27 -12l19 -14
q9 -10 21 -10q10 0 19 7l30 22q20 9 41 9q58 0 77 -74v-221q26 -16 49 -38q53 -54 78 -132q6 -3 6 22v404q4 38 35 38q21 -2 21 -27zM246 267q0 43 -40 49q-32 2 -35 -33q0 -45 43 -54q35 0 32 38zM373 76v89q-47 -13 -65 -84q0 -37 30 -38q35 6 35 33z" />
    <glyph glyph-name="nonenthai" unicode="&#xe13;" horiz-adv-x="699" 
d="M628 101q4 -87 -91 -104q-56 -1 -56 59v107q-26 -12 -48 -31q-52 -45 -76 -114q-1 -17 -18 -17q-9 0 -22 6l-3 370q3 79 -101 86q-19 -1 -38 -5q-45 -8 -80 -27q20 -5 36 -10q38 -12 49 -22q22 -7 22 -19q0 -11 -22 -24q-43 -21 -43 -48v-148q11 14 38 11q23 -1 40 -9
q41 -22 43 -82q-3 -24 -12 -41q-24 -42 -79 -45q-78 10 -78 94v222q2 10 6 20q10 23 32 39q-43 22 -110 22q-19 6 -19 18q0 11 19 25q96 75 198 75q145 -5 145 -107v-277q20 21 39 38q46 40 82 54v262q14 27 32 27q19 -2 19 -21l-3 -260q105 -14 99 -124zM583 93q2 6 2 14
q0 49 -56 64v-113q1 -13 16 -13q38 -4 38 48zM213 74q0 43 -49 51q-19 0 -29 -32q0 -37 45 -56q33 0 33 37z" />
    <glyph glyph-name="dodekthai" unicode="&#xe14;" horiz-adv-x="551" 
d="M431 27q-16 -37 -24 -37q-10 0 -22 12v314q-3 41 -20 71q-40 71 -141 76q-125 3 -153 -142q-3 -13 8 -35l93 -183q15 30 41 74q-22 2 -39 12q-40 23 -46 80q24 88 85 88q85 -2 85 -93q3 -33 -22 -68q-14 -16 -27 -39q-32 -54 -58 -130q1 -4 1 -8q0 -21 -31 -25
q-22 0 -19 41q-1 2 -16 35l-82 178q-19 19 -19 62q7 55 29 95q53 96 170 105q52 1 92 -16q96 -40 115 -159v-308zM254 259q-7 47 -47 49q-30 2 -32 -30q5 -51 46 -52q31 3 33 33z" />
    <glyph glyph-name="totaothai" unicode="&#xe15;" horiz-adv-x="555" 
d="M435 41q3 -38 -28 -41q-3 -2 -7 -2q-13 0 -17 29v371q2 5 2 11q0 36 -51 57l-46 -30q-10 -9 -25 -9q-14 0 -29 9l-49 30q-29 -14 -50 -34q-51 -49 -58 -123q1 -12 22 -62l75 -139q11 23 33 63q-21 5 -36 16q-38 25 -43 76q3 23 13 41q23 42 74 51q84 -11 84 -92
q-14 -31 -38 -71q-21 -44 -57 -149q-1 -11 -4 -20q-9 -20 -31 -23q-5 1 -9 6q-10 11 -15 40l-95 182q-22 20 -22 78q-3 105 133 195q17 10 37 10q21 0 39 -12l32 -22l38 24q20 12 41 12q18 0 32 -9q55 -39 55 -87v-376zM250 257q0 44 -43 52q-32 0 -33 -38q0 -35 46 -51
q35 0 30 37z" />
    <glyph glyph-name="thothungthai" unicode="&#xe16;" horiz-adv-x="463" 
d="M343 21q-3 -26 -23 -26q-8 0 -19 5l-3 370q-1 24 -11 41q-26 42 -96 47q-67 3 -92 -32q18 -7 32 -14q32 -16 36 -26q21 -7 21 -19q0 -11 -21 -24q-22 -5 -38 -12q-38 -18 -38 -47l-2 -126q29 12 37 11q24 -1 41 -9q41 -22 42 -82q-2 -24 -12 -41q-23 -42 -79 -45
q-78 9 -77 94l2 198q9 16 19 30q24 34 46 51q-19 21 -86 21q-19 6 -19 18q0 11 19 25q69 75 171 75q116 7 150 -110v-373zM164 72q0 43 -48 51q-20 0 -30 -32q0 -37 46 -56q33 0 32 37z" />
    <glyph glyph-name="thothahanthai" unicode="&#xe17;" horiz-adv-x="573" 
d="M453 31q1 -4 1 -10q0 -22 -28 -28q-22 0 -22 27v369q-13 29 -40 65q-49 -36 -89 -86q-95 -122 -131 -296v-46q0 -30 -33 -33q-19 -3 -19 25l-2 320q-13 -8 -33 -8q-21 1 -37 9q-39 21 -44 75q0 22 9 40q21 42 80 57q76 -18 76 -78v-206q29 55 59 103q74 114 145 168
q10 9 23 9q10 0 21 -6t21 -17q26 -27 43 -76v-377zM98 408q-3 48 -46 55q-25 2 -30 -38q5 -43 43 -49q38 3 33 32z" />
    <glyph glyph-name="thothongthai" unicode="&#xe18;" horiz-adv-x="465" 
d="M393 446q-18 -20 -66 -20q-36 0 -84 12q-28 18 -62 18q-21 0 -42 -8l-45 -29q61 -9 108 -27q114 -42 143 -117v-208q-1 -14 -8 -26q-16 -29 -59 -41h-211q-27 -1 -27 24v232q18 32 34 32q12 0 20 -18v-219l200 -3v205q-4 27 -29 49q-62 52 -222 72q-24 -5 -24 17
q0 9 5 23q77 90 168 90q35 2 67 -13q18 -20 57 -20q25 0 55 9q34 3 34 -12q0 -8 -12 -22z" />
    <glyph glyph-name="nonuthai" unicode="&#xe19;" horiz-adv-x="533" 
d="M474 104q0 -93 -98 -111q-55 5 -59 49v122q-98 -25 -182 -149q-15 -22 -26 -22q-14 0 -18 27v323q-12 -19 -41 -11q-72 3 -78 82q0 81 87 95q75 0 81 -95v-326q33 53 174 130v258q16 32 31 32q11 0 18 -15l2 -266q116 -8 109 -123zM428 102q0 75 -65 73v-106
q0 -28 24 -27q43 0 41 60zM94 406q0 58 -46 57q-25 0 -30 -36q0 -47 46 -51q28 0 30 30z" />
    <glyph glyph-name="bobaimaithai" unicode="&#xe1a;" horiz-adv-x="535" 
d="M415 67q-6 -17 -14 -30q-21 -32 -53 -37h-229q-29 -3 -29 24v322q-28 -10 -38 -10q-74 -1 -74 85q2 23 10 41q21 41 72 44q80 -4 80 -93v-362h222l2 426q1 8 4 14q8 15 28 18q19 1 19 -19v-423zM92 410q0 47 -40 54q-32 0 -32 -35q0 -45 43 -51q33 0 29 32z" />
    <glyph glyph-name="poplathai" unicode="&#xe1b;" horiz-adv-x="535" 
d="M415 67q-6 -17 -14 -30q-21 -32 -53 -37h-229q-29 -3 -29 24v323q-28 -11 -38 -11q-74 -1 -74 85q2 23 10 41q21 41 72 45q80 -5 80 -94v-362h222v640q1 9 5 17q9 17 29 20q19 2 19 -18v-643zM92 411q0 46 -40 53q-32 0 -32 -35q0 -45 43 -50q33 0 29 32z" />
    <glyph glyph-name="phophungthai" unicode="&#xe1c;" horiz-adv-x="533" 
d="M413 38q4 -40 -29 -40q-7 0 -14 2q-13 48 -32 87q-46 92 -118 122q-28 -9 -51 -29q-56 -50 -78 -153q5 -32 -25 -32q-11 0 -26 5v427q5 21 16 36q26 37 75 42q76 -9 76 -89q1 -73 -86 -88q-13 -2 -33 8l-2 -180q28 29 52 50q58 50 85 52q30 -11 55 -27q60 -37 87 -91v335
q10 30 32 30q16 3 16 -19v-448zM161 408q0 53 -46 51q-30 0 -29 -37q0 -32 40 -51q40 0 35 37z" />
    <glyph glyph-name="fofathai" unicode="&#xe1d;" horiz-adv-x="533" 
d="M414 38q4 -40 -29 -40q-7 0 -14 2q-13 48 -32 87q-46 93 -119 124q-28 -9 -52 -30q-56 -51 -78 -154q5 -32 -25 -32q-11 0 -26 5v429q6 21 17 37q26 37 75 42q75 -9 75 -89q2 -74 -86 -90q-12 -1 -32 9l-3 -181q28 29 53 50q58 51 85 52q30 -11 55 -27q61 -38 88 -92v562
q10 30 32 30q16 3 16 -19v-675zM161 410q0 53 -46 52q-31 0 -30 -38q0 -32 40 -51q41 0 36 37z" />
    <glyph glyph-name="phophanthai" unicode="&#xe1e;" horiz-adv-x="595" 
d="M477 27q-11 -35 -29 -35q-11 0 -23 13q-3 42 -12 85q-23 102 -75 193q-20 28 -60 104q-9 -27 -49 -104q-23 -36 -40 -75q-42 -94 -50 -187q-11 -30 -27 -30q-11 0 -22 14v336q-13 -14 -41 -14q-80 14 -80 87q27 93 88 93q79 0 79 -98v-205q34 57 59 106q61 116 69 167
q21 27 28 27q24 4 24 -24q1 -19 6 -41q13 -53 46 -112q8 -7 17 -19q21 -30 38 -79v248q8 30 27 30q11 0 25 -11zM92 409q0 46 -46 52q-33 0 -33 -36q0 -43 47 -52q33 0 32 36z" />
    <glyph glyph-name="fofanthai" unicode="&#xe1f;" horiz-adv-x="595" 
d="M474 22q-9 -30 -26 -30q-10 0 -23 13q-3 42 -12 85q-22 102 -75 193q-20 27 -60 103q-9 -27 -48 -103q-23 -36 -40 -75q-42 -94 -50 -186q-11 -30 -27 -30q-11 0 -22 13v335q-13 -14 -41 -14q-79 27 -79 88q14 92 87 92q79 0 79 -98v-204q34 57 59 105q60 116 69 167
q16 27 27 27q25 4 25 -24q1 -19 6 -41q12 -53 45 -112q9 -7 17 -19q21 -30 38 -79l2 474q7 30 25 30q11 0 24 -11v-699zM93 408q0 46 -46 52q-32 0 -32 -36q0 -43 46 -51q33 0 32 35z" />
    <glyph glyph-name="phosamphaothai" unicode="&#xe20;" horiz-adv-x="537" 
d="M417 387l-2 -367q-10 -28 -27 -28q-3 0 -6 1q-18 0 -19 19v364q-15 75 -125 87q-71 -6 -90 -33q48 -7 71 -27q21 -11 21 -24q0 -17 -29 -33q-60 -23 -63 -76l-2 -190q-1 -73 -87 -87q-71 0 -79 92q0 71 87 87q18 0 27 -3v98q0 50 76 106q-24 16 -82 19q-24 2 -24 18
q0 10 8 23q78 71 169 73q141 0 176 -119zM99 77q0 47 -46 49q-28 0 -30 -33q0 -45 41 -54q37 0 37 27q0 6 -2 11z" />
    <glyph glyph-name="momathai" unicode="&#xe21;" horiz-adv-x="536" 
d="M418 75q-3 -21 -12 -36q-22 -38 -73 -45q-24 -2 -47 22l-118 123v-64q-3 -20 -13 -35q-26 -37 -86 -46q-22 3 -38 13q-39 23 -46 78q4 35 19 62q35 66 116 83v107q-24 -5 -42 -5q-79 8 -79 80q1 25 10 44q22 45 80 50q81 -2 81 -99v-193l152 -169q9 -5 18 -5q22 0 27 29
l-3 405q9 31 26 31q12 0 25 -15zM125 407q0 49 -47 53q-28 0 -34 -32q0 -46 48 -54q36 0 33 33zM120 72l-3 107q-73 0 -79 -80q0 -35 42 -54q37 0 40 27z" />
    <glyph glyph-name="yoyakthai" unicode="&#xe22;" horiz-adv-x="503" 
d="M383 74q2 -62 -80 -74h-239q-24 2 -24 24v154q7 15 14 27q17 29 29 37q-48 56 -48 133q11 130 93 130q80 -2 80 -88q-6 -85 -83 -85q-22 -1 -34 11q1 -15 5 -28q10 -31 34 -49q14 -9 14 -20t-14 -20q-17 -14 -42 -51v-124h244v430q15 26 32 26q10 0 19 -10v-423zM165 409
q0 52 -43 53q-32 0 -34 -34q0 -43 45 -53q37 0 32 34z" />
    <glyph glyph-name="roruathai" unicode="&#xe23;" horiz-adv-x="439" 
d="M368 434q-25 -18 -70 -13q-63 0 -111 29q-20 9 -44 9q-21 0 -40 -6q-28 -12 -52 -38q106 -7 225 -76q40 -30 43 -65v-195q0 -35 -24.5 -58.5t-59.5 -27.5q-70 0 -81 92q0 68 87 89q18 0 30 -3v92q-58 91 -258 109q-26 3 -26 22q0 12 10 27q75 85 154 84q41 0 87 -25
q37 -16 78 -16q17 0 30 3q10 2 17 2q19 0 19 -11q0 -9 -14 -24zM276 74q0 53 -46 54q-28 0 -30 -38q0 -43 46 -51q33 0 30 35z" />
    <glyph glyph-name="ruthai" unicode="&#xe24;" horiz-adv-x="459" 
d="M339 -216q-4 -26 -24 -26q-8 0 -19 5l-3 607q-1 23 -11 41q-25 42 -95 47q-66 3 -91 -32q18 -7 31 -14q32 -16 36 -26q21 -7 21 -18t-21 -24q-22 -5 -37 -13q-37 -18 -38 -46l-3 -125q28 11 38 10q23 0 40 -9q41 -21 42 -81q-2 -23 -12 -41q-23 -41 -78 -45
q-79 10 -78 94l3 197q9 16 19 30q23 33 45 50q-18 21 -85 21q-19 6 -19 18q0 11 19 25q69 75 170 75q115 7 150 -110v-610zM160 74q0 43 -48 51q-19 0 -29 -32q0 -37 45 -56q33 0 32 37z" />
    <glyph glyph-name="lolingthai" unicode="&#xe25;" horiz-adv-x="496" 
d="M376 383l-1 -356q-3 -33 -20 -33q-11 0 -26 14q-6 63 -29 118q-54 132 -179 201q-23 4 -30 -19v-146q17 8 35 8q81 -1 81 -89q-8 -87 -84 -87q-84 9 -83 90l2 213q1 17 9 31q19 33 70 48q32 -7 65 -28q77 -51 143 -164v181q-32 95 -138 95q-86 7 -154 -73
q-15 -10 -26 -10q-12 0 -12 16q0 9 3 21q92 92 189 92q150 0 185 -123zM159 76q0 52 -41 51q-32 0 -32 -41q0 -34 46 -48q34 0 27 38z" />
    <glyph glyph-name="luthai" unicode="&#xe26;" horiz-adv-x="537" 
d="M417 387l-2 -587q-10 -28 -27 -28q-3 0 -6 1q-18 0 -19 19v584q-15 75 -125 87q-71 -6 -90 -33q48 -7 71 -27q21 -11 21 -24q0 -17 -29 -33q-60 -23 -63 -76l-2 -190q-1 -73 -87 -87q-71 0 -79 92q0 71 87 87q18 0 27 -3v98q0 50 76 106q-24 16 -82 19q-24 2 -24 18
q0 10 8 23q78 71 169 73q141 0 176 -119zM99 77q0 47 -46 49q-28 0 -30 -33q0 -45 41 -54q37 0 37 27q0 6 -2 11z" />
    <glyph glyph-name="wowaenthai" unicode="&#xe27;" horiz-adv-x="476" 
d="M356 362l-3 -281q-1 -83 -90 -87q-81 0 -76 93q0 71 87 87q18 0 35 -3v194q-19 93 -125 100q-98 0 -158 -95q-15 -9 -25 -9q-12 0 -12 17q0 8 2 17q98 119 196 111q109 0 150 -72q17 -30 19 -72zM307 73q1 55 -47 55q-30 -3 -30 -41q31 -49 44 -49q33 0 33 35z" />
    <glyph glyph-name="sosalathai" unicode="&#xe28;" horiz-adv-x="535" 
d="M415 36q3 -5 3 -11q0 -21 -35 -32q-21 2 -21 24v313q-3 32 -18 56q-36 58 -125 68q-6 1 -14 1q-82 0 -127 -107q-4 -24 -4 -52q0 -50 15 -86q-1 10 -1 22q0 116 96 116q75 -3 75 -87q2 -6 2 -13q0 -53 -85 -77q-12 -5 -34 5v-140q1 -4 1 -8q0 -25 -33 -35q-21 1 -21 21
v98q-69 62 -64 175q1 59 21 103q46 105 175 115q70 1 121 -34q22 22 28 46q14 9 23 9q12 0 12 -16q0 -5 -1 -11q-4 -16 -32 -55q35 -42 43 -101v-307zM211 250q0 45 -43 53q-28 -6 -28 -27q0 -6 2 -10q5 -42 40 -48q31 14 31 27q0 3 -2 5z" />
    <glyph glyph-name="sorusithai" unicode="&#xe29;" horiz-adv-x="537" 
d="M525 305q-12 -20 -27 -37q-36 -42 -84 -68v-134q-6 -17 -14 -30q-21 -31 -53 -36h-228q-29 -3 -29 24v321q-29 -11 -37 -11q-75 -1 -75 85q2 23 10 41q21 41 73 44q79 -4 79 -93v-361h220l1 129q-32 -8 -51 -9q-38 2 -66 13q-66 27 -69 93q4 23 15 41q25 42 78 47
q74 -9 74 -91q3 -28 -24 -55q17 3 44 10l1 247q1 8 4 14q8 15 28 18q19 1 19 -19v-237q40 24 58 57q18 16 32 16q15 0 21 -19zM294 265q3 45 -40 53q-32 -2 -32 -34q6 -52 40 -48q37 3 32 29zM92 409q0 46 -39 53q-32 0 -32 -35q0 -45 42 -50q33 0 29 32z" />
    <glyph glyph-name="sosuathai" unicode="&#xe2a;" horiz-adv-x="495" 
d="M375 26q-3 -33 -20 -33q-11 0 -26 14q-7 63 -29 119q-55 132 -181 202q-22 3 -30 -19v-147q18 8 36 8q81 -1 81 -89q-8 -87 -84 -87q-85 8 -84 89l2 215q1 16 9 30q19 33 70 49q33 -7 65 -28q79 -51 145 -165v182q-33 95 -139 95q-87 8 -155 -73q-16 -10 -26 -10
q-12 0 -12 16q0 8 3 21q92 92 190 92q66 1 115 -32q18 25 21 46q15 16 25 16q13 0 16 -24q-3 -13 -7 -24q-10 -27 -23 -41q24 -27 35 -66zM157 75q0 53 -40 52q-33 0 -33 -41q0 -35 46 -49q28 0 28 26q0 6 -1 12z" />
    <glyph glyph-name="hohipthai" unicode="&#xe2b;" horiz-adv-x="548" 
d="M428 26q-7 -31 -23 -31q-12 0 -26 17v197q6 55 -64 105q-37 -37 -67 -79q-74 -101 -106 -212q-14 -29 -29 -29q-12 0 -22 21l-3 323q-17 -10 -32 -10q-23 3 -40 12q-40 22 -44 71q3 24 12 42q21 44 72 53q81 0 81 -103v-269q20 39 40 73q50 82 97 126q-57 23 -57 76
q2 25 11 44q22 46 76 53q83 -9 83 -89q-1 -15 -5 -27q-9 -29 -30 -41q76 -46 76 -121v-202zM342 409q0 43 -44 53q-34 0 -35 -37q0 -47 52 -49q33 0 27 33zM96 403q-3 57 -46 57q-35 -1 -35 -38q8 -14 15 -24q16 -23 28 -24q38 4 38 29z" />
    <glyph glyph-name="lochulathai" unicode="&#xe2c;" horiz-adv-x="595" 
d="M540 620q-21 -23 -67 -43l3 -551q-11 -35 -29 -35q-11 0 -23 13q-3 42 -12 85q-23 102 -75 193q-20 28 -60 104q-9 -27 -49 -104q-23 -36 -40 -75q-42 -94 -50 -187q-11 -30 -27 -30q-11 0 -22 14v335q-13 -13 -41 -13q-79 14 -79 87q14 93 87 93q79 0 79 -98v-205
q34 57 59 106q61 116 69 167q22 27 27 27q25 3 25 -25q1 -19 6 -40q13 -53 46 -112q8 -7 17 -19q20 -30 37 -79l-2 330q-13 -6 -33 -6q-82 14 -82 90q1 23 9 40q22 42 81 53q79 -10 79 -101q4 -3 10 -3q17 0 34 27q15 6 26 6q13 0 13 -11q0 -5 -3.5 -14t-12.5 -19zM421 607
q3 12 3 25q0 46 -41 54q-33 -1 -33 -36q2 -49 47 -49q14 -2 24 6zM91 408q0 46 -46 51q-32 0 -33 -35q0 -43 47 -52q33 0 32 36z" />
    <glyph glyph-name="oangthai" unicode="&#xe2d;" horiz-adv-x="500" 
d="M380 63q0 -26 -18.5 -43.5t-44.5 -20.5h-234q-39 0 -45 56l3 215q1 74 84 88q77 0 77 -85q0 -71 -82 -88q-15 0 -37 3v-141l250 3l5 313q-27 94 -136 98q-96 -5 -161 -72q-13 -7 -21 -7q-13 0 -13 16q0 7 2 15q88 86 207 91q143 -6 164 -133v-308zM160 262q-3 50 -42 50
q-32 1 -35 -26q1 -16 5 -27q11 -27 37 -29q35 -2 35 32z" />
    <glyph glyph-name="honokhukthai" unicode="&#xe2e;" horiz-adv-x="500" 
d="M433 427q-13 -17 -56 -45l2 -317q0 -26 -16 -45t-42 -22h-237q-40 0 -46 48l3 155q2 79 88 90q74 -7 75 -90q0 -70 -80 -83q-13 -2 -35 0v-69l242 3v309q-44 -43 -175 -46q-95 -2 -147 59q-8 10 -8 21q0 14 11 27q98 86 194 83q111 5 157 -80q25 9 43 29q11 4 18 4
q14 0 14 -13q0 -8 -5 -18zM318 401q-27 64 -125 61q-92 -5 -141 -61q42 -45 104 -43q146 12 162 43zM156 196q2 53 -40 53q-35 -5 -32 -37q8 -54 42 -54q30 1 30 38z" />
    <glyph glyph-name="paiyannoithai" unicode="&#xe2f;" horiz-adv-x="539" 
d="M25 463q8 23 54 30q16 2 21 2q23 0 42 -11q25 -18 32 -47q3 -7 3 -20q0 -25 -19 -44q35 0 71 36q10 12 21 28l24 35q21 24 54 24q27 0 48 -20q18 -19 25 -47q4 -18 4 -37v-298q0 -47 -24 -75t-62 -41l-42 53q14 2 30.5 18.5t16.5 44.5v289q0 35 -16 35q-4 0 -23 -22
l-24 -28q-50 -50 -127 -50q-67 0 -105 36q-17 16 -19 30zM94 455q-41 0 -41 -40q0 -42 41 -42q40 0 40 42q0 40 -40 40zM25 463l-12 -31zM13 432l-3 -48z" />
    <glyph glyph-name="saraathai" unicode="&#xe30;" horiz-adv-x="480" 
d="M359 398q-11 -25 -35 -44q-57 -45 -168 -56q-34 2 -59 12q-59 24 -62 83q4 21 13 36q23 38 70 42q66 -9 66 -81q3 -25 -21 -49q29 1 54 7q61 15 95 52q16 14 29 14t18 -16zM355 126q-11 -25 -35 -43q-57 -46 -168 -56q-34 2 -59 12q-59 23 -62 82q4 21 13 36q23 38 70 42
q66 -8 66 -80q3 -26 -21 -50q29 1 54 7q61 15 95 52q16 14 29 14q12 0 18 -16zM142 383q2 40 -36 48q-29 -3 -28 -31q5 -46 35 -43q33 3 29 26zM137 112q3 39 -35 47q-29 -2 -28 -31q4 -45 35 -42q33 2 28 26z" />
    <glyph glyph-name="maihanakatthai" unicode="&#xe31;" horiz-adv-x="0" 
d="M56 678q-21 -33 -48 -57q-64 -59 -150 -67q-35 2 -61 12q-61 25 -63 86q4 21 13 37q23 39 72 43q68 -8 68 -83q3 -26 -22 -51q31 5 56 15q62 24 86 68q16 14 29 14q14 0 20 -17zM-157 642q3 41 -36 49q-30 -3 -30 -32q5 -47 37 -44q34 2 29 27z" />
    <glyph glyph-name="saraaathai" unicode="&#xe32;" horiz-adv-x="461" 
d="M341 26q-11 -32 -28 -32q-12 0 -25 18v344q9 76 -111 98q-22 -1 -45 -8q-55 -18 -106 -64q-14 -6 -24 -6q-16 0 -16 17q0 6 3 16q23 24 49 43q65 44 139 52q145 3 164 -124v-354z" />
    <glyph glyph-name="saraamthai" unicode="&#xe33;" horiz-adv-x="461" 
d="M-69 634q0 -31 -25 -54.5t-54 -23.5q-28 0 -48 22t-20 53t24 55t52 24q29 0 50 -22.5t21 -53.5zM341 26q-11 -32 -28 -32q-12 0 -25 18v344q9 76 -111 98q-22 -1 -45 -8q-55 -18 -106 -64q-14 -6 -24 -6q-16 0 -16 17q0 6 3 16q23 24 49 43q65 44 139 52q145 3 164 -124
v-354zM-112 621q0 16 -12.5 31.5t-23.5 15.5q-27 0 -27 -32q0 -15 11.5 -26t23.5 -11q28 0 28 22z" />
    <glyph glyph-name="saraithai" unicode="&#xe34;" horiz-adv-x="0" 
d="M-117 581q-3 -25 -26 -25q-12 0 -26 6q-56 11 -122 11q-75 0 -143 -13q-7 -1 -13 -1q-25 0 -25 18q0 13 12 32q63 116 179 114q107 -9 146 -77q17 -28 18 -65zM-185 620q-8 14 -20 24q-31 26 -83 33q-21 -1 -40 -6q-46 -14 -75 -51q185 7 218 0z" />
    <glyph glyph-name="saraiithai" unicode="&#xe35;" horiz-adv-x="0" 
d="M-117 767l-2 -188q-4 -24 -26 -24q-12 0 -26 6q-55 11 -118 11q-77 0 -145 -14q-7 -1 -13 -1q-24 0 -24 18q0 14 11 32q62 115 178 114q73 -7 116 -42v65q2 41 31 39q18 1 18 -16zM-186 618q-8 14 -21 24q-31 26 -83 32q-21 0 -39 -6q-45 -13 -74 -50q183 7 217 0z" />
    <glyph glyph-name="sarauethai" unicode="&#xe36;" horiz-adv-x="0" 
d="M-102 731q4 -51 -41 -73q26 -35 26 -78q-4 -25 -27 -25q-12 0 -25 6q-57 12 -122 12q-76 0 -144 -14q-8 -1 -14 -1q-24 0 -24 18q0 13 12 32q63 116 180 115q13 -1 32 -5l-6 7q2 23 10 40q20 40 70 44q76 -4 73 -78zM-151 720q5 32 -32 42q-8 -1 -13 -3q-14 -7 -15 -23
q4 -10 9 -18q13 -19 27 -24q26 1 26 17q0 4 -2 9zM-185 619q-8 14 -21 25q-31 26 -83 32q-21 0 -40 -6q-46 -13 -75 -51q185 7 219 0z" />
    <glyph glyph-name="saraueethai" unicode="&#xe37;" horiz-adv-x="0" 
d="M-117 770l-3 -190q-3 -24 -25 -24q-12 0 -26 6q-55 11 -120 11q-77 0 -146 -14q-7 -1 -13 -1q-25 0 -25 19q0 13 12 32q63 116 180 114q18 -2 27 -4l-1 29q4 37 28 37q19 0 19 -21v-57q23 -10 44 -26v66q2 41 31 39q18 1 18 -16zM-187 619q-8 14 -21 25q-31 26 -83 32
q-21 0 -40 -6q-45 -13 -74 -51q185 7 218 0z" />
    <glyph glyph-name="sarauthai" unicode="&#xe38;" horiz-adv-x="0" 
d="M-119 -232q-9 -33 -30 -33q-11 0 -25 11l2 53h-23q-19 1 -33 8q-34 17 -38 63q2 23 11 39q20 41 68 46q68 -3 68 -82v-105zM-164 -130q0 31 -34 37q-17 0 -20 -23q0 -23 34 -39q24 0 20 25z" />
    <glyph glyph-name="sarauuthai" unicode="&#xe39;" horiz-adv-x="0" 
d="M-119 -197q6 -35 -26 -44h-95q-18 3 -18 18v50h-21q-18 1 -31 7q-31 15 -34 58q2 21 10 36q19 38 63 43q63 -4 63 -76v-89h42v112q5 39 25 39q10 0 22 -10v-144zM-250 -108q0 29 -31 34q-16 0 -19 -21q0 -21 32 -37q21 0 18 24z" />
    <glyph glyph-name="phinthuthai" unicode="&#xe3a;" horiz-adv-x="0" 
d="M-124 -90q4 -40 -30 -43q-34 0 -43 46q-3 37 30 40q31 3 43 -43z" />
    <glyph glyph-name="wordjoin" unicode="&#xfeff;" horiz-adv-x="0" 
 />
    <glyph glyph-name="wordbreak" unicode="&#x200b;" horiz-adv-x="0" 
 />
    <glyph glyph-name="bahtthai" unicode="&#xe3f;" horiz-adv-x="512" 
d="M392 168q0 -69 -46 -115q-50 -49 -134 -50v-26q0 -34 -32 -34q-33 0 -33 34v26h-73q-37 0 -37 38v487q0 38 37 38h73v22q0 34 33 34q32 0 32 -34v-23q63 -5 101 -47q35 -38 35 -87q0 -45 -21.5 -78.5t-56.5 -44.5v-1q52 -5 87 -44.5t35 -94.5zM279 419q0 72 -67 85v-173
q67 16 67 88zM147 328v178h-41v-178h41zM322 168q0 43 -29.5 72.5t-80.5 30.5v-207q48 2 79 30.5t31 73.5zM147 63v208h-41v-208h41z" />
    <glyph glyph-name="saraethai" unicode="&#xe40;" horiz-adv-x="267" 
d="M211 85q-6 -91 -85 -91q-85 -1 -85 88v387q10 37 32 37q11 0 24 -11v-328q12 11 34 11q80 -9 80 -93zM161 77q0 45 -40 45q-28 0 -27 -32q0 -35 40 -45q30 0 27 32z" />
    <glyph glyph-name="saraaethai" unicode="&#xe41;" horiz-adv-x="490" 
d="M434 85q-6 -91 -85 -91q-85 -1 -85 88v387q10 37 32 37q11 0 24 -10v-328q12 10 34 10q80 -8 80 -93zM210 85q-6 -91 -85 -91q-85 -1 -85 88v387q10 37 32 37q11 0 24 -10v-328q12 10 34 10q80 -8 80 -93zM384 77q0 45 -40 45q-28 0 -27 -32q0 -32 40 -45q30 0 27 32z
M160 77q0 45 -40 45q-28 0 -27 -32q0 -32 40 -45q30 0 27 32z" />
    <glyph glyph-name="saraothai" unicode="&#xe42;" horiz-adv-x="309" 
d="M247 80q0 -20 -8 -37q-19 -38 -73 -49q-76 8 -76 88v529q-2 16 -13 31q-26 37 -90 64q-17 1 -17 13q0 8 10 22q18 16 40 29q53 29 114 32q22 -1 41 -5q44 -9 62 -32q5 -10 5 -19q0 -20 -30 -20q-49 29 -85 29q-19 0 -33 -3q-35 -5 -41 -19q18 -8 33 -20q36 -30 53 -78
v-477q13 7 32 7q76 -8 76 -85zM200 76q0 15 -12 26t-25 11q-22 0 -22 -37q0 -15 13 -24.5t27 -9.5q19 0 19 34z" />
    <glyph glyph-name="saraaimaimuanthai" unicode="&#xe43;" horiz-adv-x="369" 
d="M309 82q5 -71 -80 -87q-80 2 -80 92v630q7 40 -32 40q-13 0 -25 -8q-29 -19 -48 -72q14 5 28 5q74 -4 65 -78q1 -68 -80 -85q-21 4 -37 15q-37 29 -38 93q6 46 22 81q39 85 123 99q72 2 72 -60v-585q14 5 35 5q75 -6 75 -85zM89 597q0 30 -27 35q-19 0 -20 -25
q0 -23 27 -38q23 0 20 28zM261 78q0 16 -11.5 27t-25.5 11q-23 0 -23 -38q0 -15 13.5 -25t26.5 -10q20 0 20 35z" />
    <glyph glyph-name="saraaimaimalaithai" unicode="&#xe44;" horiz-adv-x="375" 
d="M315 81q-9 -90 -87 -90q-79 17 -79 90l2 628l-33 -126q-21 -45 -56 -45q-4 -1 -9 -1q-27 0 -27 34q4 119 -43 204q-4 9 -4 19q0 29 47 29q51 -94 51 -178q0 -14 -2 -28q3 0 13 30l30 113q16 43 51 43q36 3 36 -28v-610q14 8 28 8q82 -7 82 -92zM264 81q0 16 -12.5 27
t-26.5 11q-23 0 -23 -38q0 -15 13.5 -25.5t27.5 -10.5q21 0 21 36z" />
    <glyph glyph-name="lakkhangyaothai" unicode="&#xe45;" horiz-adv-x="461" 
d="M341 -204q-11 -32 -28 -32q-12 0 -25 18v574q9 76 -111 98q-22 -1 -45 -8q-55 -18 -106 -64q-14 -6 -24 -6q-16 0 -16 17q0 6 3 16q23 24 49 43q65 44 139 52q145 3 164 -124v-584z" />
    <glyph glyph-name="maiyamokthai" unicode="&#xe46;" horiz-adv-x="473" 
d="M353 -204q-7 -31 -26 -31q-12 0 -28 15v422q1 34 -24 34q-11 0 -28 -9l-24 -22q-5 -5 -11 -5q-9 0 -16 13q2 -14 0 -32q-4 -21 -14 -36q-24 -38 -73 -43q-24 1 -41 10q-42 21 -46 77q1 23 10 41q21 44 82 59q9 1 20 1q56 0 81 -31q32 27 70 27q68 1 68 -65v-425zM147 183
q0 48 -43 52q-26 0 -28 -35q0 -38 44 -47q28 0 27 30z" />
    <glyph glyph-name="maitaikhuthai" unicode="&#xe47;" horiz-adv-x="0" 
d="M-98 719l-41 -24q-3 -6 -28 -6q-19 0 -48 4q-77 2 -89 -72q1 -6 8 -24l18 13q13 8 25 8t18 -10q6 69 63 67q53 -4 53 -58q-1 -59 -64 -59q-52 -5 -80 24q-31 -22 -43 -22q-29 -2 -35 54q5 31 19 53q35 55 109 60q51 -6 72 5q18 17 32 17q19 -1 19 -12q0 -7 -8 -18z
M-156 612q0 24 -24 28q-15 0 -16 -19q0 -22 24 -28q19 0 16 19z" />
    <glyph glyph-name="maiekthai" unicode="&#xe48;" horiz-adv-x="0" 
d="M-121 780q-4 -35 -27 -32q-11 -5 -22 14l3 113q2 6 6 11q8 12 21 13q19 5 19 -27v-92z" />
    <glyph glyph-name="maithothai" unicode="&#xe49;" horiz-adv-x="0" 
d="M-15 839q-5 -22 -16 -40q-28 -44 -86 -62q-39 -6 -95 0q-15 6 -15 9q0 7 15 17q-10 5 -17 13q-18 20 -20 54q3 19 11 34q18 34 57 37q64 -1 64 -67q5 -35 -22 -59q60 -6 84 66q13 15 24 15t16 -17zM-159 830q-8 31 -28 29q-23 -3 -20 -27q6 -31 28 -31q23 2 20 29z" />
    <glyph glyph-name="maitrithai" unicode="&#xe4a;" horiz-adv-x="0" 
d="M-43 889q2 -8 2 -19q0 -83 -105 -128q-5 -1 -10 -1q-14 0 -14 12q0 7 5 18q14 21 14 45q0 20 -12 37q-1 8 -8 8q-8 0 -20 -8q-8 -6 -15 -6q-10 0 -16 11q-9 8 -20 8q-12 0 -23 -11q66 8 64 -59q0 -15 -6 -26q-13 -27 -51 -33q-16 0 -27 7q-27 15 -28 57q0 89 80 99
q14 1 26 -7q4 -5 10 -5t13 5q15 7 23 7q41 -12 41 -66q0 -18 -5 -40q12 3 22 12q23 20 28 66q2 23 16 23q7 0 16 -6zM-235 794q-2 26 -27 26q-15 0 -19 -19q8 -24 27 -28q26 4 19 21z" />
    <glyph glyph-name="maichattawathai" unicode="&#xe4b;" horiz-adv-x="0" 
d="M-53 822q-2 -15 -20 -22h-52l-1 -55q-3 -20 -20 -20q-17 -4 -17 14v61h-56q-18 0 -15 16q0 17 25 20h46v49q2 5 5 9q8 10 18 11q17 4 16 -22l-1 -47h56q19 0 19 -8q0 -3 -3 -6z" />
    <glyph glyph-name="thanthakhatthai" unicode="&#xe4c;" horiz-adv-x="0" 
d="M-34 927q-6 -14 -16 -26q-22 -27 -54 -38q26 -22 21 -57q-7 -70 -73 -70q-64 8 -64 66q1 19 8 33q16 36 56 45q18 4 34 12q37 20 58 54q12 8 21 8q11 0 11 -14q0 -5 -2 -13zM-123 799q0 45 -31 40q-21 0 -23 -25q0 -33 30 -38q29 0 24 23z" />
    <glyph glyph-name="nikhahitthai" unicode="&#xe4d;" horiz-adv-x="0" 
d="M-69 634q0 -31 -25 -54.5t-54 -23.5q-28 0 -48 22t-20 53t24 55t52 24q29 0 50 -22.5t21 -53.5zM-112 621q0 16 -12.5 31.5t-23.5 15.5q-27 0 -27 -32q0 -15 11.5 -26t23.5 -11q28 0 28 22z" />
    <glyph glyph-name="fongmanthai" unicode="&#xe4f;" horiz-adv-x="543" 
d="M423 192q0 -79 -60 -137.5t-142 -58.5q-81 0 -133 59t-52 140q0 79 59.5 133.5t142.5 54.5q82 0 133.5 -55t51.5 -136zM384 192q0 64 -41 108t-106 44q-67 0 -114.5 -43.5t-47.5 -106.5q0 -65 41.5 -112t105.5 -47q67 0 114.5 46.5t47.5 110.5zM339 182q0 -46 -29 -74
t-76 -28t-80.5 31.5t-33.5 77.5q0 48 27.5 80t72.5 32q47 0 83 -36t36 -83z" />
    <glyph glyph-name="zerothai" unicode="&#xe50;" horiz-adv-x="543" 
d="M423 192q0 -79 -60 -137.5t-142 -58.5q-81 0 -133 59t-52 140q0 79 59.5 133.5t142.5 54.5q82 0 133.5 -55t51.5 -136zM366 181q0 58 -45 103t-103 45q-57 0 -91 -40t-34 -100q0 -57 42 -97t100 -40q59 0 95 35.5t36 93.5z" />
    <glyph glyph-name="onethai" unicode="&#xe51;" horiz-adv-x="597" 
d="M477 174q3 -9 3 -22q0 -64 -66 -149q-17 -7 -31 -7q-21 0 -21 20q0 7 2 15q14 12 24 29q24 38 26 89q-1 47 -17 81q-38 83 -145 91q-7 1 -16 1q-108 0 -140 -145q-2 -76 47 -102q-4 15 -4 33q0 92 104 107q93 -2 93 -106q-1 -116 -140 -116q-46 3 -79 20q-80 43 -80 152
q7 58 30 101q56 104 185 120q64 -3 110 -25q111 -52 115 -187zM277 99q0 46 -50 54q-32 0 -28 -38q0 -44 47 -53q34 0 31 37z" />
    <glyph glyph-name="twothai" unicode="&#xe52;" horiz-adv-x="579" 
d="M458 69q-1 -16 -8 -29q-16 -31 -56 -43l-309 2q-34 -1 -47 48v348q0 31 -33 44q-2 6 -2 12q0 31 41 36q11 -7 19 -15q20 -17 25 -33q3 -8 6 -30l3 -362h306l3 255q3 29 -25 29q-10 0 -23 -4l-28 -28q-9 -10 -20 -10t-21 13l-17 22q-10 7 -21 7q-13 0 -24 -10
q-33 -23 -30 -78q21 14 41 14q90 -14 90 -94q-2 -89 -89 -89q-98 -6 -101 133q-1 150 123 176q18 -1 31 -3q31 -7 33 -25q33 28 67 28q64 0 64 -59zM275 151q0 45 -45 51q-26 0 -28 -34q0 -42 48 -50q25 0 25 33z" />
    <glyph glyph-name="threethai" unicode="&#xe53;" horiz-adv-x="541" 
d="M421 193q4 -121 -44 -191q-16 -12 -28 -12q-18 0 -18 29q35 62 35 159q1 75 -29 142q-8 9 -19 9q-13 0 -27 -12l-38 -34q-12 -18 -25 -18q-11 0 -21 15q-2 8 -5 14q-8 16 -19 23q-14 11 -29 11q-19 0 -34 -19q-29 -74 -26 -133q22 14 49 14q92 -4 84 -98q-7 -99 -96 -99
q-92 -8 -95 148q-1 67 11 116q28 117 113 124q65 0 81 -38q14 11 28 20q33 20 62 24q90 -1 90 -194zM178 83q3 43 -49 49q-30 0 -26 -37q0 -41 40 -47q37 3 35 35z" />
    <glyph glyph-name="fourthai" unicode="&#xe54;" horiz-adv-x="599" 
d="M528 443q-12 -28 -34 -50q-53 -53 -146 -70q-55 -7 -82 9q-20 5 -39 5q-23 0 -37 -8q-25 -12 -44 -31q-46 -43 -55 -109q18 -131 133 -131q32 0 71 12q-108 22 -108 116q2 29 12 50q24 51 85 52q87 4 87 -99q-1 -16 -5 -30q-9 -33 -33 -51q36 -6 63 -14q64 -18 71 -41
q11 -12 11 -24q0 -20 -31 -32q-30 19 -91 44q-74 -47 -145 -47q-51 9 -87 29q-88 48 -88 140q4 59 26 103q52 107 181 121q30 2 49 -8q56 -8 94 8q19 6 35 15q39 21 55 52q21 14 36 14q18 0 16 -25zM319 181q0 54 -50 52q-30 0 -29 -29q0 -50 47 -58q32 0 32 35z" />
    <glyph glyph-name="fivethai" unicode="&#xe55;" horiz-adv-x="599" 
d="M526 437q-12 -27 -34 -49q-53 -53 -145 -69q-54 -8 -81 9q-20 4 -39 4q-24 0 -37 -7q-25 -12 -43 -30q-46 -44 -55 -109q18 -131 133 -131q32 0 70 12q-108 22 -108 116q2 29 12 49q24 50 84 52q87 4 87 -98q-1 -16 -5 -30q-9 -33 -33 -51q36 -6 62 -13q64 -18 71 -42
q11 -12 11 -24q0 -20 -31 -31q-30 19 -90 43q-74 -46 -144 -46q-51 9 -87 29q-87 47 -87 139q4 52 21 93q43 98 149 123q-13 18 -11 44q17 86 93 90q88 0 86 -87q-1 -30 -10 -47q12 3 19 7q19 6 35 15q39 20 55 51q21 14 35 14q19 0 17 -26zM326 409q-3 49 -43 49
q-9 -1 -15 -5q-16 -9 -20 -33q0 -8 3 -15q5 -16 19 -24q11 -2 20 -6q3 -1 10 -1q26 -3 26 35zM318 177q0 54 -50 52q-29 0 -28 -29q0 -49 46 -57q33 0 32 34z" />
    <glyph glyph-name="sixthai" unicode="&#xe56;" horiz-adv-x="557" 
d="M437 219q0 -133 -103 -192q-44 -24 -104 -32q-164 10 -177 131q7 95 98 108q87 0 88 -102q0 -49 -35 -76q19 -6 44 -6q143 30 134 154q0 124 -126 134q-70 0 -137 -52q-18 -10 -29 -10q-17 0 -17 22q-6 84 -90 122q0 41 37 38q82 -19 97 -117q81 49 145 44q118 0 158 -83
q17 -34 17 -83zM184 126q0 46 -47 52q-32 0 -29 -38q0 -43 43 -52q38 0 33 38z" />
    <glyph glyph-name="seventhai" unicode="&#xe57;" horiz-adv-x="697" 
d="M576 281q-4 -71 -26 -126q-53 -132 -186 -163q-14 -4 -26 -4q-28 0 -28 21q0 8 5 20q19 23 33 48q33 60 37 122q7 123 -64 131q-31 3 -45 -34q-12 -13 -26 -13q-12 0 -23 13q-18 37 -49 37q-77 0 -85 -155q27 21 55 21q94 -5 94 -106q-10 -98 -106 -98q-7 -2 -16 -2
q-79 0 -84 173q2 64 19 109q38 109 139 109q44 1 63 -24q9 7 19 12q24 13 48 15q118 -5 118 -140q0 -17 -2 -36q-1 -28 -6 -53q-12 -61 -43 -99q31 10 55 32q57 54 67 160q7 81 -25 152q0 43 37 43q6 0 12 -1q45 -77 39 -164zM184 84q0 53 -48 57q-24 0 -31 -39
q0 -45 46 -52q37 0 33 34z" />
    <glyph glyph-name="eightthai" unicode="&#xe58;" horiz-adv-x="619" 
d="M514 426q-3 -16 -13 -32q-24 -39 -82 -70q-28 -13 -63 -13q-29 0 -57 10q-34 12 -63 12q-36 0 -50 -21q-19 -7 -34 -22q-37 -36 -52 -104q-1 -119 67 -119l40 82q17 30 39 30q15 0 29 -14l39 -37q35 68 89 68q96 -30 96 -102q-3 -29 -14 -50q-27 -51 -91 -57
q-39 -3 -70 37l-80 82l-40 -85q-4 -23 -35 -23q-11 0 -26 4q-108 38 -108 166q2 39 19 75q40 85 147 137q31 11 57 11t41 -11q34 -14 65 -14q30 0 49 14q12 4 21 11q21 15 25 38q21 18 36 18t19 -21zM440 79q0 51 -49 58q-32 0 -34 -37q0 -48 46 -58q44 0 37 37z" />
    <glyph glyph-name="ninethai" unicode="&#xe59;" horiz-adv-x="654" 
d="M501 552q31 -27 31 -71q0 -52 -47 -112q-2 -12 -23 -12q-14 0 -35 6q-17 6 -34 6q-60 0 -69 -70q0 -42 6 -77q13 -84 49 -116q4 -10 4 -19q0 -30 -37 -30q-7 0 -15 1q-73 66 -64 221q-36 48 -77 48q-72 1 -84 -122q18 7 39 7q93 -11 93 -109q5 -95 -100 -110
q-103 15 -103 116q9 61 21 108q29 115 72 146q38 24 78 24q44 0 77 -34q44 77 121 77q30 0 62 -13q6 19 6 37q0 33 -19 50q-2 51 32 51q7 0 16 -3zM183 93q0 54 -58 55q-30 -4 -25 -39q3 -42 48 -58q35 0 35 42z" />
    <glyph glyph-name="saraulowthai" horiz-adv-x="0" 
d="M-119 -462q-9 -33 -30 -33q-11 0 -25 11l2 53h-23q-19 1 -33 8q-34 17 -38 63q2 23 11 39q20 41 68 46q68 -3 68 -82v-105zM-164 -360q0 31 -34 37q-17 0 -20 -23q0 -23 34 -39q24 0 20 25z" />
    <glyph glyph-name="sarauulowthai" horiz-adv-x="0" 
d="M-119 -452q6 -35 -26 -44h-95q-18 3 -18 18v50h-21q-18 1 -31 7q-31 15 -34 58q2 21 10 36q19 38 63 43q63 -4 63 -76v-89h42v112q5 39 25 39q10 0 22 -10v-144zM-250 -363q0 29 -31 34q-16 0 -19 -21q0 -21 32 -37q21 0 18 24z" />
    <glyph glyph-name="phinthulowthai" horiz-adv-x="0" 
d="M-124 -370q4 -40 -30 -43q-34 0 -43 46q-3 37 30 40q31 3 43 -43z" />
    <glyph glyph-name="exclam" unicode="!" horiz-adv-x="500" 
d="M167 250v500h166v-500h-166zM167 0v167h166v-167h-166z" />
    <glyph glyph-name="quotedbl" unicode="&#x22;" horiz-adv-x="583" 
d="M167 500v250h83v-250h-83zM333 500v250h84v-250h-84z" />
    <glyph glyph-name="numbersign" unicode="#" horiz-adv-x="833" 
d="M333 750h84l-42 -167h167l41 167h84l-42 -167h125v-83h-146l-41 -167h104v-83h-125l-42 -167h-83l41 167h-166l-42 -167h-83l41 167h-125v83h146l42 167h-104v83h125zM354 500l-41 -167h166l42 167h-167z" />
    <glyph glyph-name="dollar" unicode="$" horiz-adv-x="583" 
d="M500 583h-83q-11 84 -84 84v-229l118 -112q49 -46 49 -118v-41q0 -148 -167 -167v-83h-83v83q-167 14 -167 167h84v-15q0 -60 83 -69v230l-118 111q-49 46 -49 118v41q0 148 167 167v83h83v-83q157 0 167 -167zM333 250v-167q52 21 52 78q0 38 -52 89zM250 667
q-51 -21 -51 -78q0 -23 12.5 -42.5t38.5 -46.5v167z" />
    <glyph glyph-name="percent" unicode="%" horiz-adv-x="917" 
d="M83 583q0 69 49.5 118t117.5 49t117.5 -49t49.5 -118q0 -67 -49 -116.5t-118 -49.5t-118 49.5t-49 116.5zM417 750h291l-416 -750h-84l375 667h-166v83zM167 583q0 -34 24.5 -58.5t58.5 -24.5q35 0 59 24.5t24 58.5q0 35 -24.5 59.5t-58.5 24.5t-58.5 -24.5t-24.5 -59.5z
M500 167q0 68 49.5 117t117.5 49t117 -49t49 -117t-48.5 -117.5t-117.5 -49.5t-118 49.5t-49 117.5zM583 167q0 -34 24.5 -59t59.5 -25q34 0 58.5 25t24.5 59t-24.5 58.5t-58.5 24.5t-59 -24.5t-25 -58.5z" />
    <glyph glyph-name="ampersand" unicode="&#x26;" horiz-adv-x="833" 
d="M667 500h83v-83q0 -72 -47.5 -119.5t-111.5 -47.5h-8v-83q0 -56 -48 -111.5t-118 -55.5h-167q-70 0 -118.5 55.5t-48.5 111.5v83q0 56 42 111.5t125 55.5q-167 19 -167 166q0 68 49.5 117.5t117.5 49.5h167q68 0 117 -49.5t49 -117.5v-83h-166v83q0 35 -24.5 59.5
t-59.5 24.5q-34 0 -58.5 -24.5t-24.5 -59.5v-41q0 -74 83 -84v-83q-83 -11 -83 -83v-125q0 -42 24.5 -63t58.5 -21q35 0 59.5 21t24.5 63v166h166q35 0 59.5 24.5t24.5 59.5v83z" />
    <glyph glyph-name="quotesingle" unicode="'" horiz-adv-x="250" 
d="M83 500v250h84v-250h-84z" />
    <glyph glyph-name="parenleft" unicode="(" horiz-adv-x="417" 
d="M333 -83h-6q-91 0 -167.5 76t-76.5 207v350q0 131 76.5 207t167.5 76h6v-83q-83 -10 -83 -83v-584q0 -74 83 -83v-83z" />
    <glyph glyph-name="parenright" unicode=")" horiz-adv-x="417" 
d="M83 833h7q91 0 167 -76t76 -207v-350q0 -131 -76 -207t-167 -76h-7v83q84 10 84 83v584q0 74 -84 83v83z" />
    <glyph glyph-name="asterisk" unicode="*" horiz-adv-x="583" 
d="M250 572v150h83v-150l130 75l42 -72l-130 -75l130 -75l-42 -72l-130 75v-150h-83v150l-130 -75l-41 72l129 75l-129 75l41 72z" />
    <glyph glyph-name="plus" unicode="+" horiz-adv-x="583" 
d="M83 250v83h167v167h83v-167h167v-83h-167v-167h-83v167h-167z" />
    <glyph glyph-name="comma" unicode="," horiz-adv-x="333" 
d="M83 167h167v-167q0 -148 -167 -167v84q81 2 84 83h-84v167z" />
    <glyph glyph-name="hyphen" unicode="-" horiz-adv-x="583" 
d="M83 250v83h417v-83h-417z" />
    <glyph glyph-name="period" unicode="." horiz-adv-x="333" 
d="M83 0v167h167v-167h-167z" />
    <glyph glyph-name="slash" unicode="/" horiz-adv-x="583" 
d="M83 0l334 833h83l-333 -833h-84z" />
    <glyph glyph-name="zero" unicode="0" horiz-adv-x="667" 
d="M250 750h167q68 0 117 -49.5t49 -117.5v-416q0 -68 -49 -117.5t-117 -49.5h-167q-68 0 -117.5 49t-49.5 118v416q0 69 49.5 118t117.5 49zM252 153q6 -34 26.5 -52t54.5 -18q35 0 59.5 25t24.5 59v283zM416 598q-18 69 -83 69q-34 0 -58.5 -24.5t-24.5 -59.5v-283z" />
    <glyph glyph-name="one" unicode="1" horiz-adv-x="667" 
d="M250 0v583h-83v84l166 83h84v-750h-167z" />
    <glyph glyph-name="two" unicode="2" horiz-adv-x="667" 
d="M167 583h-84q20 167 167 167h167q68 0 117 -49.5t49 -117.5v-41q0 -87 -161 -225l-11 -9q-161 -138 -161 -217v-8h333v-83h-500v83q0 87 162 225l11 9q161 138 161 225v41q0 35 -25 59.5t-59 24.5h-83q-77 0 -83 -84z" />
    <glyph glyph-name="three" unicode="3" horiz-adv-x="667" 
d="M83 750h500v-83l-250 -167h84q72 0 119 -55t47 -112v-166q0 -69 -49 -118t-117 -49h-167q-147 0 -167 167h84q6 -84 83 -84h83q35 0 59.5 24.5t24.5 59.5v166q0 20 -21 52t-63 32h-166v83l250 167h-334v83z" />
    <glyph glyph-name="four" unicode="4" horiz-adv-x="667" 
d="M333 333v313l-250 -313h250zM333 0v250h-333v83l333 417h167v-417h83v-83h-83v-250h-167z" />
    <glyph glyph-name="five" unicode="5" horiz-adv-x="667" 
d="M83 750h500v-83h-333v-167h167q68 0 117 -49t49 -118v-166q0 -69 -49 -118t-117 -49h-167q-147 0 -167 167h84q6 -84 83 -84h83q35 0 59.5 24.5t24.5 59.5v166q0 35 -24.5 59.5t-59.5 24.5h-250v333z" />
    <glyph glyph-name="six" unicode="6" horiz-adv-x="667" 
d="M417 167v166q0 35 -24.5 59.5t-59.5 24.5q-34 0 -58.5 -24.5t-24.5 -59.5v-166q0 -34 24.5 -59t58.5 -25q35 0 59.5 25t24.5 59zM250 417q5 41 26 62t57 21h84q68 0 117 -49t49 -118v-166q0 -68 -49 -117.5t-117 -49.5h-167q-68 0 -117.5 49.5t-49.5 117.5v291
q0 120 86.5 206t205.5 86h125v-83h-83q-69 0 -118 -49.5t-49 -117.5v-83z" />
    <glyph glyph-name="seven" unicode="7" horiz-adv-x="667" 
d="M83 750h500v-167l-41 -83l-42 -83q-83 -176 -83 -250v-167h-167v167q0 83 83 250l84 166v84h-334v83z" />
    <glyph glyph-name="eight" unicode="8" horiz-adv-x="667" 
d="M417 375q83 0 124.5 -54t41.5 -113v-41q0 -56 -48 -111.5t-118 -55.5h-167q-70 0 -118.5 55.5t-48.5 111.5v41q0 59 42 113t125 54q-83 10 -125 51.5t-42 115.5v41q0 68 49.5 117.5t117.5 49.5h167q68 0 117 -49.5t49 -117.5v-41q0 -74 -41.5 -115.5t-124.5 -51.5z
M417 500v83q0 35 -24.5 59.5t-59.5 24.5q-34 0 -58.5 -24.5t-24.5 -59.5v-83q0 -34 24.5 -58.5t58.5 -24.5q35 0 59.5 24.5t24.5 58.5zM417 167v83q0 83 -84 83q-83 0 -83 -83v-83q0 -35 24.5 -59.5t58.5 -24.5q35 0 59.5 24.5t24.5 59.5z" />
    <glyph glyph-name="nine" unicode="9" horiz-adv-x="667" 
d="M250 583v-166q0 -34 24.5 -59t58.5 -25q35 0 59.5 25t24.5 59v166q0 35 -24.5 59.5t-59.5 24.5q-34 0 -58.5 -25t-24.5 -59zM417 333q-10 -83 -84 -83h-83q-68 0 -117.5 49t-49.5 118v166q0 68 49.5 117.5t117.5 49.5h167q68 0 117 -49.5t49 -117.5v-291
q0 -120 -85.5 -206t-205.5 -86h-125v83h83q69 0 118 49.5t49 117.5v83z" />
    <glyph glyph-name="colon" unicode=":" horiz-adv-x="333" 
d="M83 0v167h167v-167h-167zM83 417v166h167v-166h-167z" />
    <glyph glyph-name="semicolon" unicode=";" horiz-adv-x="333" 
d="M83 167h167v-167q0 -148 -167 -167v84q81 2 84 83h-84v167zM83 417v166h167v-166h-167z" />
    <glyph glyph-name="less" unicode="&#x3c;" horiz-adv-x="500" 
d="M17 375l333 292h125l-333 -292l333 -292h-125z" />
    <glyph glyph-name="equal" unicode="=" horiz-adv-x="667" 
d="M83 167v83h500v-83h-500zM83 333v84h500v-84h-500z" />
    <glyph glyph-name="greater" unicode="&#x3e;" horiz-adv-x="500" 
d="M483 375l-333 -292h-125l333 292l-333 292h125z" />
    <glyph glyph-name="question" unicode="?" horiz-adv-x="667" 
d="M250 0v167h167v-167h-167zM250 250v83q0 104 108 169l14 8q45 27 45 73q0 34 -24.5 59t-59.5 25h-83q-77 0 -83 -84h-84q20 167 167 167h167q68 0 117 -49t49 -118q0 -108 -95 -150l-13 -6q-45 -20 -51.5 -39t-6.5 -55v-83h-167z" />
    <glyph glyph-name="at" unicode="@" horiz-adv-x="917" 
d="M500 500h-83q-34 0 -59 -24.5t-25 -58.5v-84q0 -34 24.5 -58.5t59.5 -24.5q34 0 58.5 24.5t24.5 58.5v167zM667 0h-292q-119 0 -205.5 86t-86.5 206v166q0 120 86.5 206t205.5 86h167q119 0 205 -86t86 -206v-208q0 -34 -24 -58.5t-59 -24.5h-167q-73 0 -83 83
q-4 -42 -28 -62.5t-70 -20.5q-53 0 -102.5 48.5t-49.5 117.5v84q0 68 49.5 117t117.5 49h166v-291q0 -42 42 -42h83q42 0 42 42v166q0 84 -61 146.5t-147 62.5h-167q-84 0 -146 -61t-62 -148v-166q0 -84 61 -146.5t147 -62.5h292v-83z" />
    <glyph glyph-name="A" unicode="A" horiz-adv-x="667" 
d="M83 0v583q0 69 49.5 118t117.5 49h167q68 0 117 -49.5t49 -117.5v-583h-166v333h-167v-333h-167zM250 417h167v166q0 35 -24.5 59.5t-59.5 24.5q-34 0 -58.5 -24.5t-24.5 -59.5v-166z" />
    <glyph glyph-name="B" unicode="B" horiz-adv-x="667" 
d="M83 0v750h334q68 0 117 -49.5t49 -117.5v-41q0 -74 -41.5 -115.5t-124.5 -51.5q83 0 124.5 -50.5t41.5 -116.5v-41q0 -68 -49 -117.5t-117 -49.5h-334zM250 417h83q35 0 59.5 24.5t24.5 58.5v83q0 35 -24.5 59.5t-59.5 24.5h-83v-250zM250 83h83q35 0 59.5 25t24.5 59v83
q0 83 -84 83h-83v-250z" />
    <glyph glyph-name="C" unicode="C" horiz-adv-x="667" 
d="M583 167q-10 -167 -166 -167h-167q-68 0 -117.5 49t-49.5 118v416q0 68 48.5 117.5t118.5 49.5h167q157 0 166 -167h-83q-10 84 -83 84h-84q-34 0 -58.5 -24.5t-24.5 -59.5v-416q0 -34 24.5 -59t58.5 -25h84q74 0 83 84h83z" />
    <glyph glyph-name="D" unicode="D" horiz-adv-x="667" 
d="M83 0v750h334q68 0 117 -49.5t49 -117.5v-416q0 -68 -49 -117.5t-117 -49.5h-334zM250 83h83q35 0 59.5 25t24.5 59v416q0 35 -24.5 59.5t-59.5 24.5h-83v-584z" />
    <glyph glyph-name="E" unicode="E" horiz-adv-x="583" 
d="M83 0v750h417v-83h-250v-250h167v-84h-167v-250h250v-83h-417z" />
    <glyph glyph-name="F" unicode="F" horiz-adv-x="583" 
d="M83 0v750h417v-83h-250v-250h167v-84h-167v-333h-167z" />
    <glyph glyph-name="G" unicode="G" horiz-adv-x="667" 
d="M333 417h250v-250q0 -84 -53 -125.5t-113 -41.5h-167q-68 0 -117.5 49t-49.5 118v416q0 68 48.5 117.5t118.5 49.5h167q157 0 166 -167h-83q-10 84 -83 84h-84q-34 0 -58.5 -24.5t-24.5 -59.5v-416q0 -35 24.5 -59.5t58.5 -24.5q80 4 84 84v166h-84v84z" />
    <glyph glyph-name="H" unicode="H" horiz-adv-x="667" 
d="M83 0v750h167v-333h167v333h166v-750h-166v333h-167v-333h-167z" />
    <glyph glyph-name="I" unicode="I" horiz-adv-x="500" 
d="M167 0v750h166v-750h-166z" />
    <glyph glyph-name="J" unicode="J" horiz-adv-x="583" 
d="M500 750v-583q0 -84 -41.5 -125.5t-125.5 -41.5h-166q-84 0 -125.5 41.5t-41.5 125.5v166h167v-166q0 -35 24.5 -59.5t58.5 -24.5t58.5 24.5t24.5 59.5v583h167z" />
    <glyph glyph-name="K" unicode="K" horiz-adv-x="750" 
d="M83 0v750h167v-306l270 306h147l-334 -375l334 -375h-167l-250 292v-292h-167z" />
    <glyph glyph-name="L" unicode="L" horiz-adv-x="583" 
d="M83 0v750h167v-667h250v-83h-417z" />
    <glyph glyph-name="M" unicode="M" horiz-adv-x="1000" 
d="M83 0v750h39l356 -355l355 355h84v-750h-167v458l-292 -292l-291 292v-458h-84z" />
    <glyph glyph-name="N" unicode="N" horiz-adv-x="750" 
d="M83 0v750h39l461 -417v417h84v-750h-38l-462 417v-417h-84z" />
    <glyph glyph-name="O" unicode="O" horiz-adv-x="667" 
d="M250 750h167q68 0 117 -49.5t49 -117.5v-416q0 -68 -49 -117.5t-117 -49.5h-167q-68 0 -117.5 49t-49.5 118v416q0 69 49.5 118t117.5 49zM250 583v-416q0 -34 24.5 -59t58.5 -25q35 0 59.5 25t24.5 59v416q0 35 -24.5 59.5t-59.5 24.5q-34 0 -58.5 -24.5t-24.5 -59.5z
" />
    <glyph glyph-name="P" unicode="P" horiz-adv-x="667" 
d="M83 0v750h334q68 0 117 -49.5t49 -117.5v-83q0 -68 -49 -117.5t-117 -49.5h-167v-333h-167zM250 417h83q35 0 59.5 24.5t24.5 58.5v83q0 35 -24.5 59.5t-59.5 24.5h-83v-250z" />
    <glyph glyph-name="Q" unicode="Q" horiz-adv-x="667" 
d="M375 0h-125q-68 0 -117.5 49t-49.5 118v416q0 69 49.5 118t117.5 49h167q68 0 117 -49.5t49 -117.5v-416q0 -148 -166 -167h166v-83h-125q-73 0 -83 83zM250 583v-416q0 -34 24.5 -59t58.5 -25q35 0 59.5 25t24.5 59v416q0 35 -24.5 59.5t-59.5 24.5q-34 0 -58.5 -24.5
t-24.5 -59.5z" />
    <glyph glyph-name="R" unicode="R" horiz-adv-x="667" 
d="M83 0v750h334q68 0 117 -49.5t49 -117.5v-45q0 -56 -38 -107.5t-128 -51.5h83q34 0 58.5 -24.5t24.5 -59.5v-295h-166v250q0 34 -24.5 58.5t-59.5 24.5h-83v-333h-167zM250 417h83q35 0 59.5 24.5t24.5 58.5v83q0 35 -24.5 59.5t-59.5 24.5h-83v-250z" />
    <glyph glyph-name="S" unicode="S" horiz-adv-x="583" 
d="M500 583h-83q-11 84 -79 84q-44 0 -66 -21t-22 -63q0 -31 24 -59l177 -198q49 -55 49 -118v-41q0 -68 -49 -117.5t-118 -49.5h-83q-83 0 -125 41.5t-42 125.5h84v-14q0 -34 26 -52t57 -18q44 0 63.5 21.5t19.5 62.5q0 32 -24 59l-177 198q-49 54 -49 118v41
q0 68 49 117.5t118 49.5h83q157 0 167 -167z" />
    <glyph glyph-name="T" unicode="T" horiz-adv-x="500" 
d="M167 0v667h-167v83h500v-83h-167v-667h-166z" />
    <glyph glyph-name="U" unicode="U" horiz-adv-x="667" 
d="M417 750h166v-583q0 -68 -49 -117.5t-117 -49.5h-167q-68 0 -117.5 49t-49.5 118v583h167v-583q0 -34 24.5 -59t58.5 -25q35 0 59.5 25t24.5 59v583z" />
    <glyph glyph-name="V" unicode="V" horiz-adv-x="667" 
d="M417 750h166v-465q0 -117 -83.5 -201t-200.5 -84h-216v750h167v-667h83q35 0 59.5 25t24.5 59v583z" />
    <glyph glyph-name="W" unicode="W" horiz-adv-x="1000" 
d="M83 750h167v-667h83q35 0 59.5 25t24.5 59v583h166v-667h84q34 0 58.5 25t24.5 59v583h167v-465q0 -117 -83.5 -201t-201.5 -84h-215v26q-48 -26 -118 -26h-216v750z" />
    <glyph glyph-name="X" unicode="X" horiz-adv-x="667" 
d="M83 0v208q0 147 167 167q-167 20 -167 167v208h167v-250q0 -34 24.5 -58.5t58.5 -24.5q35 0 59.5 24.5t24.5 58.5v250h166v-208q0 -147 -166 -167q166 -21 166 -167v-208h-166v250q0 34 -24.5 58.5t-59.5 24.5q-34 0 -58.5 -24.5t-24.5 -58.5v-250h-167z" />
    <glyph glyph-name="Y" unicode="Y" horiz-adv-x="667" 
d="M250 0v333q-167 20 -167 167v250h167v-250q0 -34 24.5 -58.5t58.5 -24.5q35 0 59.5 24.5t24.5 58.5v250h166v-250q0 -147 -166 -167v-333h-167z" />
    <glyph glyph-name="Z" unicode="Z" horiz-adv-x="667" 
d="M83 750h500v-83l-333 -584h333v-83h-500v83l334 584h-334v83z" />
    <glyph glyph-name="bracketleft" unicode="[" horiz-adv-x="417" 
d="M83 833h250v-83h-83v-750h83v-83h-250v916z" />
    <glyph glyph-name="backslash" unicode="\" horiz-adv-x="583" 
d="M500 0h-83l-334 833h84z" />
    <glyph glyph-name="bracketright" unicode="]" horiz-adv-x="417" 
d="M333 -83h-250v83h84v750h-84v83h250v-916z" />
    <glyph glyph-name="asciicircum" unicode="^" horiz-adv-x="667" 
d="M333 750l250 -250h-83l-167 167l-166 -167h-84z" />
    <glyph glyph-name="underscore" unicode="_" horiz-adv-x="667" 
d="M0 -83v83h667v-83h-667z" />
    <glyph glyph-name="grave" unicode="`" horiz-adv-x="500" 
d="M250 667l-83 166h83l83 -166h-83z" />
    <glyph glyph-name="a" unicode="a" horiz-adv-x="667" 
d="M417 333v84q0 34 -24.5 58.5t-59.5 24.5h-83q-74 0 -83 -83h-84q20 166 167 166h167q68 0 117 -49t49 -117v-417h-166v83q-10 -83 -84 -83h-83q-68 0 -117.5 49t-49.5 118v0q0 68 49.5 117t117.5 49h167zM417 250h-84q-34 0 -58.5 -24.5t-24.5 -58.5v0q0 -34 24.5 -59
t58.5 -25q35 0 59.5 25t24.5 59v83z" />
    <glyph glyph-name="b" unicode="b" horiz-adv-x="667" 
d="M83 0v750h167v-250q5 42 26 62.5t57 20.5h84q68 0 117 -49t49 -117v-250q0 -68 -49 -117.5t-117 -49.5h-334zM250 83h83q35 0 59.5 25t24.5 59v250q0 34 -24.5 58.5t-59.5 24.5q-34 0 -58.5 -24.5t-24.5 -58.5v-334z" />
    <glyph glyph-name="c" unicode="c" horiz-adv-x="583" 
d="M500 417h-83q-10 83 -84 83q-34 0 -58.5 -24.5t-24.5 -58.5v-250q0 -34 24.5 -59t58.5 -25q74 0 84 84h83q-10 -167 -167 -167h-83q-68 0 -117.5 49t-49.5 118v250q0 68 49.5 117t117.5 49h83q158 0 167 -166z" />
    <glyph glyph-name="d" unicode="d" horiz-adv-x="667" 
d="M583 0h-166v83q-10 -83 -84 -83h-83q-68 0 -117.5 49t-49.5 118v250q0 68 49.5 117t117.5 49h167v167h166v-750zM417 500h-84q-34 0 -58.5 -24.5t-24.5 -58.5v-250q0 -34 24.5 -59t58.5 -25q35 0 59.5 25t24.5 59v333z" />
    <glyph glyph-name="e" unicode="e" horiz-adv-x="667" 
d="M583 250h-333v-83q0 -34 24.5 -59t58.5 -25h84q83 0 83 84h83q-19 -167 -166 -167h-167q-68 0 -117.5 49t-49.5 118v250q0 68 49.5 117t117.5 49h167q68 0 117 -49t49 -117v-167zM250 333h167v84q0 34 -24.5 58.5t-59.5 24.5q-34 0 -58.5 -24.5t-24.5 -58.5v-84z" />
    <glyph glyph-name="f" unicode="f" horiz-adv-x="500" 
d="M167 0v500h-84v83h84v8q0 65 47 112t112 47h174v-83h-91q-31 0 -53.5 -22.5t-22.5 -53.5v-8h84v-83h-84v-500h-166z" />
    <glyph glyph-name="g" unicode="g" horiz-adv-x="667" 
d="M583 583v-666q0 -68 -49 -117.5t-117 -49.5h-167q-147 0 -167 167h84q6 -84 83 -84h83q35 0 59.5 24.5t24.5 59.5v166q-10 -83 -84 -83h-83q-68 0 -117.5 49t-49.5 118v250q0 68 49.5 117t117.5 49h333zM417 500h-84q-34 0 -58.5 -24.5t-24.5 -58.5v-250q0 -34 24.5 -59
t58.5 -25q35 0 59.5 25t24.5 59v333z" />
    <glyph glyph-name="h" unicode="h" horiz-adv-x="667" 
d="M83 0v750h167v-250q5 42 26 62.5t57 20.5h84q68 0 117 -49t49 -117v-417h-166v417q0 34 -24.5 58.5t-59.5 24.5q-34 0 -58.5 -24.5t-24.5 -58.5v-417h-167z" />
    <glyph glyph-name="i" unicode="i" horiz-adv-x="333" 
d="M83 667v83h167v-83h-167zM83 0v583h167v-583h-167z" />
    <glyph glyph-name="j" unicode="j" horiz-adv-x="500" 
d="M250 667v83h167v-83h-167zM250 583h167v-583q0 -68 -49.5 -117.5t-117.5 -49.5h-83q-148 0 -167 167h83q8 -83 84 -83q34 0 58.5 24.5t24.5 58.5v583z" />
    <glyph glyph-name="k" unicode="k" horiz-adv-x="667" 
d="M83 0v750h167v-375l250 208h167l-349 -291l349 -292h-167l-250 208v-208h-167z" />
    <glyph glyph-name="l" unicode="l" horiz-adv-x="333" 
d="M83 0v750h167v-750h-167z" />
    <glyph glyph-name="m" unicode="m" horiz-adv-x="1000" 
d="M583 0h-166v417q0 34 -24.5 58.5t-59.5 24.5q-34 0 -58.5 -24.5t-24.5 -58.5v-417h-167v583h167v-83q5 42 26 62.5t57 20.5h84q85 0 125 -59q20 30 51 44.5t74 14.5h83q68 0 117.5 -49t49.5 -117v-417h-167v417q0 33 -24.5 58t-58.5 25t-59 -24.5t-25 -58.5v-417z" />
    <glyph glyph-name="n" unicode="n" horiz-adv-x="667" 
d="M83 0v583h167v-83q5 42 26 62.5t57 20.5h84q68 0 117 -49t49 -117v-417h-166v417q0 34 -24.5 58.5t-59.5 24.5q-34 0 -58.5 -24.5t-24.5 -58.5v-417h-167z" />
    <glyph glyph-name="o" unicode="o" horiz-adv-x="667" 
d="M250 583h167q68 0 117 -49t49 -117v-250q0 -68 -49 -117.5t-117 -49.5h-167q-68 0 -117.5 49t-49.5 118v250q0 68 49.5 117t117.5 49zM250 417v-250q0 -34 24.5 -59t58.5 -25q35 0 59.5 25t24.5 59v250q0 34 -24.5 58.5t-59.5 24.5q-34 0 -58.5 -24.5t-24.5 -58.5z" />
    <glyph glyph-name="p" unicode="p" horiz-adv-x="667" 
d="M83 583h167v-83q0 42 21 62.5t62 20.5h84q68 0 117 -49t49 -117v-250q0 -69 -49 -118t-117 -49h-167v-167h-167v750zM250 83h83q35 0 59.5 24.5t24.5 59.5v250q0 34 -24.5 58.5t-59.5 24.5q-34 0 -58.5 -24.5t-24.5 -58.5v-334z" />
    <glyph glyph-name="q" unicode="q" horiz-adv-x="667" 
d="M583 583v-750h-166v250q-10 -83 -84 -83h-83q-68 0 -117.5 49.5t-49.5 117.5v250q0 68 49 117t118 49h333zM417 500h-84q-34 0 -58.5 -24.5t-24.5 -58.5v-250q0 -34 24.5 -59t58.5 -25q35 0 59.5 25t24.5 59v333z" />
    <glyph glyph-name="r" unicode="r" horiz-adv-x="500" 
d="M250 0h-167v583h167v-166q10 83 51.5 124.5t115.5 41.5h83v-166h-167q-34 0 -58.5 -24.5t-24.5 -59.5v-333z" />
    <glyph glyph-name="s" unicode="s" horiz-adv-x="583" 
d="M500 417h-83q-11 83 -79 83q-44 0 -66 -17.5t-22 -51.5q0 -36 121 -101q99 -53 114 -88t15 -75q0 -69 -49 -118t-118 -49h-83q-167 0 -167 167h84q10 -84 78 -84q45 0 67 17.5t22 52.5t-121 100q-99 53 -114.5 88t-15.5 75q0 69 49.5 118t117.5 49h83q157 0 167 -166z
" />
    <glyph glyph-name="t" unicode="t" horiz-adv-x="500" 
d="M167 750h166v-167h84v-83h-84v-333q0 -41 27 -62.5t49 -21.5h8v-83h-84q-68 0 -117 49t-49 118v333h-84v83h84v167z" />
    <glyph glyph-name="u" unicode="u" horiz-adv-x="667" 
d="M583 583v-583h-166v83q-10 -83 -84 -83h-83q-68 0 -117.5 49t-49.5 118v416h167v-416q0 -34 24.5 -59t58.5 -25q35 0 59.5 25t24.5 59v416h166z" />
    <glyph glyph-name="v" unicode="v" horiz-adv-x="667" 
d="M417 583h166v-298q0 -117 -83.5 -201t-200.5 -84h-216v583h167v-500h83q35 0 59.5 25t24.5 59v416z" />
    <glyph glyph-name="w" unicode="w" horiz-adv-x="1000" 
d="M83 583h167v-500h83q35 0 59.5 25t24.5 59v416h166v-500h84q34 0 58.5 25t24.5 59v416h167v-298q0 -117 -83.5 -201t-201.5 -84h-215v26q-48 -26 -118 -26h-216v583z" />
    <glyph glyph-name="x" unicode="x" horiz-adv-x="667" 
d="M83 0v125q0 74 42 115.5t125 51.5q-83 9 -125 51t-42 115v125h167v-166q0 -35 24.5 -59.5t58.5 -24.5q35 0 59.5 24.5t24.5 59.5v166h166v-125q0 -73 -41.5 -115t-124.5 -51q83 -10 124.5 -52t41.5 -115v-125h-166v167q0 34 -24.5 58.5t-59.5 24.5q-34 0 -58.5 -24.5
t-24.5 -58.5v-167h-167z" />
    <glyph glyph-name="y" unicode="y" horiz-adv-x="667" 
d="M167 -83q6 -84 83 -84h83q35 0 59.5 24.5t24.5 59.5v166q-10 -83 -84 -83h-83q-68 0 -117.5 49t-49.5 118v416h167v-416q0 -34 24.5 -59t58.5 -25q35 0 59.5 25t24.5 59v416h166v-666q0 -68 -49 -117.5t-117 -49.5h-167q-147 0 -167 167h84z" />
    <glyph glyph-name="z" unicode="z" horiz-adv-x="667" 
d="M83 583h500v-83l-333 -417h333v-83h-500v83l334 417h-334v83z" />
    <glyph glyph-name="braceleft" unicode="{" horiz-adv-x="417" 
d="M83 333v84h8q76 0 76 83v167q0 146 166 166v-83q-83 -7 -83 -83v-167q0 -73 -57 -125q57 -53 57 -125v-167q0 -77 83 -83v-83q-166 19 -166 166v167q0 83 -76 83h-8z" />
    <glyph glyph-name="bar" unicode="|" horiz-adv-x="417" 
d="M167 833h83v-916h-83v916z" />
    <glyph glyph-name="braceright" unicode="}" horiz-adv-x="417" 
d="M333 417v-84h-7q-76 0 -76 -83v-167q0 -147 -167 -166v83q84 7 84 83v167q0 72 56 125q-56 53 -56 125v167q0 77 -84 83v83q167 -19 167 -166v-167q0 -83 76 -83h7z" />
    <glyph glyph-name="asciitilde" unicode="~" horiz-adv-x="667" 
d="M167 417h-84q20 166 167 166q48 0 104 -48l11 -11q28 -24 52 -24q73 0 83 83h83q-19 -166 -166 -166q-48 0 -104 48l-11 11q-28 24 -52 24q-73 0 -83 -83z" />
    <glyph glyph-name="Adieresis" unicode="&#xc4;" horiz-adv-x="667" 
d="M83 0v583q0 69 49.5 118t117.5 49h167q68 0 117 -49.5t49 -117.5v-583h-166v333h-167v-333h-167zM250 417h167v166q0 35 -24.5 59.5t-59.5 24.5q-34 0 -58.5 -24.5t-24.5 -59.5v-166zM167 833v103h98v-103h-98zM402 833v103h98v-103h-98z" />
    <glyph glyph-name="Aring" unicode="&#xc5;" horiz-adv-x="667" 
d="M250 417h167v166q0 35 -24.5 59.5t-59.5 24.5q-34 0 -58.5 -24.5t-24.5 -59.5v-166zM83 0v583q0 117 112 158q-14 25 -21 48t-7 43q0 70 49.5 119t116.5 49q68 0 117.5 -49t49.5 -118q0 -22 -7 -45t-21 -47q111 -41 111 -158v-583h-166v333h-167v-333h-167zM333 750
q35 0 59.5 24.5t24.5 58.5q0 35 -24.5 59.5t-59.5 24.5q-34 0 -58.5 -24.5t-24.5 -59.5q0 -34 24.5 -58.5t58.5 -24.5z" />
    <glyph glyph-name="Ccedilla" unicode="&#xc7;" horiz-adv-x="667" 
d="M286 -241l31 77q12 -3 18 -3q20 0 30 10.5t10 31.5t-10.5 31.5t-31.5 10.5h-41v83h-42q-68 0 -117.5 49t-49.5 118v416q0 68 48.5 117.5t118.5 49.5h167q157 0 166 -167h-83q-10 84 -83 84h-84q-34 0 -58.5 -24.5t-24.5 -59.5v-416q0 -34 24.5 -59t58.5 -25h84
q74 0 83 84h83q-10 -167 -166 -167h-84q52 0 88.5 -37t36.5 -88t-34 -88t-86 -37q-18 0 -52 9z" />
    <glyph glyph-name="Eacute" unicode="&#xc9;" horiz-adv-x="583" 
d="M83 0v750h417v-83h-250v-250h167v-84h-167v-250h250v-83h-417zM250 833l83 167h84l-84 -167h-83z" />
    <glyph glyph-name="Ntilde" unicode="&#xd1;" horiz-adv-x="750" 
d="M83 0v750h39l461 -417v417h84v-750h-38l-462 417v-417h-84zM208 833h-83q20 167 167 167q48 0 103 -49l12 -10q28 -24 51 -24q74 0 84 83h83q-20 -167 -167 -167q-48 0 -104 49l-11 10q-28 25 -51 25q-74 0 -84 -84z" />
    <glyph glyph-name="Odieresis" unicode="&#xd6;" horiz-adv-x="667" 
d="M250 750h167q68 0 117 -49.5t49 -117.5v-416q0 -68 -49 -117.5t-117 -49.5h-167q-68 0 -117.5 49t-49.5 118v416q0 69 49.5 118t117.5 49zM250 583v-416q0 -34 24.5 -59t58.5 -25q35 0 59.5 25t24.5 59v416q0 35 -24.5 59.5t-59.5 24.5q-34 0 -58.5 -24.5t-24.5 -59.5z
M167 833v103h98v-103h-98zM402 833v103h98v-103h-98z" />
    <glyph glyph-name="Udieresis" unicode="&#xdc;" horiz-adv-x="667" 
d="M417 750h166v-583q0 -68 -49 -117.5t-117 -49.5h-167q-68 0 -117.5 49t-49.5 118v583h167v-583q0 -34 24.5 -59t58.5 -25q35 0 59.5 25t24.5 59v583zM167 833v103h98v-103h-98zM402 833v103h98v-103h-98z" />
    <glyph glyph-name="aacute" unicode="&#xe1;" horiz-adv-x="667" 
d="M417 333v84q0 34 -24.5 58.5t-59.5 24.5h-83q-74 0 -83 -83h-84q20 166 167 166h167q68 0 117 -49t49 -117v-417h-166v83q-10 -83 -84 -83h-83q-68 0 -117.5 49t-49.5 118v0q0 68 49.5 117t117.5 49h167zM417 250h-84q-34 0 -58.5 -24.5t-24.5 -58.5v0q0 -34 24.5 -59
t58.5 -25q35 0 59.5 25t24.5 59v83zM250 667l83 166h84l-84 -166h-83z" />
    <glyph glyph-name="agrave" unicode="&#xe0;" horiz-adv-x="667" 
d="M417 333v84q0 34 -24.5 58.5t-59.5 24.5h-83q-74 0 -83 -83h-84q20 166 167 166h167q68 0 117 -49t49 -117v-417h-166v83q-10 -83 -84 -83h-83q-68 0 -117.5 49t-49.5 118v0q0 68 49.5 117t117.5 49h167zM417 250h-84q-34 0 -58.5 -24.5t-24.5 -58.5v0q0 -34 24.5 -59
t58.5 -25q35 0 59.5 25t24.5 59v83zM333 667l-83 166h83l84 -166h-84z" />
    <glyph glyph-name="acircumflex" unicode="&#xe2;" horiz-adv-x="667" 
d="M417 333v84q0 34 -24.5 58.5t-59.5 24.5h-83q-74 0 -83 -83h-84q20 166 167 166h167q68 0 117 -49t49 -117v-417h-166v83q-10 -83 -84 -83h-83q-68 0 -117.5 49t-49.5 118v0q0 68 49.5 117t117.5 49h167zM417 250h-84q-34 0 -58.5 -24.5t-24.5 -58.5v0q0 -34 24.5 -59
t58.5 -25q35 0 59.5 25t24.5 59v83zM167 667l125 166h83l125 -166h-83l-84 83l-83 -83h-83z" />
    <glyph glyph-name="adieresis" unicode="&#xe4;" horiz-adv-x="667" 
d="M417 333v84q0 34 -24.5 58.5t-59.5 24.5h-83q-74 0 -83 -83h-84q20 166 167 166h167q68 0 117 -49t49 -117v-417h-166v83q-10 -83 -84 -83h-83q-68 0 -117.5 49t-49.5 118v0q0 68 49.5 117t117.5 49h167zM417 250h-84q-34 0 -58.5 -24.5t-24.5 -58.5v0q0 -34 24.5 -59
t58.5 -25q35 0 59.5 25t24.5 59v83zM167 667v103h98v-103h-98zM402 667v103h98v-103h-98z" />
    <glyph glyph-name="atilde" unicode="&#xe3;" horiz-adv-x="667" 
d="M417 333v84q0 34 -24.5 58.5t-59.5 24.5h-83q-74 0 -83 -83h-84q20 166 167 166h167q68 0 117 -49t49 -117v-417h-166v83q-10 -83 -84 -83h-83q-68 0 -117.5 49t-49.5 118v0q0 68 49.5 117t117.5 49h167zM417 250h-84q-34 0 -58.5 -24.5t-24.5 -58.5v0q0 -34 24.5 -59
t58.5 -25q35 0 59.5 25t24.5 59v83zM167 667h-84q20 166 167 166q48 0 104 -48l11 -11q28 -24 52 -24q73 0 83 83h83q-19 -166 -166 -166q-48 0 -104 48l-11 11q-28 24 -52 24q-73 0 -83 -83z" />
    <glyph glyph-name="aring" unicode="&#xe5;" horiz-adv-x="667" 
d="M417 333v84q0 34 -24.5 58.5t-59.5 24.5h-83q-74 0 -83 -83h-84q20 166 167 166h167q68 0 117 -49t49 -117v-417h-166v83q-10 -83 -84 -83h-83q-68 0 -117.5 49t-49.5 118v0q0 68 49.5 117t117.5 49h167zM417 250h-84q-34 0 -58.5 -24.5t-24.5 -58.5v0q0 -34 24.5 -59
t58.5 -25q35 0 59.5 25t24.5 59v83zM167 833q0 69 49 118t117 49q69 0 118 -49t49 -118q0 -67 -49 -116.5t-118 -49.5q-68 0 -117 49.5t-49 116.5zM250 833q0 -34 24.5 -58.5t58.5 -24.5q35 0 59.5 24.5t24.5 58.5q0 35 -24.5 59.5t-59.5 24.5q-34 0 -58.5 -24.5
t-24.5 -59.5z" />
    <glyph glyph-name="ccedilla" unicode="&#xe7;" horiz-adv-x="583" 
d="M250 0q-167 19 -167 167v250q0 68 49.5 117t117.5 49h83q158 0 167 -166h-83q-10 83 -84 83q-34 0 -58.5 -24.5t-24.5 -58.5v-250q0 -34 24.5 -59t58.5 -25q74 0 84 84h83q-10 -167 -167 -167h-41q52 0 88.5 -37.5t36.5 -87.5q0 -51 -34.5 -88t-85.5 -37q-19 0 -53 9
l32 77q11 -3 17 -3q20 0 30 10.5t10 31.5t-10 31.5t-31 10.5h-42v83z" />
    <glyph glyph-name="eacute" unicode="&#xe9;" horiz-adv-x="667" 
d="M583 250h-333v-83q0 -34 24.5 -59t58.5 -25h84q83 0 83 84h83q-19 -167 -166 -167h-167q-68 0 -117.5 49t-49.5 118v250q0 68 49.5 117t117.5 49h167q68 0 117 -49t49 -117v-167zM250 333h167v84q0 34 -24.5 58.5t-59.5 24.5q-34 0 -58.5 -24.5t-24.5 -58.5v-84zM250 667
l83 166h84l-84 -166h-83z" />
    <glyph glyph-name="egrave" unicode="&#xe8;" horiz-adv-x="667" 
d="M583 250h-333v-83q0 -34 24.5 -59t58.5 -25h84q83 0 83 84h83q-19 -167 -166 -167h-167q-68 0 -117.5 49t-49.5 118v250q0 68 49.5 117t117.5 49h167q68 0 117 -49t49 -117v-167zM250 333h167v84q0 34 -24.5 58.5t-59.5 24.5q-34 0 -58.5 -24.5t-24.5 -58.5v-84zM333 667
l-83 166h83l84 -166h-84z" />
    <glyph glyph-name="ecircumflex" unicode="&#xea;" horiz-adv-x="667" 
d="M583 250h-333v-83q0 -34 24.5 -59t58.5 -25h84q83 0 83 84h83q-19 -167 -166 -167h-167q-68 0 -117.5 49t-49.5 118v250q0 68 49.5 117t117.5 49h167q68 0 117 -49t49 -117v-167zM250 333h167v84q0 34 -24.5 58.5t-59.5 24.5q-34 0 -58.5 -24.5t-24.5 -58.5v-84zM167 667
l125 166h83l125 -166h-83l-84 83l-83 -83h-83z" />
    <glyph glyph-name="edieresis" unicode="&#xeb;" horiz-adv-x="667" 
d="M583 250h-333v-83q0 -34 24.5 -59t58.5 -25h84q83 0 83 84h83q-19 -167 -166 -167h-167q-68 0 -117.5 49t-49.5 118v250q0 68 49.5 117t117.5 49h167q68 0 117 -49t49 -117v-167zM250 333h167v84q0 34 -24.5 58.5t-59.5 24.5q-34 0 -58.5 -24.5t-24.5 -58.5v-84zM167 667
v103h98v-103h-98zM402 667v103h98v-103h-98z" />
    <glyph glyph-name="iacute" unicode="&#xed;" horiz-adv-x="333" 
d="M84 0v583h166v-583h-166zM83 667l84 166h83l-83 -166h-84z" />
    <glyph glyph-name="igrave" unicode="&#xec;" horiz-adv-x="333" 
d="M84 0v583h166v-583h-166zM167 667l-84 166h84l83 -166h-83z" />
    <glyph glyph-name="icircumflex" unicode="&#xee;" horiz-adv-x="333" 
d="M83 0v583h167v-583h-167zM0 667l125 166h83l125 -166h-83l-83 83l-84 -83h-83z" />
    <glyph glyph-name="idieresis" unicode="&#xef;" horiz-adv-x="333" 
d="M83 0v583h167v-583h-167zM0 667v103h98v-103h-98zM235 667v103h98v-103h-98z" />
    <glyph glyph-name="ntilde" unicode="&#xf1;" horiz-adv-x="667" 
d="M83 0v583h167v-83q5 42 26 62.5t57 20.5h84q68 0 117 -49t49 -117v-417h-166v417q0 34 -24.5 58.5t-59.5 24.5q-34 0 -58.5 -24.5t-24.5 -58.5v-417h-167zM167 667h-84q20 166 167 166q48 0 104 -48l11 -11q28 -24 52 -24q73 0 83 83h83q-19 -166 -166 -166
q-48 0 -104 48l-11 11q-28 24 -52 24q-73 0 -83 -83z" />
    <glyph glyph-name="oacute" unicode="&#xf3;" horiz-adv-x="667" 
d="M250 583h167q68 0 117 -49t49 -117v-250q0 -68 -49 -117.5t-117 -49.5h-167q-68 0 -117.5 49t-49.5 118v250q0 68 49.5 117t117.5 49zM250 417v-250q0 -34 24.5 -59t58.5 -25q35 0 59.5 25t24.5 59v250q0 34 -24.5 58.5t-59.5 24.5q-34 0 -58.5 -24.5t-24.5 -58.5z
M250 667l83 166h84l-84 -166h-83z" />
    <glyph glyph-name="ograve" unicode="&#xf2;" horiz-adv-x="667" 
d="M250 583h167q68 0 117 -49t49 -117v-250q0 -68 -49 -117.5t-117 -49.5h-167q-68 0 -117.5 49t-49.5 118v250q0 68 49.5 117t117.5 49zM250 417v-250q0 -34 24.5 -59t58.5 -25q35 0 59.5 25t24.5 59v250q0 34 -24.5 58.5t-59.5 24.5q-34 0 -58.5 -24.5t-24.5 -58.5z
M333 667l-83 166h83l84 -166h-84z" />
    <glyph glyph-name="ocircumflex" unicode="&#xf4;" horiz-adv-x="667" 
d="M250 583h167q68 0 117 -49t49 -117v-250q0 -68 -49 -117.5t-117 -49.5h-167q-68 0 -117.5 49t-49.5 118v250q0 68 49.5 117t117.5 49zM250 417v-250q0 -34 24.5 -59t58.5 -25q35 0 59.5 25t24.5 59v250q0 34 -24.5 58.5t-59.5 24.5q-34 0 -58.5 -24.5t-24.5 -58.5z
M167 667l125 166h83l125 -166h-83l-84 83l-83 -83h-83z" />
    <glyph glyph-name="odieresis" unicode="&#xf6;" horiz-adv-x="667" 
d="M250 583h167q68 0 117 -49t49 -117v-250q0 -68 -49 -117.5t-117 -49.5h-167q-68 0 -117.5 49t-49.5 118v250q0 68 49.5 117t117.5 49zM250 417v-250q0 -34 24.5 -59t58.5 -25q35 0 59.5 25t24.5 59v250q0 34 -24.5 58.5t-59.5 24.5q-34 0 -58.5 -24.5t-24.5 -58.5z
M167 667v103h98v-103h-98zM402 667v103h98v-103h-98z" />
    <glyph glyph-name="otilde" unicode="&#xf5;" horiz-adv-x="667" 
d="M250 583h167q68 0 117 -49t49 -117v-250q0 -68 -49 -117.5t-117 -49.5h-167q-68 0 -117.5 49t-49.5 118v250q0 68 49.5 117t117.5 49zM250 417v-250q0 -34 24.5 -59t58.5 -25q35 0 59.5 25t24.5 59v250q0 34 -24.5 58.5t-59.5 24.5q-34 0 -58.5 -24.5t-24.5 -58.5z
M167 667h-84q20 166 167 166q48 0 104 -48l11 -11q28 -24 52 -24q73 0 83 83h83q-19 -166 -166 -166q-48 0 -104 48l-11 11q-28 24 -52 24q-73 0 -83 -83z" />
    <glyph glyph-name="uacute" unicode="&#xfa;" horiz-adv-x="667" 
d="M583 583v-583h-166v83q-10 -83 -84 -83h-83q-68 0 -117.5 49t-49.5 118v416h167v-416q0 -34 24.5 -59t58.5 -25q35 0 59.5 25t24.5 59v416h166zM271 667l83 166h84l-84 -166h-83z" />
    <glyph glyph-name="ugrave" unicode="&#xf9;" horiz-adv-x="667" 
d="M583 583v-583h-166v83q-10 -83 -84 -83h-83q-68 0 -117.5 49t-49.5 118v416h167v-416q0 -34 24.5 -59t58.5 -25q35 0 59.5 25t24.5 59v416h166zM333 667l-83 166h83l84 -166h-84z" />
    <glyph glyph-name="ucircumflex" unicode="&#xfb;" horiz-adv-x="667" 
d="M583 583v-583h-166v83q-10 -83 -84 -83h-83q-68 0 -117.5 49t-49.5 118v416h167v-416q0 -34 24.5 -59t58.5 -25q35 0 59.5 25t24.5 59v416h166zM167 667l125 166h83l125 -166h-83l-84 83l-83 -83h-83z" />
    <glyph glyph-name="udieresis" unicode="&#xfc;" horiz-adv-x="667" 
d="M583 583v-583h-166v83q-10 -83 -84 -83h-83q-68 0 -117.5 49t-49.5 118v416h167v-416q0 -34 24.5 -59t58.5 -25q35 0 59.5 25t24.5 59v416h166zM167 667v103h98v-103h-98zM402 667v103h98v-103h-98z" />
    <glyph glyph-name="dagger" unicode="&#x2020;" horiz-adv-x="417" 
d="M83 667h84v83h83v-83h83v-84h-83v-250h-83v250h-84v84z" />
    <glyph glyph-name="degree" unicode="&#xb0;" horiz-adv-x="500" 
d="M83 583q0 69 49.5 118t117.5 49t117.5 -49t49.5 -118q0 -67 -49 -116.5t-118 -49.5t-118 49.5t-49 116.5zM167 583q0 -34 24.5 -58.5t58.5 -24.5q35 0 59 24.5t24 58.5q0 35 -24.5 59.5t-58.5 24.5t-58.5 -24.5t-24.5 -59.5z" />
    <glyph glyph-name="cent" unicode="&#xa2;" horiz-adv-x="583" 
d="M250 667q-83 -10 -83 -84v-166q0 -74 83 -84v334zM417 417h83q-9 -151 -167 -167v-83h-83v83q-167 19 -167 167v166q0 147 167 167v83h83v-83q158 -10 167 -167h-83q-9 75 -84 84v-334q75 9 84 84z" />
    <glyph glyph-name="sterling" unicode="&#xa3;" horiz-adv-x="750" 
d="M583 167h84q-19 -167 -167 -167h-417v83h84v250h-84v84h84v166q0 68 49.5 117.5t116.5 49.5h84q147 0 166 -167h-83q-6 84 -79 84q-44 0 -66 -21t-22 -63v-166h84v-84h-84v-250h167q78 0 83 84z" />
    <glyph glyph-name="section" unicode="&#xa7;" horiz-adv-x="583" 
d="M500 583h-83q-11 84 -84 84h-83q-35 0 -59 -25t-24 -59q0 -36 24 -59l260 -239q49 -45 49 -118q0 -76 -57 -125l9 -7q48 -44 48 -118q0 -68 -48.5 -117.5t-118.5 -49.5h-83q-156 0 -167 167h84q10 -84 83 -84h83q35 0 59.5 25t24.5 59q0 36 -24 59l-261 239
q-49 45 -49 118q0 77 57 125l-8 7q-49 46 -49 118q0 68 49 117.5t118 49.5h83q157 0 167 -167zM382 99q35 31 35 68t-24 59l-191 175q-35 -30 -35 -68q0 -37 24 -59z" />
    <glyph glyph-name="bullet" unicode="&#x2022;" horiz-adv-x="583" 
d="M83 375q0 86 62 147t147 61t146.5 -61.5t61.5 -146.5q0 -84 -61 -146t-147 -62t-147.5 61.5t-61.5 146.5z" />
    <glyph glyph-name="paragraph" unicode="&#xb6;" horiz-adv-x="750" 
d="M417 667h-167v-250h167v250zM667 0h-84v667h-83v-667h-83v333h-167q-86 0 -147 62t-61 147t61.5 146.5t146.5 61.5h417v-750z" />
    <glyph glyph-name="germandbls" unicode="&#xdf;" horiz-adv-x="667" 
d="M83 0v583q0 68 49.5 117.5t117.5 49.5h167q68 0 117 -49.5t49 -117.5q0 -73 -41.5 -115t-124.5 -51q83 0 124.5 -54t41.5 -113v-83q0 -56 -48 -111.5t-118 -55.5h-84v83h8q10 0 34 10.5t33 29t9 44.5v125q0 42 -27 62.5t-49 20.5h-8v83h8q20 0 48 21.5t28 62.5v41
q0 35 -24.5 59.5t-59.5 24.5q-34 0 -58.5 -24.5t-24.5 -59.5v-583h-167z" />
    <glyph glyph-name="registered" unicode="&#xae;" horiz-adv-x="833" 
d="M333 750h167q103 0 176.5 -73.5t73.5 -176.5v-250q0 -102 -73.5 -176t-176.5 -74h-167q-102 0 -176 73.5t-74 176.5v250q0 103 74 176.5t176 73.5zM667 250v250q0 68 -49.5 117.5t-117.5 49.5h-167q-68 0 -117 -49.5t-49 -117.5v-250q0 -68 49 -117.5t117 -49.5h167
q68 0 117.5 49.5t49.5 117.5zM583 167h-83v83q0 34 -24.5 58.5t-58.5 24.5h-84v-166h-83v416h250q34 0 58.5 -24.5t24.5 -58.5v-42q0 -36 -20.5 -57t-62.5 -26q42 0 62.5 -20t20.5 -60v-128zM333 500v-83h125q21 0 31.5 10.5t10.5 30.5q0 42 -42 42h-125z" />
    <glyph glyph-name="copyright" unicode="&#xa9;" horiz-adv-x="833" 
d="M333 750h167q103 0 176.5 -73.5t73.5 -176.5v-250q0 -102 -73.5 -176t-176.5 -74h-167q-102 0 -176 73.5t-74 176.5v250q0 103 74 176.5t176 73.5zM167 500v-250q0 -68 49 -117.5t117 -49.5h167q68 0 117.5 49.5t49.5 117.5v250q0 68 -49.5 117.5t-117.5 49.5h-167
q-68 0 -117 -49.5t-49 -117.5zM583 417h-83q-9 83 -83 83q-34 0 -59 -24.5t-25 -58.5v-84q0 -34 24.5 -58.5t59.5 -24.5q74 0 83 83h83q-10 -166 -165 -166q-70 0 -119 49.5t-49 116.5v84q0 65 48 115.5t124 50.5q152 0 161 -166z" />
    <glyph glyph-name="trademark" unicode="&#x2122;" horiz-adv-x="917" 
d="M167 417v250h-84v83h250v-83h-83v-250h-83zM417 417v333h41l167 -167l167 167h41v-333h-83v166l-125 -125l-125 125v-166h-83z" />
    <glyph glyph-name="acute" unicode="&#xb4;" horiz-adv-x="500" 
d="M167 667l83 166h83l-83 -166h-83z" />
    <glyph glyph-name="dieresis" unicode="&#xa8;" horiz-adv-x="500" 
d="M83 667v103h98v-103h-98zM319 667v103h98v-103h-98z" />
    <glyph glyph-name="notequal_old" horiz-adv-x="750" 
d="M125 167v83h183l50 83h-233v84h283l50 83h84l-50 -83h133v-84h-183l-50 -83h233v-83h-283l-50 -84h-84l50 84h-133z" />
    <glyph glyph-name="AE" unicode="&#xc6;" horiz-adv-x="917" 
d="M83 0v583q0 69 49.5 118t117.5 49h583v-83h-250v-250h167v-84h-167v-250h250v-83h-416v333h-167v-333h-167zM250 417h167v166q0 35 -24.5 59.5t-59.5 24.5q-34 0 -58.5 -24.5t-24.5 -59.5v-166z" />
    <glyph glyph-name="Oslash" unicode="&#xd8;" horiz-adv-x="667" 
d="M83 0l36 63q-36 55 -36 104v416q0 69 49.5 118t117.5 49h167q37 0 74 -17l9 17h83l-35 -64q35 -54 35 -103v-416q0 -68 -49 -117.5t-117 -49.5h-167q-36 0 -74 17l-9 -17h-84zM252 153q13 -70 81 -70q35 0 59.5 25t24.5 59v283zM416 598q-18 69 -83 69q-34 0 -58.5 -24.5
t-24.5 -59.5v-283z" />
    <glyph glyph-name="infinity" unicode="&#x221e;" horiz-adv-x="1167" 
d="M643 376l102 -89q42 -37 88 -37q52 0 88.5 37t36.5 88q0 52 -37 88.5t-88 36.5q-45 0 -88 -37zM583 319l-103 -91q-68 -61 -146 -61q-87 0 -148 62t-61 146q0 86 61.5 147t147.5 61q79 0 146 -61l103 -90l103 90q69 61 147 61q86 0 147.5 -61.5t61.5 -146.5
q0 -84 -61 -146t-148 -62q-79 0 -147 61zM521 375l-99 88q-41 37 -89 37q-51 0 -88 -37t-37 -88q0 -50 36.5 -87.5t88.5 -37.5q48 0 89 37z" />
    <glyph glyph-name="plusminus" unicode="&#xb1;" horiz-adv-x="583" 
d="M83 333v84h167v166h83v-166h167v-84h-167v-166h-83v166h-167zM83 0v83h417v-83h-417z" />
    <glyph glyph-name="lessequal" unicode="&#x2264;" horiz-adv-x="500" 
d="M83 0v83h334v-83h-334zM83 375l250 250v-118l-132 -132l132 -132v-118z" />
    <glyph glyph-name="greaterequal" unicode="&#x2265;" horiz-adv-x="500" 
d="M417 0h-334v83h334v-83zM417 375l-250 -250v118l132 132l-132 132v118z" />
    <glyph glyph-name="yen" unicode="&#xa5;" horiz-adv-x="667" 
d="M250 0v167h-167v83h167v83h-167v84h167q-83 9 -125 51t-42 115v167h167v-167q0 -34 24.5 -58.5t58.5 -24.5q35 0 59.5 24.5t24.5 58.5v167h166v-167q0 -73 -41.5 -115t-124.5 -51h166v-84h-166v-83h166v-83h-166v-167h-167z" />
    <glyph glyph-name="mu" unicode="&#xb5;" horiz-adv-x="833" 
d="M91 -167l150 750h167l-83 -416q-2 -9 -2 -17q0 -67 68 -67q84 0 100 84l83 416h167l-83 -416q-2 -9 -2 -17q0 -59 69 -67l-17 -83h-83q-68 0 -68 64q0 6 1 19q-27 -83 -100 -83h-83q-68 0 -68 64q0 6 1 19l-50 -250h-167z" />
    <glyph glyph-name="partialdiff_old" horiz-adv-x="667" 
d="M269 333l-33 -166q-2 -9 -2 -17q0 -33 17 -50t51 -17q84 0 100 84l34 166q1 8 1 16q0 68 -67 68q-84 0 -101 -84zM469 500q2 25 2 41q0 54 -40.5 90t-95.5 36h-83v83h17q202 0 273.5 -82.5t71.5 -223.5q0 -54 -12 -111l-33 -166q-14 -68 -72.5 -117.5t-127.5 -49.5h-167
q-56 0 -96.5 37t-40.5 97q0 16 4 33l33 166q14 70 73.5 118.5t126.5 48.5h167z" />
    <glyph glyph-name="summation_old" horiz-adv-x="750" 
d="M83 -83v83l290 365l-290 302v83h584v-83h-412l289 -302l-289 -365h412v-83h-584z" />
    <glyph glyph-name="product" unicode="&#x220f;" horiz-adv-x="833" 
d="M167 -83v750h-84v83h667v-83h-83v-750h-167v750h-167v-750h-166z" />
    <glyph glyph-name="pi" unicode="&#x3c0;" horiz-adv-x="917" 
d="M208 500q-77 0 -83 -83h-83q19 166 166 166h500q78 0 84 84h83q-17 -150 -167 -167v-500h-166v500h-167v-500h-167v500z" />
    <glyph glyph-name="integral_old" horiz-adv-x="500" 
d="M417 750v-83h-8q-23 0 -49.5 -24.5t-26.5 -59.5v-583q0 -68 -48 -117q-50 -50 -118 -50h-84v84h8q20 0 48 21t28 62v583q0 68 48.5 117.5t117.5 49.5h84z" />
    <glyph glyph-name="ordfeminine" unicode="&#xaa;" horiz-adv-x="583" 
d="M361 560v47q0 71 -69 71h-56q-61 0 -69 -71h-84q16 143 139 143h139q57 0 98 -42t41 -101v-357h-139v71q-8 -71 -69 -71h-70q-56 0 -97.5 42t-41.5 101v24q0 60 42 101.5t97 41.5h139zM361 477h-69q-70 0 -70 -72v0q0 -36 17.5 -54t52.5 -18q69 0 69 72v72zM83 167h417
v-84h-417v84z" />
    <glyph glyph-name="ordmasculine" unicode="&#xba;" horiz-adv-x="583" 
d="M83 83v84h417v-84h-417zM222 750h139q57 0 98 -42t41 -101v-214q0 -59 -41 -101t-98 -42h-139q-56 0 -97.5 42t-41.5 101v214q0 59 41.5 101t97.5 42zM222 595v-190q0 -72 70 -72q69 0 69 72v190q0 72 -69 72q-70 0 -70 -72z" />
    <glyph glyph-name="Omega" unicode="&#x3a9;" horiz-adv-x="833" 
d="M250 167q-167 19 -167 166v250q0 69 49.5 118t117.5 49h333q69 0 118 -49.5t49 -117.5v-250q0 -147 -167 -166v-84h167v-83h-250v250q83 9 83 83v250q0 35 -24.5 59.5t-58.5 24.5h-167q-34 0 -58.5 -25t-24.5 -59v-250q0 -74 83 -83v-250h-250v83h167v84z" />
    <glyph glyph-name="ae" unicode="&#xe6;" horiz-adv-x="1000" 
d="M417 250h-84q-34 0 -58.5 -24.5t-24.5 -58.5v0q0 -34 24.5 -59t58.5 -25q35 0 59.5 25t24.5 59v83zM583 333h167v84q0 33 -24.5 58t-58.5 25t-59 -24.5t-25 -58.5v-84zM167 417h-84q20 166 167 166h167q41 0 83 -22q42 22 83 22h167q68 0 117.5 -49t49.5 -117v-167h-334
v-83q0 -34 24.5 -59t59.5 -25h83q83 0 83 84h84q-20 -167 -167 -167h-167q-41 0 -83 22q-42 -22 -83 -22h-167q-68 0 -117.5 49t-49.5 118v0q0 68 49.5 117t117.5 49h167v84q0 34 -24.5 58.5t-59.5 24.5h-83q-74 0 -83 -83z" />
    <glyph glyph-name="oslash" unicode="&#xf8;" horiz-adv-x="667" 
d="M583 583l-41 -57q41 -57 41 -109v-250q0 -68 -49 -117.5t-117 -49.5h-167q-36 0 -72 16l-11 -16h-84l42 57q-42 57 -42 110v250q0 68 49.5 117t117.5 49h167q36 0 72 -16l11 16h83zM250 233l158 221q-29 46 -75 46q-34 0 -58.5 -24.5t-24.5 -58.5v-184zM417 350
l-158 -221q29 -46 74 -46q35 0 59.5 25t24.5 59v183z" />
    <glyph glyph-name="questiondown" unicode="&#xbf;" horiz-adv-x="667" 
d="M417 750v-167h-167v167h167zM417 500v-83q0 -104 -109 -169l-13 -8q-45 -27 -45 -73q0 -35 24.5 -59.5t58.5 -24.5h84q77 0 83 84h83q-19 -167 -166 -167h-167q-68 0 -117.5 49t-49.5 118q0 108 95 150l14 6q45 20 51.5 39t6.5 55v83h167z" />
    <glyph glyph-name="exclamdown" unicode="&#xa1;" horiz-adv-x="500" 
d="M333 500v-500h-166v500h166zM333 750v-167h-166v167h166z" />
    <glyph glyph-name="logicalnot" unicode="&#xac;" horiz-adv-x="583" 
d="M83 250v83h417v-250h-83v167h-334z" />
    <glyph glyph-name="radical_old" horiz-adv-x="1000" 
d="M83 417h167l125 -334l292 750h250v-83h-167l-292 -750h-166l-125 333h-84v84z" />
    <glyph glyph-name="florin" unicode="&#x192;" horiz-adv-x="500" 
d="M417 750v-83h-8q-31 0 -53.5 -21.5t-22.5 -62.5v-83h84v-83h-84v-417q0 -68 -49 -117.5t-117 -49.5h-84v84h8q28 0 52 21t24 62v417h-84v83h84v83q0 68 48.5 117.5t117.5 49.5h84z" />
    <glyph glyph-name="approxequal_old" horiz-adv-x="667" 
d="M167 417h-84q20 166 167 166q48 0 104 -48l11 -11q28 -24 52 -24q73 0 83 83h83q-19 -166 -166 -166q-48 0 -104 48l-11 11q-28 24 -52 24q-73 0 -83 -83zM167 167h-84q20 166 167 166q48 0 104 -48l11 -11q28 -24 52 -24q73 0 83 83h83q-19 -166 -166 -166
q-48 0 -104 48l-11 11q-28 24 -52 24q-73 0 -83 -83z" />
    <glyph glyph-name="Delta" unicode="&#x2206;" horiz-adv-x="750" 
d="M83 0v167l250 583h84l250 -583v-167h-584zM500 167l-167 389l-166 -389h333z" />
    <glyph glyph-name="guillemotleft" unicode="&#xab;" horiz-adv-x="750" 
d="M83 292l292 291v-83l-208 -208l208 -209v-83zM333 292l292 291v-83l-208 -208l208 -209v-83z" />
    <glyph glyph-name="guillemotright" unicode="&#xbb;" horiz-adv-x="750" 
d="M667 292l-292 -292v83l208 209l-208 208v83zM417 292l-292 -292v83l208 209l-208 208v83z" />
    <glyph glyph-name="ellipsis" unicode="&#x2026;" horiz-adv-x="1167" 
d="M167 0v167h166v-167h-166zM500 0v167h167v-167h-167zM833 0v167h167v-167h-167z" />
    <glyph glyph-name="nonbreakingspace" unicode="&#xa0;" horiz-adv-x="667" 
 />
    <glyph glyph-name="Agrave" unicode="&#xc0;" horiz-adv-x="667" 
d="M83 0v583q0 69 49.5 118t117.5 49h167q68 0 117 -49.5t49 -117.5v-583h-166v333h-167v-333h-167zM250 417h167v166q0 35 -24.5 59.5t-59.5 24.5q-34 0 -58.5 -24.5t-24.5 -59.5v-166zM333 833l-83 167h83l84 -167h-84z" />
    <glyph glyph-name="Atilde" unicode="&#xc3;" horiz-adv-x="667" 
d="M83 0v583q0 69 49.5 118t117.5 49h167q68 0 117 -49.5t49 -117.5v-583h-166v333h-167v-333h-167zM250 417h167v166q0 35 -24.5 59.5t-59.5 24.5q-34 0 -58.5 -24.5t-24.5 -59.5v-166zM167 833h-84q20 167 167 167q48 0 104 -49l11 -10q28 -24 52 -24q73 0 83 83h83
q-19 -167 -166 -167q-48 0 -104 49l-11 10q-28 25 -52 25q-73 0 -83 -84z" />
    <glyph glyph-name="Otilde" unicode="&#xd5;" horiz-adv-x="667" 
d="M250 750h167q68 0 117 -49.5t49 -117.5v-416q0 -68 -49 -117.5t-117 -49.5h-167q-68 0 -117.5 49t-49.5 118v416q0 69 49.5 118t117.5 49zM250 583v-416q0 -34 24.5 -59t58.5 -25q35 0 59.5 25t24.5 59v416q0 35 -24.5 59.5t-59.5 24.5q-34 0 -58.5 -24.5t-24.5 -59.5z
M167 833h-84q20 167 167 167q48 0 104 -49l11 -10q28 -24 52 -24q73 0 83 83h83q-19 -167 -166 -167q-48 0 -104 49l-11 10q-28 25 -52 25q-73 0 -83 -84z" />
    <glyph glyph-name="OE" unicode="&#x152;" horiz-adv-x="917" 
d="M833 750v-83h-250v-250h167v-84h-167v-250h250v-83h-583q-68 0 -117.5 49t-49.5 118v416q0 69 49.5 118t117.5 49h583zM250 583v-416q0 -34 24.5 -59t58.5 -25q35 0 59.5 25t24.5 59v416q0 35 -24.5 59.5t-59.5 24.5q-34 0 -58.5 -24.5t-24.5 -59.5z" />
    <glyph glyph-name="oe" unicode="&#x153;" horiz-adv-x="1000" 
d="M583 250v-83q0 -34 24.5 -59t59.5 -25h83q83 0 83 84h84q-20 -167 -167 -167h-167q-41 0 -83 22q-42 -22 -83 -22h-167q-68 0 -117.5 49t-49.5 118v250q0 68 49.5 117t117.5 49h167q41 0 83 -22q42 22 83 22h167q68 0 117.5 -49t49.5 -117v-167h-334zM250 417v-250
q0 -34 24.5 -59t58.5 -25q35 0 59.5 25t24.5 59v250q0 34 -24.5 58.5t-59.5 24.5q-34 0 -58.5 -24.5t-24.5 -58.5zM583 333h167v84q0 33 -24.5 58t-58.5 25t-59 -24.5t-25 -58.5v-84z" />
    <glyph glyph-name="endash" unicode="&#x2013;" horiz-adv-x="500" 
d="M83 250v83h334v-83h-334z" />
    <glyph glyph-name="emdash" unicode="&#x2014;" horiz-adv-x="833" 
d="M83 250v83h667v-83h-667z" />
    <glyph glyph-name="quotedblleft" unicode="&#x201c;" horiz-adv-x="583" 
d="M250 417h-167v166q0 148 167 167v-83q-81 -3 -83 -84h83v-166zM500 417h-167v166q0 148 167 167v-83q-81 -3 -83 -84h83v-166z" />
    <glyph glyph-name="quotedblright" unicode="&#x201d;" horiz-adv-x="583" 
d="M83 750h167v-167q0 -147 -167 -166v83q81 3 84 83h-84v167zM333 750h167v-167q0 -147 -167 -166v83q81 3 84 83h-84v167z" />
    <glyph glyph-name="quoteleft" unicode="&#x2018;" horiz-adv-x="333" 
d="M250 417h-167v166q0 148 167 167v-83q-81 -3 -83 -84h83v-166z" />
    <glyph glyph-name="quoteright" unicode="&#x2019;" horiz-adv-x="333" 
d="M83 750h167v-167q0 -147 -167 -166v83q81 3 84 83h-84v167z" />
    <glyph glyph-name="divide" unicode="&#xf7;" horiz-adv-x="583" 
d="M250 417v83h83v-83h-83zM250 83v84h83v-84h-83zM83 250v83h417v-83h-417z" />
    <glyph glyph-name="lozenge" unicode="&#x25ca;" horiz-adv-x="750" 
d="M201 292l174 -174l174 174l-174 173zM375 583l292 -291l-292 -292l-292 292z" />
    <glyph glyph-name="ydieresis" unicode="&#xff;" horiz-adv-x="667" 
d="M167 -83q6 -84 83 -84h83q35 0 59.5 24.5t24.5 59.5v166q-10 -83 -84 -83h-83q-68 0 -117.5 49t-49.5 118v416h167v-416q0 -34 24.5 -59t58.5 -25q35 0 59.5 25t24.5 59v416h166v-666q0 -68 -49 -117.5t-117 -49.5h-167q-147 0 -167 167h84zM167 667v103h98v-103h-98z
M402 667v103h98v-103h-98z" />
    <glyph glyph-name="Ydieresis" unicode="&#x178;" horiz-adv-x="667" 
d="M250 0v333q-167 20 -167 167v250h167v-250q0 -34 24.5 -58.5t58.5 -24.5q35 0 59.5 24.5t24.5 58.5v250h166v-250q0 -147 -166 -167v-333h-167zM167 833v103h98v-103h-98zM402 833v103h98v-103h-98z" />
    <glyph glyph-name="fraction" unicode="&#x2044;" horiz-adv-x="250" 
d="M-83 0l333 750h83l-333 -750h-83z" />
    <glyph glyph-name="Euro" unicode="&#x20ac;" horiz-adv-x="744" 
d="M606 349h-557l23 54h556zM560 242h-511l23 53h511zM667 73q-84 -73 -209 -73q-137 0 -229.5 93t-92.5 229q0 137 92.5 230t229.5 93t232 -96l-23 -54q-89 96 -209 96q-112 0 -190.5 -78t-78.5 -191q0 -112 78.5 -190t190.5 -78q122 0 209 98v-79z" />
    <glyph glyph-name="guilsinglleft" unicode="&#x2039;" horiz-adv-x="500" 
d="M83 292l292 291v-83l-208 -208l208 -209v-83z" />
    <glyph glyph-name="guilsinglright" unicode="&#x203a;" horiz-adv-x="500" 
d="M417 292l-292 -292v83l208 209l-208 208v83z" />
    <glyph glyph-name="daggerdbl" unicode="&#x2021;" horiz-adv-x="417" 
d="M83 667h84v83h83v-83h83v-84h-83v-166h83v-84h-83v-83h-83v83h-84v84h84v166h-84v84z" />
    <glyph glyph-name="periodcentered" unicode="&#xb7;" horiz-adv-x="333" 
d="M83 250v167h167v-167h-167z" />
    <glyph glyph-name="quotesinglbase" unicode="&#x201a;" horiz-adv-x="333" 
d="M83 167h167v-167q0 -148 -167 -167v84q75 8 84 83h-84v167z" />
    <glyph glyph-name="quotedblbase" unicode="&#x201e;" horiz-adv-x="583" 
d="M83 167h167v-167q0 -148 -167 -167v84q75 8 84 83h-84v167zM333 167h167v-167q0 -148 -167 -167v84q75 8 84 83h-84v167z" />
    <glyph glyph-name="perthousand" unicode="&#x2030;" horiz-adv-x="1250" 
d="M83 583q0 69 49.5 118t117.5 49t117.5 -49t49.5 -118q0 -67 -49 -116.5t-118 -49.5t-118 49.5t-49 116.5zM417 750h250l-334 -750h-83l296 667h-129v83zM167 583q0 -34 24.5 -58.5t58.5 -24.5q35 0 59 24.5t24 58.5q0 35 -24.5 59.5t-58.5 24.5t-58.5 -24.5t-24.5 -59.5z
M500 167q0 68 49.5 117t117.5 49t117 -49t49 -117t-48.5 -117.5t-117.5 -49.5t-118 49.5t-49 117.5zM583 167q0 -34 24.5 -59t59.5 -25q34 0 58.5 25t24.5 59t-24.5 58.5t-58.5 24.5t-59 -24.5t-25 -58.5zM833 167q0 68 49.5 117t117.5 49t117.5 -49t49.5 -117t-49 -117.5
t-118 -49.5t-118 49.5t-49 117.5zM917 167q0 -34 24.5 -59t58.5 -25q35 0 59 25t24 59t-24.5 58.5t-58.5 24.5t-58.5 -24.5t-24.5 -58.5z" />
    <glyph glyph-name="Acircumflex" unicode="&#xc2;" horiz-adv-x="667" 
d="M83 0v583q0 69 49.5 118t117.5 49h167q68 0 117 -49.5t49 -117.5v-583h-166v333h-167v-333h-167zM250 417h167v166q0 35 -24.5 59.5t-59.5 24.5q-34 0 -58.5 -24.5t-24.5 -59.5v-166zM167 833l125 167h83l125 -167h-83l-84 84l-83 -84h-83z" />
    <glyph glyph-name="Ecircumflex" unicode="&#xca;" horiz-adv-x="583" 
d="M83 0v750h417v-83h-250v-250h167v-84h-167v-250h250v-83h-417zM108 833l125 167h83l125 -167h-83l-84 84l-83 -84h-83z" />
    <glyph glyph-name="Aacute" unicode="&#xc1;" horiz-adv-x="667" 
d="M83 0v583q0 69 49.5 118t117.5 49h167q68 0 117 -49.5t49 -117.5v-583h-166v333h-167v-333h-167zM250 417h167v166q0 35 -24.5 59.5t-59.5 24.5q-34 0 -58.5 -24.5t-24.5 -59.5v-166zM250 833l83 167h84l-84 -167h-83z" />
    <glyph glyph-name="Edieresis" unicode="&#xcb;" horiz-adv-x="583" 
d="M83 0v750h417v-83h-250v-250h167v-84h-167v-250h250v-83h-417zM118 833v103h98v-103h-98zM354 833v103h97v-103h-97z" />
    <glyph glyph-name="Egrave" unicode="&#xc8;" horiz-adv-x="583" 
d="M83 0v750h417v-83h-250v-250h167v-84h-167v-250h250v-83h-417zM250 833l-83 167h83l83 -167h-83z" />
    <glyph glyph-name="Iacute" unicode="&#xcd;" horiz-adv-x="500" 
d="M167 0v750h166v-750h-166zM167 833l83 167h83l-83 -167h-83z" />
    <glyph glyph-name="Icircumflex" unicode="&#xce;" horiz-adv-x="500" 
d="M167 0v750h166v-750h-166zM83 833l125 167h84l125 -167h-84l-83 84l-83 -84h-84z" />
    <glyph glyph-name="Idieresis" unicode="&#xcf;" horiz-adv-x="500" 
d="M167 0v750h166v-750h-166zM83 833v103h98v-103h-98zM319 833v103h98v-103h-98z" />
    <glyph glyph-name="Igrave" unicode="&#xcc;" horiz-adv-x="500" 
d="M167 0v750h166v-750h-166zM250 833l-83 167h83l83 -167h-83z" />
    <glyph glyph-name="Oacute" unicode="&#xd3;" horiz-adv-x="667" 
d="M250 750h167q68 0 117 -49.5t49 -117.5v-416q0 -68 -49 -117.5t-117 -49.5h-167q-68 0 -117.5 49t-49.5 118v416q0 69 49.5 118t117.5 49zM250 583v-416q0 -34 24.5 -59t58.5 -25q35 0 59.5 25t24.5 59v416q0 35 -24.5 59.5t-59.5 24.5q-34 0 -58.5 -24.5t-24.5 -59.5z
M250 833l83 167h84l-84 -167h-83z" />
    <glyph glyph-name="Ocircumflex" unicode="&#xd4;" horiz-adv-x="667" 
d="M250 750h167q68 0 117 -49.5t49 -117.5v-416q0 -68 -49 -117.5t-117 -49.5h-167q-68 0 -117.5 49t-49.5 118v416q0 69 49.5 118t117.5 49zM250 583v-416q0 -34 24.5 -59t58.5 -25q35 0 59.5 25t24.5 59v416q0 35 -24.5 59.5t-59.5 24.5q-34 0 -58.5 -24.5t-24.5 -59.5z
M167 833l125 167h83l125 -167h-83l-84 84l-83 -84h-83z" />
    <glyph glyph-name="apple" unicode="&#xf8ff;" horiz-adv-x="917" 
d="M466 588q22 0 71.5 17t86.5 17q60 0 107 -32q26 -19 52 -50q-39 -34 -57 -60q-33 -46 -33 -103q0 -62 35 -112t79 -63q-18 -60 -61 -125q-65 -98 -129 -98q-26 0 -70.5 16t-75.5 16t-71.5 -17t-66.5 -17q-76 0 -150 130q-74 128 -74 252q0 115 56.5 187t142.5 72
q37 0 89 -15t69 -15zM619 790q0 -32 -15 -69t-46 -69q-28 -27 -55 -36q-17 -5 -51 -8q1 74 38.5 128.5t125.5 74.5q2 -7 2.5 -12t0.5 -9z" />
    <glyph glyph-name="Ograve" unicode="&#xd2;" horiz-adv-x="667" 
d="M250 750h167q68 0 117 -49.5t49 -117.5v-416q0 -68 -49 -117.5t-117 -49.5h-167q-68 0 -117.5 49t-49.5 118v416q0 69 49.5 118t117.5 49zM250 583v-416q0 -34 24.5 -59t58.5 -25q35 0 59.5 25t24.5 59v416q0 35 -24.5 59.5t-59.5 24.5q-34 0 -58.5 -24.5t-24.5 -59.5z
M333 833l-83 167h83l84 -167h-84z" />
    <glyph glyph-name="Uacute" unicode="&#xda;" horiz-adv-x="667" 
d="M417 750h166v-583q0 -68 -49 -117.5t-117 -49.5h-167q-68 0 -117.5 49t-49.5 118v583h167v-583q0 -34 24.5 -59t58.5 -25q35 0 59.5 25t24.5 59v583zM250 833l83 167h84l-84 -167h-83z" />
    <glyph glyph-name="Ucircumflex" unicode="&#xdb;" horiz-adv-x="667" 
d="M417 750h166v-583q0 -68 -49 -117.5t-117 -49.5h-167q-68 0 -117.5 49t-49.5 118v583h167v-583q0 -34 24.5 -59t58.5 -25q35 0 59.5 25t24.5 59v583zM167 833l125 167h83l125 -167h-83l-84 84l-83 -84h-83z" />
    <glyph glyph-name="Ugrave" unicode="&#xd9;" horiz-adv-x="667" 
d="M417 750h166v-583q0 -68 -49 -117.5t-117 -49.5h-167q-68 0 -117.5 49t-49.5 118v583h167v-583q0 -34 24.5 -59t58.5 -25q35 0 59.5 25t24.5 59v583zM333 833l-83 167h83l84 -167h-84z" />
    <glyph glyph-name="dotlessi" unicode="&#x131;" horiz-adv-x="333" 
d="M83 0v583h167v-583h-167z" />
    <glyph glyph-name="circumflex" unicode="&#x2c6;" horiz-adv-x="500" 
d="M83 667l125 166h84l125 -166h-84l-83 83l-83 -83h-84z" />
    <glyph glyph-name="tilde" unicode="&#x2dc;" horiz-adv-x="667" 
d="M167 667h-84q20 166 167 166q48 0 104 -48l11 -11q28 -24 52 -24q73 0 83 83h83q-19 -166 -166 -166q-48 0 -104 48l-11 11q-28 24 -52 24q-73 0 -83 -83z" />
    <glyph glyph-name="macron" unicode="&#xaf;" horiz-adv-x="500" 
d="M83 667v83h334v-83h-334z" />
    <glyph glyph-name="breve" unicode="&#x2d8;" horiz-adv-x="500" 
d="M333 833h84q-20 -166 -167 -166t-167 166h84q9 -83 83 -83t83 83z" />
    <glyph glyph-name="dotaccent" unicode="&#x2d9;" horiz-adv-x="500" 
d="M208 667v103h99v-103h-99z" />
    <glyph glyph-name="ring" unicode="&#x2da;" horiz-adv-x="500" 
d="M83 833q0 69 49.5 118t117.5 49t117.5 -49t49.5 -118q0 -67 -49 -116.5t-118 -49.5t-118 49.5t-49 116.5zM167 833q0 -34 24 -58.5t59 -24.5t59 24.5t24 58.5q0 35 -24.5 59.5t-58.5 24.5t-58.5 -24.5t-24.5 -59.5z" />
    <glyph glyph-name="cedilla" unicode="&#xb8;" horiz-adv-x="500" 
d="M189 -83v83h42q52 0 88.5 -37t36.5 -88q0 -54 -39 -89.5t-81 -35.5q-18 0 -52 9l31 77q12 -3 18 -3q20 0 30 10.5t10 31.5t-10.5 31.5t-31.5 10.5h-42z" />
    <glyph glyph-name="hungarumlaut" unicode="&#x2dd;" horiz-adv-x="500" 
d="M83 667l84 166h83l-83 -166h-84zM250 667l83 166h84l-84 -166h-83z" />
    <glyph glyph-name="ogonek" unicode="&#x2db;" horiz-adv-x="500" 
d="M331 -83h-42q-21 0 -31.5 -10.5t-10.5 -31.5t10 -31.5t30 -10.5q6 0 18 3l31 -77q-34 -9 -52 -9q-42 0 -81 35.5t-39 89.5q0 51 37 88t88 37h42v-83z" />
    <glyph glyph-name="caron" unicode="&#x2c7;" horiz-adv-x="500" 
d="M417 833l-125 -166h-84l-125 166h84l83 -83l83 83h84z" />
    <glyph glyph-name="uni000A" unicode="&#xa;" horiz-adv-x="250" 
 />
    <glyph glyph-name="currency" unicode="&#xa4;" horiz-adv-x="667" 
d="M143 667l106 -107q22 12 43 17.5t41 5.5q21 0 42 -5.5t43 -17.5l106 107l59 -60l-106 -106q23 -43 23 -84q0 -21 -5.5 -42t-17.5 -43l106 -106l-59 -59l-106 106q-21 -11 -42.5 -17t-42.5 -6q-20 0 -41.5 6t-42.5 17l-106 -106l-60 59l107 106q-11 22 -17 43t-6 42
q0 41 23 84l-107 106zM250 417q0 -35 25 -59.5t58 -24.5q34 0 59 24.5t25 59.5q0 34 -24.5 58.5t-59.5 24.5q-33 0 -58 -24.5t-25 -58.5z" />
    <glyph glyph-name="brokenbar" unicode="&#xa6;" horiz-adv-x="417" 
d="M250 333v-416h-83v416h83zM167 417v416h83v-416h-83z" />
    <glyph glyph-name="uni00AD" unicode="&#xad;" horiz-adv-x="583" 
d="M83 250v83h417v-83h-417z" />
    <glyph glyph-name="twosuperior" unicode="&#xb2;" horiz-adv-x="583" 
d="M153 602h-70q0 82 45 115t94 33h139q57 0 98 -38.5t41 -91.5v-32q0 -68 -134 -174l-10 -8q-134 -107 -134 -153v-3h278v-83h-417v83q0 48 135 156l9 8q134 107 134 174v14q0 65 -69 65h-70q-64 0 -69 -65z" />
    <glyph glyph-name="threesuperior" unicode="&#xb3;" horiz-adv-x="583" 
d="M83 750h417v-83l-167 -125h28q60 0 99.5 -43t39.5 -87v-116q0 -53 -41 -91t-98 -38h-139q-49 0 -94 32.5t-45 115.5h84q5 -65 69 -65h56q69 0 69 65v79q0 14 -16.5 39t-52.5 25h-84v84l167 125h-292v83z" />
    <glyph glyph-name="onesuperior" unicode="&#xb9;" horiz-adv-x="583" 
d="M238 167v425h-84v75l153 83h69v-583h-138z" />
    <glyph glyph-name="onequarter" unicode="&#xbc;" horiz-adv-x="1167" 
d="M333 0l250 750h84l-250 -750h-84zM167 167v425h-84v75l153 83h70v-583h-139zM861 250v217l-181 -217h181zM861 0v167h-278v83l278 333h139v-333h83v-83h-83v-167h-139z" />
    <glyph glyph-name="onehalf" unicode="&#xbd;" horiz-adv-x="1167" 
d="M333 0l250 750h84l-250 -750h-84zM167 167v425h-84v75l153 83h70v-583h-139zM736 435h-69q0 82 44.5 115t94.5 33h138q58 0 98.5 -38.5t40.5 -90.5v-33q0 -67 -134 -174l-10 -8q-133 -106 -133 -153v-3h277v-83h-416v83q0 49 134 156l9 8q134 107 134 174v14q0 65 -69 65
h-69q-65 0 -70 -65z" />
    <glyph glyph-name="threequarters" unicode="&#xbe;" horiz-adv-x="1333" 
d="M500 0l250 750h83l-250 -750h-83zM1028 250v217l-181 -217h181zM1028 0v167h-278v83l278 333h139v-333h83v-83h-83v-167h-139zM83 750h417v-83l-167 -125h28q60 0 99.5 -43t39.5 -87v-116q0 -53 -41 -91t-98 -38h-139q-49 0 -94 32.5t-45 115.5h84q5 -65 69 -65h56
q69 0 69 65v79q0 14 -16.5 39t-52.5 25h-84v84l167 125h-292v83z" />
    <glyph glyph-name="Eth" unicode="&#xd0;" horiz-adv-x="667" 
d="M83 0v333h-83v84h83v333h334q68 0 117 -49.5t49 -117.5v-416q0 -68 -49 -117.5t-117 -49.5h-334zM250 83h83q35 0 59.5 25t24.5 59v416q0 35 -24.5 59.5t-59.5 24.5h-83v-250h83v-84h-83v-250z" />
    <glyph glyph-name="multiply" unicode="&#xd7;" horiz-adv-x="667" 
d="M83 482l60 60l190 -191l191 191l59 -60l-190 -190l190 -191l-59 -59l-191 190l-190 -190l-60 59l191 191z" />
    <glyph glyph-name="Yacute" unicode="&#xdd;" horiz-adv-x="667" 
d="M250 0v333q-167 20 -167 167v250h167v-250q0 -34 24.5 -58.5t58.5 -24.5q35 0 59.5 24.5t24.5 58.5v250h166v-250q0 -147 -166 -167v-333h-167zM250 833l83 167h84l-84 -167h-83z" />
    <glyph glyph-name="Thorn" unicode="&#xde;" horiz-adv-x="667" 
d="M83 0v750h167v-167h167q68 0 117 -49t49 -117v-84q0 -68 -49 -117t-117 -49h-167v-167h-167zM250 250h83q35 0 59.5 24.5t24.5 58.5v84q0 34 -24.5 58.5t-59.5 24.5h-83v-250z" />
    <glyph glyph-name="eth" unicode="&#xf0;" horiz-adv-x="667" 
d="M167 667v83h41q88 0 174 -35l35 35h83l-65 -66q148 -122 148 -351v-166q0 -68 -48.5 -117.5t-117.5 -49.5h-167q-68 0 -117.5 49t-49.5 118v166q0 70 50 118.5t117 48.5h167q-11 78 -49 118l-35 -35h-83l69 69q-35 15 -74 15h-78zM250 333v-166q0 -34 24.5 -59t58.5 -25
q35 0 59.5 25t24.5 59v166q0 35 -24.5 59.5t-59.5 24.5q-34 0 -58.5 -24.5t-24.5 -59.5z" />
    <glyph glyph-name="yacute" unicode="&#xfd;" horiz-adv-x="667" 
d="M167 -83q6 -84 83 -84h83q35 0 59.5 24.5t24.5 59.5v166q-10 -83 -84 -83h-83q-68 0 -117.5 49t-49.5 118v416h167v-416q0 -34 24.5 -59t58.5 -25q35 0 59.5 25t24.5 59v416h166v-666q0 -68 -49 -117.5t-117 -49.5h-167q-147 0 -167 167h84zM250 667l83 166h84l-84 -166
h-83z" />
    <glyph glyph-name="thorn" unicode="&#xfe;" horiz-adv-x="667" 
d="M83 -167v917h167v-250q5 42 26 62.5t57 20.5h84q68 0 117 -49t49 -117v-250q0 -68 -49 -117.5t-117 -49.5h-167v-167h-167zM250 83h83q35 0 59.5 25t24.5 59v250q0 34 -24.5 58.5t-59.5 24.5q-34 0 -58.5 -24.5t-24.5 -58.5v-334z" />
    <glyph glyph-name="Amacron" unicode="&#x100;" horiz-adv-x="667" 
d="M83 0v583q0 69 49.5 118t117.5 49h167q68 0 117 -49.5t49 -117.5v-583h-166v333h-167v-333h-167zM250 417h167v166q0 35 -24.5 59.5t-59.5 24.5q-34 0 -58.5 -24.5t-24.5 -59.5v-166zM167 800v83h333v-83h-333z" />
    <glyph glyph-name="amacron" unicode="&#x101;" horiz-adv-x="667" 
d="M417 333v84q0 34 -24.5 58.5t-59.5 24.5h-83q-74 0 -83 -83h-84q20 166 167 166h167q68 0 117 -49t49 -117v-417h-166v83q-10 -83 -84 -83h-83q-68 0 -117.5 49t-49.5 118v0q0 68 49.5 117t117.5 49h167zM417 250h-84q-34 0 -58.5 -24.5t-24.5 -58.5v0q0 -34 24.5 -59
t58.5 -25q35 0 59.5 25t24.5 59v83zM167 633v84h333v-84h-333z" />
    <glyph glyph-name="Abreve" unicode="&#x102;" horiz-adv-x="667" 
d="M83 0v583q0 69 49.5 118t117.5 49h167q68 0 117 -49.5t49 -117.5v-583h-166v333h-167v-333h-167zM250 417h167v166q0 35 -24.5 59.5t-59.5 24.5q-34 0 -58.5 -24.5t-24.5 -59.5v-166zM417 967h83q-19 -167 -167 -167q-146 0 -166 167h83q10 -84 83 -84q74 0 84 84z" />
    <glyph glyph-name="abreve" unicode="&#x103;" horiz-adv-x="667" 
d="M417 333v84q0 34 -24.5 58.5t-59.5 24.5h-83q-74 0 -83 -83h-84q20 166 167 166h167q68 0 117 -49t49 -117v-417h-166v83q-10 -83 -84 -83h-83q-68 0 -117.5 49t-49.5 118v0q0 68 49.5 117t117.5 49h167zM417 250h-84q-34 0 -58.5 -24.5t-24.5 -58.5v0q0 -34 24.5 -59
t58.5 -25q35 0 59.5 25t24.5 59v83zM417 800h83q-19 -167 -167 -167q-146 0 -166 167h83q10 -83 83 -83q74 0 84 83z" />
    <glyph glyph-name="Aogonek" unicode="&#x104;" horiz-adv-x="667" 
d="M83 0v583q0 69 49.5 118t117.5 49h167q68 0 117 -49.5t49 -117.5v-583h-166v333h-167v-333h-167zM250 417h167v166q0 35 -24.5 59.5t-59.5 24.5q-34 0 -58.5 -24.5t-24.5 -59.5v-166zM578 -83h-42q-21 0 -31.5 -10.5t-10.5 -31.5t10 -31.5t30 -10.5q7 0 18 3l31 -77
q-34 -9 -52 -9q-42 0 -81 35.5t-39 89.5q0 51 37 88t88 37h42v-83z" />
    <glyph glyph-name="aogonek" unicode="&#x105;" horiz-adv-x="667" 
d="M417 333v84q0 34 -24.5 58.5t-59.5 24.5h-83q-74 0 -83 -83h-84q20 166 167 166h167q68 0 117 -49t49 -117v-417h-166v83q-10 -83 -84 -83h-83q-68 0 -117.5 49t-49.5 118v0q0 68 49.5 117t117.5 49h167zM417 250h-84q-34 0 -58.5 -24.5t-24.5 -58.5v0q0 -34 24.5 -59
t58.5 -25q35 0 59.5 25t24.5 59v83zM578 -83h-42q-21 0 -31.5 -10.5t-10.5 -31.5t10 -31.5t30 -10.5q7 0 18 3l31 -77q-34 -9 -52 -9q-42 0 -81 35.5t-39 89.5q0 51 37 88t88 37h42v-83z" />
    <glyph glyph-name="Cacute" unicode="&#x106;" horiz-adv-x="667" 
d="M583 167q-10 -167 -166 -167h-167q-68 0 -117.5 49t-49.5 118v416q0 68 48.5 117.5t118.5 49.5h167q157 0 166 -167h-83q-10 84 -83 84h-84q-34 0 -58.5 -24.5t-24.5 -59.5v-416q0 -34 24.5 -59t58.5 -25h84q74 0 83 84h83zM250 833l83 167h84l-84 -167h-83z" />
    <glyph glyph-name="cacute" unicode="&#x107;" horiz-adv-x="583" 
d="M500 417h-83q-10 83 -84 83q-34 0 -58.5 -24.5t-24.5 -58.5v-250q0 -34 24.5 -59t58.5 -25q74 0 84 84h83q-10 -167 -167 -167h-83q-68 0 -117.5 49t-49.5 118v250q0 68 49.5 117t117.5 49h83q158 0 167 -166zM250 667l83 166h84l-84 -166h-83z" />
    <glyph glyph-name="Ccircumflex" unicode="&#x108;" horiz-adv-x="667" 
d="M583 167q-10 -167 -166 -167h-167q-68 0 -117.5 49t-49.5 118v416q0 68 48.5 117.5t118.5 49.5h167q157 0 166 -167h-83q-10 84 -83 84h-84q-34 0 -58.5 -24.5t-24.5 -59.5v-416q0 -34 24.5 -59t58.5 -25h84q74 0 83 84h83zM167 800l125 167h83l125 -167h-83l-84 83
l-83 -83h-83z" />
    <glyph glyph-name="ccircumflex" unicode="&#x109;" horiz-adv-x="583" 
d="M500 417h-83q-10 83 -84 83q-34 0 -58.5 -24.5t-24.5 -58.5v-250q0 -34 24.5 -59t58.5 -25q74 0 84 84h83q-10 -167 -167 -167h-83q-68 0 -117.5 49t-49.5 118v250q0 68 49.5 117t117.5 49h83q158 0 167 -166zM125 633l125 167h83l125 -167h-83l-83 84l-84 -84h-83z" />
    <glyph glyph-name="Cdotaccent" unicode="&#x10a;" horiz-adv-x="667" 
d="M583 167q-10 -167 -166 -167h-167q-68 0 -117.5 49t-49.5 118v416q0 68 48.5 117.5t118.5 49.5h167q157 0 166 -167h-83q-10 84 -83 84h-84q-34 0 -58.5 -24.5t-24.5 -59.5v-416q0 -34 24.5 -59t58.5 -25h84q74 0 83 84h83zM294 800v103h99v-103h-99z" />
    <glyph glyph-name="cdotaccent" unicode="&#x10b;" horiz-adv-x="583" 
d="M500 417h-83q-10 83 -84 83q-34 0 -58.5 -24.5t-24.5 -58.5v-250q0 -34 24.5 -59t58.5 -25q74 0 84 84h83q-10 -167 -167 -167h-83q-68 0 -117.5 49t-49.5 118v250q0 68 49.5 117t117.5 49h83q158 0 167 -166zM252 633v103h99v-103h-99z" />
    <glyph glyph-name="Ccaron" unicode="&#x10c;" horiz-adv-x="667" 
d="M583 167q-10 -167 -166 -167h-167q-68 0 -117.5 49t-49.5 118v416q0 68 48.5 117.5t118.5 49.5h167q157 0 166 -167h-83q-10 84 -83 84h-84q-34 0 -58.5 -24.5t-24.5 -59.5v-416q0 -34 24.5 -59t58.5 -25h84q74 0 83 84h83zM500 1000l-125 -167h-83l-125 167h83l83 -83
l84 83h83z" />
    <glyph glyph-name="ccaron" unicode="&#x10d;" horiz-adv-x="583" 
d="M500 417h-83q-10 83 -84 83q-34 0 -58.5 -24.5t-24.5 -58.5v-250q0 -34 24.5 -59t58.5 -25q74 0 84 84h83q-10 -167 -167 -167h-83q-68 0 -117.5 49t-49.5 118v250q0 68 49.5 117t117.5 49h83q158 0 167 -166zM458 833l-125 -166h-83l-125 166h83l84 -83l83 83h83z" />
    <glyph glyph-name="Dcaron" unicode="&#x10e;" horiz-adv-x="667" 
d="M83 0v750h334q68 0 117 -49.5t49 -117.5v-416q0 -68 -49 -117.5t-117 -49.5h-334zM250 83h83q35 0 59.5 25t24.5 59v416q0 35 -24.5 59.5t-59.5 24.5h-83v-584zM500 966l-125 -166h-83l-125 167h83l83 -84l84 83h83z" />
    <glyph glyph-name="dcaron" unicode="&#x10f;" horiz-adv-x="667" 
d="M583 0h-166v83q-10 -83 -84 -83h-83q-68 0 -117.5 49t-49.5 118v250q0 68 49.5 117t117.5 49h167v167h166v-750zM417 500h-84q-34 0 -58.5 -24.5t-24.5 -58.5v-250q0 -34 24.5 -59t58.5 -25q35 0 59.5 25t24.5 59v333zM633 941h167v-166q0 -148 -167 -167v83q81 3 84 84
h-84v166z" />
    <glyph glyph-name="Dcroat" unicode="&#x110;" horiz-adv-x="667" 
d="M83 0v333h-83v84h83v333h334q68 0 117 -49.5t49 -117.5v-416q0 -68 -49 -117.5t-117 -49.5h-334zM250 83h83q35 0 59.5 25t24.5 59v416q0 35 -24.5 59.5t-59.5 24.5h-83v-250h83v-84h-83v-250z" />
    <glyph glyph-name="dcroat" unicode="&#x111;" horiz-adv-x="667" 
d="M583 0h-166v83q-10 -83 -84 -83h-83q-68 0 -117.5 49t-49.5 118v250q0 68 49.5 117t117.5 49h167v84h-84v83h84v83h166v-83h84v-83h-84v-667zM417 500h-84q-34 0 -58.5 -24.5t-24.5 -58.5v-250q0 -34 24.5 -59t58.5 -25q35 0 59.5 25t24.5 59v333z" />
    <glyph glyph-name="Emacron" unicode="&#x112;" horiz-adv-x="583" 
d="M83 0v750h417v-83h-250v-250h167v-84h-167v-250h250v-83h-417zM125 800v83h333v-83h-333z" />
    <glyph glyph-name="emacron" unicode="&#x113;" horiz-adv-x="667" 
d="M583 250h-333v-83q0 -34 24.5 -59t58.5 -25h84q83 0 83 84h83q-19 -167 -166 -167h-167q-68 0 -117.5 49t-49.5 118v250q0 68 49.5 117t117.5 49h167q68 0 117 -49t49 -117v-167zM250 333h167v84q0 34 -24.5 58.5t-59.5 24.5q-34 0 -58.5 -24.5t-24.5 -58.5v-84zM167 633
v84h333v-84h-333z" />
    <glyph glyph-name="Ebreve" unicode="&#x114;" horiz-adv-x="583" 
d="M83 0v750h417v-83h-250v-250h167v-84h-167v-250h250v-83h-417zM375 967h83q-19 -167 -166 -167t-167 167h83q10 -84 84 -84q73 0 83 84z" />
    <glyph glyph-name="ebreve" unicode="&#x115;" horiz-adv-x="667" 
d="M583 250h-333v-83q0 -34 24.5 -59t58.5 -25h84q83 0 83 84h83q-19 -167 -166 -167h-167q-68 0 -117.5 49t-49.5 118v250q0 68 49.5 117t117.5 49h167q68 0 117 -49t49 -117v-167zM250 333h167v84q0 34 -24.5 58.5t-59.5 24.5q-34 0 -58.5 -24.5t-24.5 -58.5v-84zM417 800
h83q-19 -167 -167 -167q-146 0 -166 167h83q10 -83 83 -83q74 0 84 83z" />
    <glyph glyph-name="Edotaccent" unicode="&#x116;" horiz-adv-x="583" 
d="M83 0v750h417v-83h-250v-250h167v-84h-167v-250h250v-83h-417zM252 800v103h99v-103h-99z" />
    <glyph glyph-name="edotaccent" unicode="&#x117;" horiz-adv-x="667" 
d="M583 250h-333v-83q0 -34 24.5 -59t58.5 -25h84q83 0 83 84h83q-19 -167 -166 -167h-167q-68 0 -117.5 49t-49.5 118v250q0 68 49.5 117t117.5 49h167q68 0 117 -49t49 -117v-167zM250 333h167v84q0 34 -24.5 58.5t-59.5 24.5q-34 0 -58.5 -24.5t-24.5 -58.5v-84zM294 633
v103h99v-103h-99z" />
    <glyph glyph-name="Eogonek" unicode="&#x118;" horiz-adv-x="583" 
d="M83 0v750h417v-83h-250v-250h167v-84h-167v-250h250v-83h-417zM372 -83h-42q-20 0 -30.5 -10.5t-10.5 -31.5t10 -31.5t30 -10.5q6 0 17 3l32 -77q-34 -9 -53 -9q-42 0 -81 35.5t-39 89.5q0 51 37 88t88 37h42v-83z" />
    <glyph glyph-name="eogonek" unicode="&#x119;" horiz-adv-x="667" 
d="M583 250h-333v-83q0 -34 24.5 -59t58.5 -25h84q83 0 83 84h83q-19 -167 -166 -167h-167q-68 0 -117.5 49t-49.5 118v250q0 68 49.5 117t117.5 49h167q68 0 117 -49t49 -117v-167zM250 333h167v84q0 34 -24.5 58.5t-59.5 24.5q-34 0 -58.5 -24.5t-24.5 -58.5v-84zM402 -80
h-42q-21 0 -31.5 -10t-10.5 -31t10 -31.5t30 -10.5q7 0 18 3l32 -77q-34 -9 -53 -9q-42 0 -81 35.5t-39 89.5q0 51 37 88t88 37h42v-84z" />
    <glyph glyph-name="Ecaron" unicode="&#x11a;" horiz-adv-x="583" 
d="M83 0v750h417v-83h-250v-250h167v-84h-167v-250h250v-83h-417zM458 966l-125 -166h-83l-125 167h83l84 -84l83 83h83z" />
    <glyph glyph-name="ecaron" unicode="&#x11b;" horiz-adv-x="667" 
d="M583 250h-333v-83q0 -34 24.5 -59t58.5 -25h84q83 0 83 84h83q-19 -167 -166 -167h-167q-68 0 -117.5 49t-49.5 118v250q0 68 49.5 117t117.5 49h167q68 0 117 -49t49 -117v-167zM250 333h167v84q0 34 -24.5 58.5t-59.5 24.5q-34 0 -58.5 -24.5t-24.5 -58.5v-84zM500 800
l-125 -167h-83l-125 167h83l83 -83l84 83h83z" />
    <glyph glyph-name="Gcircumflex" unicode="&#x11c;" horiz-adv-x="667" 
d="M333 417h250v-250q0 -84 -53 -125.5t-113 -41.5h-167q-68 0 -117.5 49t-49.5 118v416q0 68 48.5 117.5t118.5 49.5h167q157 0 166 -167h-83q-10 84 -83 84h-84q-34 0 -58.5 -24.5t-24.5 -59.5v-416q0 -35 24.5 -59.5t58.5 -24.5q80 4 84 84v166h-84v84zM167 800l125 167
h83l125 -167h-83l-84 83l-83 -83h-83z" />
    <glyph glyph-name="gcircumflex" unicode="&#x11d;" horiz-adv-x="667" 
d="M583 583v-666q0 -68 -49 -117.5t-117 -49.5h-167q-147 0 -167 167h84q6 -84 83 -84h83q35 0 59.5 24.5t24.5 59.5v166q-10 -83 -84 -83h-83q-68 0 -117.5 49t-49.5 118v250q0 68 49.5 117t117.5 49h333zM417 500h-84q-34 0 -58.5 -24.5t-24.5 -58.5v-250q0 -34 24.5 -59
t58.5 -25q35 0 59.5 25t24.5 59v333zM167 633l125 167h83l125 -167h-83l-84 84l-83 -84h-83z" />
    <glyph glyph-name="Gbreve" unicode="&#x11e;" horiz-adv-x="667" 
d="M333 417h250v-250q0 -84 -53 -125.5t-113 -41.5h-167q-68 0 -117.5 49t-49.5 118v416q0 68 48.5 117.5t118.5 49.5h167q157 0 166 -167h-83q-10 84 -83 84h-84q-34 0 -58.5 -24.5t-24.5 -59.5v-416q0 -35 24.5 -59.5t58.5 -24.5q80 4 84 84v166h-84v84zM417 1000h83
q-19 -167 -167 -167q-146 0 -166 167h83q10 -83 83 -83q74 0 84 83z" />
    <glyph glyph-name="gbreve" unicode="&#x11f;" horiz-adv-x="667" 
d="M583 583v-666q0 -68 -49 -117.5t-117 -49.5h-167q-147 0 -167 167h84q6 -84 83 -84h83q35 0 59.5 24.5t24.5 59.5v166q-10 -83 -84 -83h-83q-68 0 -117.5 49t-49.5 118v250q0 68 49.5 117t117.5 49h333zM417 500h-84q-34 0 -58.5 -24.5t-24.5 -58.5v-250q0 -34 24.5 -59
t58.5 -25q35 0 59.5 25t24.5 59v333zM417 833h83q-19 -166 -167 -166q-146 0 -166 166h83q10 -83 83 -83q74 0 84 83z" />
    <glyph glyph-name="Gdotaccent" unicode="&#x120;" horiz-adv-x="667" 
d="M333 417h250v-250q0 -84 -53 -125.5t-113 -41.5h-167q-68 0 -117.5 49t-49.5 118v416q0 68 48.5 117.5t118.5 49.5h167q157 0 166 -167h-83q-10 84 -83 84h-84q-34 0 -58.5 -24.5t-24.5 -59.5v-416q0 -35 24.5 -59.5t58.5 -24.5q80 4 84 84v166h-84v84zM294 800v103h99
v-103h-99z" />
    <glyph glyph-name="gdotaccent" unicode="&#x121;" horiz-adv-x="667" 
d="M583 583v-666q0 -68 -49 -117.5t-117 -49.5h-167q-147 0 -167 167h84q6 -84 83 -84h83q35 0 59.5 24.5t24.5 59.5v166q-10 -83 -84 -83h-83q-68 0 -117.5 49t-49.5 118v250q0 68 49.5 117t117.5 49h333zM417 500h-84q-34 0 -58.5 -24.5t-24.5 -58.5v-250q0 -34 24.5 -59
t58.5 -25q35 0 59.5 25t24.5 59v333zM294 633v103h99v-103h-99z" />
    <glyph glyph-name="Gcommaaccent" unicode="&#x122;" horiz-adv-x="667" 
d="M333 417h250v-250q0 -84 -53 -125.5t-113 -41.5h-167q-68 0 -117.5 49t-49.5 118v416q0 68 48.5 117.5t118.5 49.5h167q157 0 166 -167h-83q-10 84 -83 84h-84q-34 0 -58.5 -24.5t-24.5 -59.5v-416q0 -35 24.5 -59.5t58.5 -24.5q80 4 84 84v166h-84v84zM413 -116h99v-100
q0 -89 -99 -100v49q48 2 49 51h-49v100z" />
    <glyph glyph-name="gcommaaccent" unicode="&#x123;" horiz-adv-x="667" 
d="M583 583v-666q0 -68 -49 -117.5t-117 -49.5h-167q-147 0 -167 167h84q6 -84 83 -84h83q35 0 59.5 24.5t24.5 59.5v166q-10 -83 -84 -83h-83q-68 0 -117.5 49t-49.5 118v250q0 68 49.5 117t117.5 49h333zM417 500h-84q-34 0 -58.5 -24.5t-24.5 -58.5v-250q0 -34 24.5 -59
t58.5 -25q35 0 59.5 25t24.5 59v333zM417 670h-167v167q0 148 167 167v-84q-81 -3 -84 -83h84v-167z" />
    <glyph glyph-name="Hcircumflex" unicode="&#x124;" horiz-adv-x="667" 
d="M83 0v750h167v-333h167v333h166v-750h-166v333h-167v-333h-167zM167 800l125 167h83l125 -167h-83l-84 83l-83 -83h-83z" />
    <glyph glyph-name="hcircumflex" unicode="&#x125;" horiz-adv-x="667" 
d="M83 0v750h167v-250q5 42 26 62.5t57 20.5h84q68 0 117 -49t49 -117v-417h-166v417q0 34 -24.5 58.5t-59.5 24.5q-34 0 -58.5 -24.5t-24.5 -58.5v-417h-167zM125 800l125 167h83l125 -167h-83l-83 83l-84 -83h-83z" />
    <glyph glyph-name="Hbar" unicode="&#x126;" horiz-adv-x="667" 
d="M83 0v750h167v-333h167v333h166v-750h-166v333h-167v-333h-167zM167 500v83h333v-83h-333z" />
    <glyph glyph-name="hbar" unicode="&#x127;" horiz-adv-x="667" 
d="M83 0v750h167v-250q5 42 26 62.5t57 20.5h84q68 0 117 -49t49 -117v-417h-166v417q0 34 -24.5 58.5t-59.5 24.5q-34 0 -58.5 -24.5t-24.5 -58.5v-417h-167zM40 607v84h333v-84h-333z" />
    <glyph glyph-name="Itilde" unicode="&#x128;" horiz-adv-x="500" 
d="M167 0v750h166v-750h-166zM83 800h-83q19 167 166 167q48 0 104 -49l11 -10q28 -25 52 -25q73 0 83 84h84q-20 -167 -167 -167q-48 0 -104 49l-11 10q-28 24 -52 24q-73 0 -83 -83z" />
    <glyph glyph-name="itilde" unicode="&#x129;" horiz-adv-x="333" 
d="M83 0v583h167v-583h-167zM0 633h-83q19 167 166 167q48 0 104 -49l11 -10q28 -24 52 -24q73 0 83 83h84q-20 -167 -167 -167q-48 0 -104 49l-11 10q-28 25 -52 25q-73 0 -83 -84z" />
    <glyph glyph-name="Imacron" unicode="&#x12a;" horiz-adv-x="500" 
d="M167 0v750h166v-750h-166zM83 800v83h333v-83h-333z" />
    <glyph glyph-name="imacron" unicode="&#x12b;" horiz-adv-x="333" 
d="M83 0v583h167v-583h-167zM0 633v84h333v-84h-333z" />
    <glyph glyph-name="Iogonek" unicode="&#x12e;" horiz-adv-x="500" 
d="M167 0v750h166v-750h-166zM330 -83h-42q-20 0 -30.5 -10.5t-10.5 -31.5t10 -31.5t30 -10.5q6 0 17 3l32 -77q-34 -9 -53 -9q-42 0 -81 35.5t-39 89.5q0 51 37 88t88 37h42v-83z" />
    <glyph glyph-name="iogonek" unicode="&#x12f;" horiz-adv-x="333" 
d="M83 667v83h167v-83h-167zM83 0v583h167v-583h-167zM247 -83h-42q-20 0 -30.5 -10.5t-10.5 -31.5t10 -31.5t30 -10.5q6 0 17 3l32 -77q-34 -9 -53 -9q-42 0 -81 35.5t-39 89.5q0 51 37 88t88 37h42v-83z" />
    <glyph glyph-name="Idotaccent" unicode="&#x130;" horiz-adv-x="333" 
d="M83 833v84h167v-84h-167zM83 0v750h167v-750h-167z" />
    <glyph glyph-name="IJ" unicode="&#x132;" horiz-adv-x="1083" 
d="M167 0v750h166v-750h-166zM1000 750v-583q0 -84 -41.5 -125.5t-125.5 -41.5h-166q-84 0 -125.5 41.5t-41.5 125.5v166h167v-166q0 -35 24.5 -59.5t58.5 -24.5t58.5 24.5t24.5 59.5v583h167z" />
    <glyph glyph-name="ij" unicode="&#x133;" horiz-adv-x="833" 
d="M83 667v83h167v-83h-167zM83 0v583h167v-583h-167zM583 667v83h167v-83h-167zM583 583h167v-583q0 -68 -49 -117.5t-118 -49.5h-83q-147 0 -167 167h84q7 -83 83 -83q34 0 58.5 24.5t24.5 58.5v583z" />
    <glyph glyph-name="Jcircumflex" unicode="&#x134;" horiz-adv-x="583" 
d="M500 750v-583q0 -84 -41.5 -125.5t-125.5 -41.5h-166q-84 0 -125.5 41.5t-41.5 125.5v166h167v-166q0 -35 24.5 -59.5t58.5 -24.5t58.5 24.5t24.5 59.5v583h167zM231 800l125 167h83l125 -167h-83l-83 83l-84 -83h-83z" />
    <glyph glyph-name="jcircumflex" unicode="&#x135;" horiz-adv-x="500" 
d="M250 667v83h167v-83h-167zM250 583h167v-583q0 -68 -49.5 -117.5t-117.5 -49.5h-83q-148 0 -167 167h83q8 -83 84 -83q34 0 58.5 24.5t24.5 58.5v583zM163 618l125 167h83l125 -167h-83l-83 83l-84 -83h-83z" />
    <glyph glyph-name="Kcommaaccent" unicode="&#x136;" horiz-adv-x="750" 
d="M83 0v750h167v-306l270 306h147l-334 -375l334 -375h-167l-250 292v-292h-167zM405 -116h100v-100q0 -89 -100 -100v49q49 2 50 51h-50v100z" />
    <glyph glyph-name="kcommaaccent" unicode="&#x137;" horiz-adv-x="667" 
d="M83 0v750h167v-375l250 208h167l-349 -291l349 -292h-167l-250 208v-208h-167zM405 -116h100v-100q0 -89 -100 -100v49q49 2 50 51h-50v100z" />
    <glyph glyph-name="kgreenlandic" unicode="&#x138;" 
d="M84 0v584h166v-209l250 209h167l-349 -293l349 -291h-167l-250 209v-209h-166z" />
    <glyph glyph-name="Lacute" unicode="&#x139;" horiz-adv-x="584" 
d="M84 0v750h166v-666h250v-84h-416zM84 800l83 167h83l-83 -167h-83z" />
    <glyph glyph-name="lacute" unicode="&#x13a;" horiz-adv-x="334" 
d="M84 0v750h166v-750h-166zM83 800l83 167h84l-84 -167h-83z" />
    <glyph glyph-name="Lcommaaccent" unicode="&#x13b;" horiz-adv-x="500" 
d="M84 0v750h166v-666h250v-84h-416zM329 -116h100v-100q0 -89 -100 -100v49q48 2 50 51h-50v100z" />
    <glyph glyph-name="lcommaaccent" unicode="&#x13c;" horiz-adv-x="334" 
d="M84 0v750h166v-750h-166zM197 -116h99v-100q0 -89 -99 -100v49q48 2 49 51h-49v100z" />
    <glyph glyph-name="Lcaron" unicode="&#x13d;" horiz-adv-x="584" 
d="M84 0v750h166v-666h250v-84h-416zM334 750h166v-166q0 -148 -166 -167v83q80 3 83 84h-83v166z" />
    <glyph glyph-name="lcaron" unicode="&#x13e;" horiz-adv-x="334" 
d="M84 0v750h166v-750h-166zM300 750h166v-166q0 -148 -166 -167v83q80 3 83 84h-83v166z" />
    <glyph glyph-name="Ldotaccent" unicode="&#x13f;" horiz-adv-x="584" 
d="M84 0v750h166v-666h250v-84h-416zM397 369v103h98v-103h-98z" />
    <glyph glyph-name="ldotaccent" unicode="&#x140;" horiz-adv-x="334" 
d="M84 0v750h166v-750h-166zM310 324v103h98v-103h-98z" />
    <glyph glyph-name="Lslash" unicode="&#x141;" horiz-adv-x="584" 
d="M84 0v334l-84 -43v84l84 41v334h166v-250l84 41v-82l-84 -43v-332h250v-84h-416z" />
    <glyph glyph-name="lslash" unicode="&#x142;" horiz-adv-x="334" 
d="M84 0v334l-84 -43v84l84 41v334h166v-250l84 41v-82l-84 -43v-416h-166z" />
    <glyph glyph-name="Nacute" unicode="&#x143;" horiz-adv-x="750" 
d="M84 0v750h37l463 -416v416h83v-750h-38l-462 416v-416h-83zM291 800l84 167h84l-84 -167h-84z" />
    <glyph glyph-name="nacute" unicode="&#x144;" 
d="M84 0v584h166v-84q5 42 26 63t58 21h83q69 0 118 -49.5t49 -118.5v-416h-167v416q0 35 -24.5 59.5t-58.5 24.5q-35 0 -59.5 -24.5t-24.5 -59.5v-416h-166zM250 633l84 167h83l-83 -167h-84z" />
    <glyph glyph-name="Ncommaaccent" unicode="&#x145;" horiz-adv-x="750" 
d="M84 0v750h37l463 -416v416h83v-750h-38l-462 416v-416h-83zM503 -116h100v-100q0 -89 -100 -100v49q48 2 50 51h-50v100z" />
    <glyph glyph-name="ncommaaccent" unicode="&#x146;" 
d="M84 0v584h166v-84q5 42 26 63t58 21h83q69 0 118 -49.5t49 -118.5v-416h-167v416q0 35 -24.5 59.5t-58.5 24.5q-35 0 -59.5 -24.5t-24.5 -59.5v-416h-166zM420 -116h99v-100q0 -89 -99 -100v49q48 2 49 51h-49v100z" />
    <glyph glyph-name="Ncaron" unicode="&#x147;" horiz-adv-x="750" 
d="M84 0v750h37l463 -416v416h83v-750h-38l-462 416v-416h-83zM541 966l-125 -166h-82l-125 167h82l84 -84l84 83h82z" />
    <glyph glyph-name="ncaron" unicode="&#x148;" 
d="M84 0v584h166v-84q5 42 26 63t58 21h83q69 0 118 -49.5t49 -118.5v-416h-167v416q0 35 -24.5 59.5t-58.5 24.5q-35 0 -59.5 -24.5t-24.5 -59.5v-416h-166zM500 800l-125 -167h-83l-125 167h83l84 -83l83 83h83z" />
    <glyph glyph-name="Omacron" unicode="&#x14c;" 
d="M250 750h167q69 0 118 -49t49 -117v-418q0 -67 -49 -116.5t-118 -49.5h-167q-68 0 -117 49t-49 117v418q0 68 49 117t117 49zM250 584v-418q0 -33 24.5 -57.5t59.5 -24.5q34 0 58.5 24.5t24.5 57.5v418q0 34 -24.5 58t-58.5 24q-35 0 -59.5 -24t-24.5 -58zM167 800v83
h333v-83h-333z" />
    <glyph glyph-name="omacron" unicode="&#x14d;" 
d="M250 584h167q69 0 118 -49.5t49 -118.5v-250q0 -67 -49 -116.5t-118 -49.5h-167q-68 0 -117 49t-49 117v250q0 70 49 119t117 49zM250 416v-250q0 -33 24.5 -57.5t59.5 -24.5q34 0 58.5 24.5t24.5 57.5v250q0 35 -24.5 59.5t-58.5 24.5q-35 0 -59.5 -24.5t-24.5 -59.5z
M167 633v84h333v-84h-333z" />
    <glyph glyph-name="Obreve" unicode="&#x14e;" 
d="M250 750h167q69 0 118 -49t49 -117v-418q0 -67 -49 -116.5t-118 -49.5h-167q-68 0 -117 49t-49 117v418q0 68 49 117t117 49zM250 584v-418q0 -33 24.5 -57.5t59.5 -24.5q34 0 58.5 24.5t24.5 57.5v418q0 34 -24.5 58t-58.5 24q-35 0 -59.5 -24t-24.5 -58zM417 967h83
q-19 -167 -166 -167t-167 167h83q10 -84 84 -84q73 0 83 84z" />
    <glyph glyph-name="obreve" unicode="&#x14f;" 
d="M250 584h167q69 0 118 -49.5t49 -118.5v-250q0 -67 -49 -116.5t-118 -49.5h-167q-68 0 -117 49t-49 117v250q0 70 49 119t117 49zM250 416v-250q0 -33 24.5 -57.5t59.5 -24.5q34 0 58.5 24.5t24.5 57.5v250q0 35 -24.5 59.5t-58.5 24.5q-35 0 -59.5 -24.5t-24.5 -59.5z
M417 800h83q-19 -167 -166 -167t-167 167h83q10 -83 84 -83q73 0 83 83z" />
    <glyph glyph-name="Ohungarumlaut" unicode="&#x150;" 
d="M250 750h167q69 0 118 -49t49 -117v-418q0 -67 -49 -116.5t-118 -49.5h-167q-68 0 -117 49t-49 117v418q0 68 49 117t117 49zM250 584v-418q0 -33 24.5 -57.5t59.5 -24.5q34 0 58.5 24.5t24.5 57.5v418q0 34 -24.5 58t-58.5 24q-35 0 -59.5 -24t-24.5 -58zM209 800
l82 167h84l-84 -167h-82zM375 800l84 167h82l-82 -167h-84z" />
    <glyph glyph-name="ohungarumlaut" unicode="&#x151;" 
d="M250 584h167q69 0 118 -49.5t49 -118.5v-250q0 -67 -49 -116.5t-118 -49.5h-167q-68 0 -117 49t-49 117v250q0 70 49 119t117 49zM250 416v-250q0 -33 24.5 -57.5t59.5 -24.5q34 0 58.5 24.5t24.5 57.5v250q0 35 -24.5 59.5t-58.5 24.5q-35 0 -59.5 -24.5t-24.5 -59.5z
M209 633l82 167h84l-84 -167h-82zM375 633l84 167h82l-82 -167h-84z" />
    <glyph glyph-name="Racute" unicode="&#x154;" 
d="M84 0v750h333q69 0 118 -49t49 -117v-46q0 -56 -38.5 -107.5t-128.5 -51.5h83q34 0 59 -24.5t25 -59.5v-295h-167v250q0 34 -24.5 59t-58.5 25h-84v-334h-166zM250 416h84q34 0 58.5 25t24.5 59v84q0 34 -24.5 58t-58.5 24h-84v-250zM250 800l84 167h83l-83 -167h-84z
" />
    <glyph glyph-name="racute" unicode="&#x155;" horiz-adv-x="500" 
d="M250 0h-166v584h166v-168q10 84 51.5 126t115.5 42h83v-168h-166q-35 0 -59.5 -24t-24.5 -58v-334zM208 633l83 167h84l-84 -167h-83z" />
    <glyph glyph-name="Rcommaaccent" unicode="&#x156;" 
d="M84 0v750h333q69 0 118 -49t49 -117v-46q0 -56 -38.5 -107.5t-128.5 -51.5h83q34 0 59 -24.5t25 -59.5v-295h-167v250q0 34 -24.5 59t-58.5 25h-84v-334h-166zM250 416h84q34 0 58.5 25t24.5 59v84q0 34 -24.5 58t-58.5 24h-84v-250zM413 -116h99v-100q0 -89 -99 -100v49
q48 2 50 51h-50v100z" />
    <glyph glyph-name="rcommaaccent" unicode="&#x157;" horiz-adv-x="500" 
d="M250 0h-166v584h166v-168q10 84 51.5 126t115.5 42h83v-168h-166q-35 0 -59.5 -24t-24.5 -58v-334zM197 -116h99v-100q0 -89 -99 -100v49q48 2 49 51h-49v100z" />
    <glyph glyph-name="Rcaron" unicode="&#x158;" 
d="M84 0v750h333q69 0 118 -49t49 -117v-46q0 -56 -38.5 -107.5t-128.5 -51.5h83q34 0 59 -24.5t25 -59.5v-295h-167v250q0 34 -24.5 59t-58.5 25h-84v-334h-166zM250 416h84q34 0 58.5 25t24.5 59v84q0 34 -24.5 58t-58.5 24h-84v-250zM458 966l-125 -166h-83l-125 167h83
l83 -84l84 83h83z" />
    <glyph glyph-name="rcaron" unicode="&#x159;" horiz-adv-x="500" 
d="M250 0h-166v584h166v-168q10 84 51.5 126t115.5 42h83v-168h-166q-35 0 -59.5 -24t-24.5 -58v-334zM458 800l-125 -167h-83l-125 167h83l83 -83l84 83h83z" />
    <glyph glyph-name="Sacute" unicode="&#x15a;" horiz-adv-x="584" 
d="M500 584h-83q-11 83 -79 83q-43 0 -65.5 -21t-22.5 -63q0 -31 25 -58l176 -199q49 -55 49 -117v-43q0 -67 -49 -116.5t-117 -49.5h-84q-83 0 -124.5 42t-41.5 124h83q-1 -8 -1 -13q0 -34 26.5 -51.5t57.5 -17.5q45 0 64.5 21.5t19.5 62.5q0 31 -25 58l-177 198
q-48 54 -48 117v43q0 68 48.5 117t117.5 49h84q156 0 166 -166zM208 800l83 167h84l-84 -167h-83z" />
    <glyph glyph-name="sacute" unicode="&#x15b;" horiz-adv-x="584" 
d="M500 416h-83q-11 84 -79 84q-44 0 -66 -17.5t-22 -51.5q0 -36 121 -101q99 -53 114 -88t15 -74q0 -70 -49 -119t-117 -49h-84q-166 0 -166 166h83q10 -83 78 -83q44 0 66.5 17.5t22.5 52.5t-121 101q-99 52 -114 87.5t-15 74.5q0 70 49 119t117 49h84q156 0 166 -168z
M208 633l83 167h84l-84 -167h-83z" />
    <glyph glyph-name="Scircumflex" unicode="&#x15c;" horiz-adv-x="584" 
d="M500 584h-83q-11 83 -79 83q-43 0 -65.5 -21t-22.5 -63q0 -31 25 -58l176 -199q49 -55 49 -117v-43q0 -67 -49 -116.5t-117 -49.5h-84q-83 0 -124.5 42t-41.5 124h83q-1 -8 -1 -13q0 -34 26.5 -51.5t57.5 -17.5q45 0 64.5 21.5t19.5 62.5q0 31 -25 58l-177 198
q-48 54 -48 117v43q0 68 48.5 117t117.5 49h84q156 0 166 -166zM125 800l125 167h83l125 -167h-83l-84 83l-83 -83h-83z" />
    <glyph glyph-name="scircumflex" unicode="&#x15d;" horiz-adv-x="584" 
d="M500 416h-83q-11 84 -79 84q-44 0 -66 -17.5t-22 -51.5q0 -36 121 -101q99 -53 114 -88t15 -74q0 -70 -49 -119t-117 -49h-84q-166 0 -166 166h83q10 -83 78 -83q44 0 66.5 17.5t22.5 52.5t-121 101q-99 52 -114 87.5t-15 74.5q0 70 49 119t117 49h84q156 0 166 -168z
M125 633l125 167h83l125 -167h-83l-84 84l-83 -84h-83z" />
    <glyph glyph-name="Scedilla" unicode="&#x15e;" horiz-adv-x="584" 
d="M250 0q-166 14 -166 166h83q-1 -8 -1 -13q0 -34 29.5 -51.5t52.5 -17.5q35 0 60.5 24t25.5 60q0 31 -25 58l-177 198q-48 54 -48 117v43q0 68 48.5 117t117.5 49h84q156 0 166 -166h-83q-11 83 -79 83q-43 0 -65.5 -21t-22.5 -63q0 -31 25 -58l176 -199q49 -55 49 -117
v-43q0 -67 -49 -116.5t-117 -49.5h-42q63 -7 94 -38.5t31 -86.5q0 -54 -39 -89.5t-81 -35.5q-18 0 -53 9l32 77q11 -2 17 -2q21 0 31 10t10 31t-10.5 31t-31.5 10h-42v84z" />
    <glyph glyph-name="scedilla" unicode="&#x15f;" horiz-adv-x="584" 
d="M250 0q-166 14 -166 166h83q-1 -8 -1 -14q0 -33 29.5 -50.5t52.5 -17.5q41 0 63.5 28t22.5 48q0 41 -118 97q-81 40 -96.5 58t-25.5 44.5t-10 56.5q0 70 49 119t117 49h84q156 0 166 -168h-83q-11 84 -79 84q-47 0 -67.5 -28.5t-20.5 -49.5q0 -39 118 -96
q81 -39 96.5 -57.5t25.5 -45t10 -55.5q0 -70 -49 -119t-117 -49h-42q63 -7 94 -38.5t31 -86.5q0 -54 -39 -89.5t-81 -35.5q-18 0 -53 9l32 77q11 -2 17 -2q21 0 31 10t10 31t-10.5 31t-31.5 10h-42v84z" />
    <glyph glyph-name="Scaron" unicode="&#x160;" horiz-adv-x="584" 
d="M500 584h-83q-11 83 -79 83q-43 0 -65.5 -21t-22.5 -63q0 -31 25 -58l176 -199q49 -55 49 -117v-43q0 -67 -49 -116.5t-117 -49.5h-84q-83 0 -124.5 42t-41.5 124h83q-1 -8 -1 -13q0 -34 26.5 -51.5t57.5 -17.5q45 0 64.5 21.5t19.5 62.5q0 31 -25 58l-177 198
q-48 54 -48 117v43q0 68 48.5 117t117.5 49h84q156 0 166 -166zM458 1000l-125 -166h-83l-125 166h83l83 -83l84 83h83z" />
    <glyph glyph-name="scaron" unicode="&#x161;" horiz-adv-x="584" 
d="M500 416h-83q-11 84 -79 84q-44 0 -66 -17.5t-22 -51.5q0 -36 121 -101q99 -53 114 -88t15 -74q0 -70 -49 -119t-117 -49h-84q-166 0 -166 166h83q10 -83 78 -83q44 0 66.5 17.5t22.5 52.5t-121 101q-99 52 -114 87.5t-15 74.5q0 70 49 119t117 49h84q156 0 166 -168z
M458 833l-125 -167h-83l-125 168h83l83 -84l84 83h83z" />
    <glyph glyph-name="Tcedilla" unicode="&#x162;" horiz-adv-x="500" 
d="M166 0v666h-166v84h500v-84h-166v-666h-168zM170 -84v84h41q52 0 88.5 -37t36.5 -88q0 -54 -39 -89.5t-81 -35.5q-18 0 -52 9l31 77q12 -2 18 -2q20 0 30 10t10 31t-10.5 31t-31.5 10h-41z" />
    <glyph glyph-name="tcedilla" unicode="&#x163;" horiz-adv-x="500" 
d="M167 750h167v-166h83v-84h-83v-334q0 -40 26.5 -61t48.5 -21h8v-84h-83q-69 0 -118 49t-49 117v334h-83v84h83v166zM258 -64v84h42q51 0 88 -37t37 -88q0 -54 -39 -89.5t-81 -35.5q-19 0 -53 9l32 77q11 -2 17 -2q20 0 30 10.5t10 30.5q0 21 -10 31t-31 10h-42z" />
    <glyph glyph-name="Tcaron" unicode="&#x164;" horiz-adv-x="500" 
d="M166 0v666h-166v84h500v-84h-166v-666h-168zM416 966l-125 -166h-82l-125 167h82l84 -84l84 83h82z" />
    <glyph glyph-name="tcaron" unicode="&#x165;" horiz-adv-x="500" 
d="M167 750h167v-166h83v-84h-83v-334q0 -40 26.5 -61t48.5 -21h8v-84h-83q-69 0 -118 49t-49 117v334h-83v84h83v166zM417 916h167v-166q0 -148 -167 -166v82q81 4 83 84h-83v166z" />
    <glyph glyph-name="Tbar" unicode="&#x166;" horiz-adv-x="500" 
d="M166 0v666h-166v84h500v-84h-166v-666h-168zM84 334v83h332v-83h-332z" />
    <glyph glyph-name="tbar" unicode="&#x167;" horiz-adv-x="500" 
d="M167 750h167v-166h83v-84h-83v-334q0 -40 26.5 -61t48.5 -21h8v-84h-83q-69 0 -118 49t-49 117v334h-83v84h83v166zM84 334v83h332v-83h-332z" />
    <glyph glyph-name="Utilde" unicode="&#x168;" 
d="M417 750h167v-584q0 -67 -49 -116.5t-118 -49.5h-167q-68 0 -117 49t-49 117v584h166v-584q0 -33 24.5 -57.5t59.5 -24.5q34 0 58.5 24.5t24.5 57.5v584zM167 800h-83q19 167 166 167q48 0 104 -49l11 -10q28 -25 52 -25q73 0 83 84h84q-20 -167 -167 -167q-48 0 -104 49
l-11 10q-28 24 -52 24q-73 0 -83 -83z" />
    <glyph glyph-name="utilde" unicode="&#x169;" 
d="M584 584v-584h-167v84q-10 -84 -83 -84h-84q-68 0 -117 49t-49 117v418h166v-418q0 -33 24.5 -57.5t59.5 -24.5q34 0 58.5 24.5t24.5 57.5v418h167zM167 633h-83q19 167 166 167q48 0 104 -48l11 -11q28 -24 52 -24q73 0 83 83h84q-20 -167 -167 -167q-48 0 -104 49
l-11 11q-28 24 -52 24q-73 0 -83 -84z" />
    <glyph glyph-name="Umacron" unicode="&#x16a;" 
d="M417 750h167v-584q0 -67 -49 -116.5t-118 -49.5h-167q-68 0 -117 49t-49 117v584h166v-584q0 -33 24.5 -57.5t59.5 -24.5q34 0 58.5 24.5t24.5 57.5v584zM167 800v83h333v-83h-333z" />
    <glyph glyph-name="umacron" unicode="&#x16b;" 
d="M584 584v-584h-167v84q-10 -84 -83 -84h-84q-68 0 -117 49t-49 117v418h166v-418q0 -33 24.5 -57.5t59.5 -24.5q34 0 58.5 24.5t24.5 57.5v418h167zM167 633v84h333v-84h-333z" />
    <glyph glyph-name="Ubreve" unicode="&#x16c;" 
d="M417 750h167v-584q0 -67 -49 -116.5t-118 -49.5h-167q-68 0 -117 49t-49 117v584h166v-584q0 -33 24.5 -57.5t59.5 -24.5q34 0 58.5 24.5t24.5 57.5v584zM417 967h83q-19 -167 -166 -167t-167 167h83q10 -84 84 -84q73 0 83 84z" />
    <glyph glyph-name="ubreve" unicode="&#x16d;" 
d="M584 584v-584h-167v84q-10 -84 -83 -84h-84q-68 0 -117 49t-49 117v418h166v-418q0 -33 24.5 -57.5t59.5 -24.5q34 0 58.5 24.5t24.5 57.5v418h167zM417 800h83q-19 -167 -166 -167t-167 167h83q10 -83 84 -83q73 0 83 83z" />
    <glyph glyph-name="Uring" unicode="&#x16e;" 
d="M417 750h167v-584q0 -67 -49 -116.5t-118 -49.5h-167q-68 0 -117 49t-49 117v584h166v-584q0 -33 24.5 -57.5t59.5 -24.5q34 0 58.5 24.5t24.5 57.5v584zM167 967q0 68 49 117t118 49q68 0 117 -49t49 -118q0 -67 -49 -116.5t-117 -49.5q-69 0 -118 49.5t-49 117.5z
M250 967q0 -34 24.5 -59t59.5 -25q34 0 58.5 25t24.5 59t-24.5 58.5t-58.5 24.5q-35 0 -59.5 -24.5t-24.5 -58.5z" />
    <glyph glyph-name="uring" unicode="&#x16f;" 
d="M584 584v-584h-167v84q-10 -84 -83 -84h-84q-68 0 -117 49t-49 117v418h166v-418q0 -33 24.5 -57.5t59.5 -24.5q34 0 58.5 24.5t24.5 57.5v418h167zM167 800q0 69 49 118t118 49q68 0 117 -49t49 -118q0 -68 -49 -117.5t-117 -49.5q-69 0 -118 49.5t-49 117.5zM250 800
q0 -34 24.5 -58.5t59.5 -24.5q34 0 58.5 24.5t24.5 58.5t-24.5 58.5t-58.5 24.5q-35 0 -59.5 -24.5t-24.5 -58.5z" />
    <glyph glyph-name="Uhungarumlaut" unicode="&#x170;" 
d="M417 750h167v-584q0 -67 -49 -116.5t-118 -49.5h-167q-68 0 -117 49t-49 117v584h166v-584q0 -33 24.5 -57.5t59.5 -24.5q34 0 58.5 24.5t24.5 57.5v584zM209 800l82 167h84l-84 -167h-82zM375 800l84 167h82l-82 -167h-84z" />
    <glyph glyph-name="uhungarumlaut" unicode="&#x171;" 
d="M584 584v-584h-167v84q-10 -84 -83 -84h-84q-68 0 -117 49t-49 117v418h166v-418q0 -33 24.5 -57.5t59.5 -24.5q34 0 58.5 24.5t24.5 57.5v418h167zM209 633l82 167h84l-84 -167h-82zM375 633l84 167h82l-82 -167h-84z" />
    <glyph glyph-name="Uogonek" unicode="&#x172;" 
d="M417 750h167v-584q0 -67 -49 -116.5t-118 -49.5h-167q-68 0 -117 49t-49 117v584h166v-584q0 -33 24.5 -57.5t59.5 -24.5q34 0 58.5 24.5t24.5 57.5v584zM414 -84h-42q-20 0 -31 -10t-11 -31t10.5 -31t30.5 -10q6 0 17 2l32 -77q-34 -9 -53 -9q-42 0 -81 35.5t-39 89.5
q0 51 37 88t88 37h42v-84z" />
    <glyph glyph-name="uogonek" unicode="&#x173;" 
d="M584 584v-584h-167v84q-10 -84 -83 -84h-84q-68 0 -117 49t-49 117v418h166v-418q0 -33 24.5 -57.5t59.5 -24.5q34 0 58.5 24.5t24.5 57.5v418h167zM578 -84h-42q-21 0 -31.5 -10t-10.5 -31t10 -31t30 -10q7 0 18 2l32 -77q-35 -9 -53 -9q-42 0 -81 35.5t-39 89.5
q0 51 37 88t88 37h42v-84z" />
    <glyph glyph-name="Wcircumflex" unicode="&#x174;" horiz-adv-x="1000" 
d="M84 750h166v-666h84q34 0 58.5 24.5t24.5 57.5v584h167v-666h83q34 0 58.5 24.5t24.5 57.5v584h167v-465q0 -117 -83.5 -201t-201.5 -84h-215v27q-48 -27 -118 -27h-215v750zM334 800l125 167h82l125 -167h-82l-84 83l-84 -83h-82z" />
    <glyph glyph-name="wcircumflex" unicode="&#x175;" horiz-adv-x="1000" 
d="M84 584h166v-500h84q34 0 58.5 24.5t24.5 57.5v418h167v-500h83q34 0 58.5 24.5t24.5 57.5v418h167v-299q0 -117 -83.5 -201t-201.5 -84h-215v27q-48 -27 -118 -27h-215v584zM334 633l125 167h82l125 -167h-82l-84 84l-84 -84h-82z" />
    <glyph glyph-name="Ycircumflex" unicode="&#x176;" 
d="M250 0v334q-166 19 -166 166v250h166v-250q0 -34 24.5 -59t59.5 -25q34 0 58.5 25t24.5 59v250h167v-250q0 -147 -167 -166v-334h-167zM167 800l125 167h83l125 -167h-83l-83 83l-84 -83h-83z" />
    <glyph glyph-name="ycircumflex" unicode="&#x177;" 
d="M167 -84q6 -82 83 -82h84q34 0 58.5 24t24.5 58v168q-10 -84 -83 -84h-84q-68 0 -117 49t-49 117v418h166v-418q0 -33 24.5 -57.5t59.5 -24.5q34 0 58.5 24.5t24.5 57.5v418h167v-668q0 -68 -49.5 -117t-117.5 -49h-167q-147 0 -166 166h83zM167 633l125 167h83l125 -167
h-83l-83 84l-84 -84h-83z" />
    <glyph glyph-name="Zacute" unicode="&#x179;" 
d="M84 750h500v-84l-334 -582h334v-84h-500v84l333 582h-333v84zM250 800l84 167h83l-83 -167h-84z" />
    <glyph glyph-name="zacute" unicode="&#x17a;" 
d="M84 584h500v-84l-334 -416h334v-84h-500v84l333 416h-333v84zM250 633l84 167h83l-83 -167h-84z" />
    <glyph glyph-name="Zdotaccent" unicode="&#x17b;" 
d="M84 750h500v-84l-334 -582h334v-84h-500v84l333 582h-333v84zM295 800v103h98v-103h-98z" />
    <glyph glyph-name="zdotaccent" unicode="&#x17c;" 
d="M84 584h500v-84l-334 -416h334v-84h-500v84l333 416h-333v84zM295 633v103h98v-103h-98z" />
    <glyph glyph-name="Zcaron" unicode="&#x17d;" 
d="M84 750h500v-84l-334 -582h334v-84h-500v84l333 582h-333v84zM500 1000l-125 -166h-83l-125 166h83l84 -83l83 83h83z" />
    <glyph glyph-name="zcaron" unicode="&#x17e;" 
d="M84 584h500v-84l-334 -416h334v-84h-500v84l333 416h-333v84zM500 833l-125 -167h-83l-125 168h83l84 -84l83 83h83z" />
    <glyph glyph-name="longs" unicode="&#x17f;" horiz-adv-x="500" 
d="M334 0h-167v500h-83v84h83v7q0 65 47 112t112 47h174v-84h-91q-31 0 -53 -22.5t-22 -52.5v-591z" />
    <glyph glyph-name="Scommaaccent" unicode="&#x218;" horiz-adv-x="584" 
d="M500 584h-83q-11 83 -79 83q-43 0 -65.5 -21t-22.5 -63q0 -31 25 -58l176 -199q49 -55 49 -117v-43q0 -67 -49 -116.5t-117 -49.5h-84q-83 0 -124.5 42t-41.5 124h83q-1 -8 -1 -13q0 -34 26.5 -51.5t57.5 -17.5q45 0 64.5 21.5t19.5 62.5q0 31 -25 58l-177 198
q-48 54 -48 117v43q0 68 48.5 117t117.5 49h84q156 0 166 -166zM368 -116h99v-100q0 -89 -99 -100v49q48 2 50 51h-50v100z" />
    <glyph glyph-name="scommaaccent" unicode="&#x219;" horiz-adv-x="584" 
d="M500 416h-83q-11 84 -79 84q-44 0 -66 -17.5t-22 -51.5q0 -36 121 -101q99 -53 114 -88t15 -74q0 -70 -49 -119t-117 -49h-84q-166 0 -166 166h83q10 -83 78 -83q44 0 66.5 17.5t22.5 52.5t-121 101q-99 52 -114 87.5t-15 74.5q0 70 49 119t117 49h84q156 0 166 -168z
M371 -116h99v-100q0 -89 -99 -100v49q48 2 49 51h-49v100z" />
    <glyph glyph-name="Tcommaaccent" unicode="&#x21a;" horiz-adv-x="500" 
d="M166 0v666h-166v84h500v-84h-166v-666h-168zM280 -116h100v-100q0 -89 -100 -100v49q49 2 50 51h-50v100z" />
    <glyph glyph-name="tcommaaccent" unicode="&#x21b;" horiz-adv-x="500" 
d="M167 750h167v-166h83v-84h-83v-334q0 -40 26.5 -61t48.5 -21h8v-84h-83q-69 0 -118 49t-49 117v334h-83v84h83v166zM329 -116h100v-100q0 -89 -100 -100v49q48 2 50 51h-50v100z" />
    <glyph glyph-name="clickdental" unicode="&#x1c0;" horiz-adv-x="416" 
d="M166 834h84v-918h-84v918z" />
    <glyph glyph-name="clicklateral" unicode="&#x1c1;" horiz-adv-x="833" 
d="M166 834h84v-918h-84v918zM583 834h83v-918h-83v918z" />
    <glyph glyph-name="clickretroflex" unicode="&#x1c3;" horiz-adv-x="500" 
d="M166 250v500h167v-500h-167zM166 0v166h167v-166h-167z" />
    <glyph glyph-name="DZcaron" unicode="&#x1c4;" horiz-adv-x="1336" 
d="M84 0v750h333q69 0 118 -49t49 -117v-418q0 -67 -49 -116.5t-118 -49.5h-333zM250 84h84q34 0 58.5 24.5t24.5 57.5v418q0 34 -24.5 58t-58.5 24h-84v-582zM750 750h500v-84l-334 -582h334v-84h-500v84l334 582h-334v84zM1166 967l-125 -167h-82l-125 167h82l84 -83
l84 83h82z" />
    <glyph glyph-name="Dzcaron" unicode="&#x1c5;" horiz-adv-x="1342" 
d="M84 0v750h333q69 0 118 -49t49 -117v-418q0 -67 -49 -116.5t-118 -49.5h-333zM250 84h84q34 0 58.5 24.5t24.5 57.5v418q0 34 -24.5 58t-58.5 24h-84v-582zM750 584h500v-84l-334 -416h334v-84h-500v84l334 416h-334v84zM1166 800l-125 -166h-82l-125 167h82l84 -84
l84 83h82z" />
    <glyph glyph-name="dzcaron" unicode="&#x1c6;" horiz-adv-x="1340" 
d="M584 0h-167v84q-10 -84 -83 -84h-84q-68 0 -117 49t-49 117v250q0 70 49 119t117 49h167v166h167v-750zM417 500h-83q-35 0 -59.5 -24.5t-24.5 -59.5v-250q0 -33 24.5 -57.5t59.5 -24.5q34 0 58.5 24.5t24.5 57.5v334zM750 584h500v-84l-334 -416h334v-84h-500v84
l334 416h-334v84zM1166 800l-125 -166h-82l-125 167h82l84 -84l84 83h82z" />
    <glyph glyph-name="LJ" unicode="&#x1c7;" horiz-adv-x="1166" 
d="M84 0v750h166v-666h250v-84h-416zM1084 750v-584q0 -82 -42 -124t-125 -42h-167q-83 0 -124.5 42t-41.5 124v168h166v-168q0 -34 25 -58t59 -24t58.5 24t24.5 58v584h167z" />
    <glyph glyph-name="Lj" unicode="&#x1c8;" horiz-adv-x="1102" 
d="M84 0v750h166v-666h250v-84h-416zM834 666v84h166v-84h-166zM834 584h166v-584q0 -68 -49 -117t-117 -49h-84q-147 0 -166 166h83q8 -84 83 -84q34 0 59 25t25 59v584z" />
    <glyph glyph-name="lj" unicode="&#x1c9;" horiz-adv-x="857" 
d="M84 0v750h166v-750h-166zM584 666v84h166v-84h-166zM584 584h166v-584q0 -68 -49 -117t-117 -49h-84q-147 0 -166 166h83q8 -84 83 -84q34 0 59 25t25 59v584z" />
    <glyph glyph-name="NJ" unicode="&#x1ca;" horiz-adv-x="1347" 
d="M84 0v750h37l463 -416v416h83v-750h-38l-462 416v-416h-83zM1250 750v-584q0 -82 -42 -124t-124 -42h-168q-82 0 -124 42t-42 124v168h166v-168q0 -34 25 -58t59 -24t59 24t25 58v584h166z" />
    <glyph glyph-name="Nj" unicode="&#x1cb;" horiz-adv-x="1268" 
d="M84 0v750h37l463 -416v416h83v-750h-38l-462 416v-416h-83zM1000 666v84h166v-84h-166zM1000 584h166v-584q0 -68 -49 -117t-117 -49h-84q-147 0 -166 166h84q7 -84 82 -84q35 0 59.5 25t24.5 59v584z" />
    <glyph glyph-name="nj" unicode="&#x1cc;" horiz-adv-x="1180" 
d="M84 0v584h166v-84q5 42 26 63t58 21h83q69 0 118 -49.5t49 -118.5v-416h-167v416q0 35 -24.5 59.5t-58.5 24.5q-35 0 -59.5 -24.5t-24.5 -59.5v-416h-166zM916 666v84h167v-84h-167zM916 584h167v-584q0 -68 -49 -117t-118 -49h-83q-147 0 -167 166h84q7 -84 83 -84
q34 0 58.5 25t24.5 59v584z" />
    <glyph glyph-name="Acaron" unicode="&#x1cd;" 
d="M84 0v584q0 68 49 117t117 49h167q69 0 118 -49t49 -117v-584h-167v334h-167v-334h-166zM250 416h167v168q0 34 -24.5 58t-58.5 24q-35 0 -59.5 -24t-24.5 -58v-168zM500 967l-125 -167h-83l-125 167h83l84 -83l83 83h83z" />
    <glyph glyph-name="acaron" unicode="&#x1ce;" 
d="M417 334v82q0 35 -24.5 59.5t-58.5 24.5h-84q-74 0 -83 -84h-83q19 168 166 168h167q69 0 118 -49.5t49 -118.5v-416h-167v84q-10 -84 -83 -84h-84q-68 0 -117 49t-49 117v1q0 69 49 118t117 49h167zM417 250h-83q-35 0 -59.5 -24.5t-24.5 -58.5v-1q0 -33 24.5 -57.5
t59.5 -24.5q34 0 58.5 24.5t24.5 57.5v84zM500 800l-125 -166h-83l-125 167h83l84 -84l83 83h83z" />
    <glyph glyph-name="Icaron" unicode="&#x1cf;" horiz-adv-x="500" 
d="M166 0v750h167v-750h-167zM416 967l-125 -167h-83l-125 167h83l84 -83l83 83h83z" />
    <glyph glyph-name="icaron" unicode="&#x1d0;" horiz-adv-x="334" 
d="M84 0v584h166v-584h-166zM333 800l-125 -166h-83l-125 167h83l84 -84l83 83h83z" />
    <glyph glyph-name="Ocaron" unicode="&#x1d1;" 
d="M250 750h167q69 0 118 -49t49 -117v-418q0 -67 -49 -116.5t-118 -49.5h-167q-68 0 -117 49t-49 117v418q0 68 49 117t117 49zM250 584v-418q0 -33 24.5 -57.5t59.5 -24.5q34 0 58.5 24.5t24.5 57.5v418q0 34 -24.5 58t-58.5 24q-35 0 -59.5 -24t-24.5 -58zM500 967
l-125 -167h-83l-125 167h83l84 -83l83 83h83z" />
    <glyph glyph-name="ocaron" unicode="&#x1d2;" 
d="M250 584h167q69 0 118 -49.5t49 -118.5v-250q0 -67 -49 -116.5t-118 -49.5h-167q-68 0 -117 49t-49 117v250q0 70 49 119t117 49zM250 416v-250q0 -33 24.5 -57.5t59.5 -24.5q34 0 58.5 24.5t24.5 57.5v250q0 35 -24.5 59.5t-58.5 24.5q-35 0 -59.5 -24.5t-24.5 -59.5z
M500 800l-125 -166h-83l-125 167h83l84 -84l83 83h83z" />
    <glyph glyph-name="Ucaron" unicode="&#x1d3;" 
d="M417 750h167v-584q0 -67 -49 -116.5t-118 -49.5h-167q-68 0 -117 49t-49 117v584h166v-584q0 -33 24.5 -57.5t59.5 -24.5q34 0 58.5 24.5t24.5 57.5v584zM500 967l-125 -167h-83l-125 167h83l84 -83l83 83h83z" />
    <glyph glyph-name="ucaron" unicode="&#x1d4;" 
d="M584 584v-584h-167v84q-10 -84 -83 -84h-84q-68 0 -117 49t-49 117v418h166v-418q0 -33 24.5 -57.5t59.5 -24.5q34 0 58.5 24.5t24.5 57.5v418h167zM500 800l-125 -166h-83l-125 167h83l84 -84l83 83h83z" />
    <glyph glyph-name="Udieresismacron" unicode="&#x1d5;" 
d="M417 750h167v-584q0 -67 -49 -116.5t-118 -49.5h-167q-68 0 -117 49t-49 117v584h166v-584q0 -33 24.5 -57.5t59.5 -24.5q34 0 58.5 24.5t24.5 57.5v584zM167 800v103h98v-103h-98zM402 800v103h98v-103h-98zM167 953v84h333v-84h-333z" />
    <glyph glyph-name="udieresismacron" unicode="&#x1d6;" 
d="M584 584v-584h-167v84q-10 -84 -83 -84h-84q-68 0 -117 49t-49 117v418h166v-418q0 -33 24.5 -57.5t59.5 -24.5q34 0 58.5 24.5t24.5 57.5v418h167zM167 634v103h98v-103h-98zM402 634v103h98v-103h-98zM167 787v83h333v-83h-333z" />
    <glyph glyph-name="Udieresisacute" unicode="&#x1d7;" 
d="M417 750h167v-584q0 -67 -49 -116.5t-118 -49.5h-167q-68 0 -117 49t-49 117v584h166v-584q0 -33 24.5 -57.5t59.5 -24.5q34 0 58.5 24.5t24.5 57.5v584zM167 800v103h98v-103h-98zM402 800v103h98v-103h-98zM250 953l84 167h83l-83 -167h-84z" />
    <glyph glyph-name="udieresisacute" unicode="&#x1d8;" 
d="M584 584v-584h-167v84q-10 -84 -83 -84h-84q-68 0 -117 49t-49 117v418h166v-418q0 -33 24.5 -57.5t59.5 -24.5q34 0 58.5 24.5t24.5 57.5v418h167zM167 634v103h98v-103h-98zM402 634v103h98v-103h-98zM250 787l84 167h83l-83 -167h-84z" />
    <glyph glyph-name="Udieresiscaron" unicode="&#x1d9;" 
d="M417 750h167v-584q0 -67 -49 -116.5t-118 -49.5h-167q-68 0 -117 49t-49 117v584h166v-584q0 -33 24.5 -57.5t59.5 -24.5q34 0 58.5 24.5t24.5 57.5v584zM167 800v103h98v-103h-98zM402 800v103h98v-103h-98zM500 1120l-125 -167h-83l-125 167h83l84 -83l83 83h83z" />
    <glyph glyph-name="udieresiscaron" unicode="&#x1da;" 
d="M584 584v-584h-167v84q-10 -84 -83 -84h-84q-68 0 -117 49t-49 117v418h166v-418q0 -33 24.5 -57.5t59.5 -24.5q34 0 58.5 24.5t24.5 57.5v418h167zM167 634v103h98v-103h-98zM402 634v103h98v-103h-98zM500 954l-125 -167h-83l-125 167h83l84 -84l83 84h83z" />
    <glyph glyph-name="Udieresisgrave" unicode="&#x1db;" 
d="M417 750h167v-584q0 -67 -49 -116.5t-118 -49.5h-167q-68 0 -117 49t-49 117v584h166v-584q0 -33 24.5 -57.5t59.5 -24.5q34 0 58.5 24.5t24.5 57.5v584zM167 800v103h98v-103h-98zM402 800v103h98v-103h-98zM334 953l-84 167h84l83 -167h-83z" />
    <glyph glyph-name="udieresisgrave" unicode="&#x1dc;" 
d="M584 584v-584h-167v84q-10 -84 -83 -84h-84q-68 0 -117 49t-49 117v418h166v-418q0 -33 24.5 -57.5t59.5 -24.5q34 0 58.5 24.5t24.5 57.5v418h167zM167 634v103h98v-103h-98zM402 634v103h98v-103h-98zM334 787l-84 167h84l83 -167h-83z" />
    <glyph glyph-name="Adieresismacron" unicode="&#x1de;" 
d="M84 0v584q0 68 49 117t117 49h167q69 0 118 -49t49 -117v-584h-167v334h-167v-334h-166zM250 416h167v168q0 34 -24.5 58t-58.5 24q-35 0 -59.5 -24t-24.5 -58v-168zM167 800v103h98v-103h-98zM402 800v103h98v-103h-98zM167 953v84h333v-84h-333z" />
    <glyph glyph-name="adieresismacron" unicode="&#x1df;" 
d="M417 334v82q0 35 -24.5 59.5t-58.5 24.5h-84q-74 0 -83 -84h-83q19 168 166 168h167q69 0 118 -49.5t49 -118.5v-416h-167v84q-10 -84 -83 -84h-84q-68 0 -117 49t-49 117v1q0 69 49 118t117 49h167zM417 250h-83q-35 0 -59.5 -24.5t-24.5 -58.5v-1q0 -33 24.5 -57.5
t59.5 -24.5q34 0 58.5 24.5t24.5 57.5v84zM167 634v103h98v-103h-98zM402 634v103h98v-103h-98zM167 787v83h333v-83h-333z" />
    <glyph glyph-name="Adotmacron" unicode="&#x1e0;" 
d="M84 0v584q0 68 49 117t117 49h167q69 0 118 -49t49 -117v-584h-167v334h-167v-334h-166zM250 416h167v168q0 34 -24.5 58t-58.5 24q-35 0 -59.5 -24t-24.5 -58v-168zM285 800v103h98v-103h-98zM167 953v84h333v-84h-333z" />
    <glyph glyph-name="adotmacron" unicode="&#x1e1;" 
d="M417 334v82q0 35 -24.5 59.5t-58.5 24.5h-84q-74 0 -83 -84h-83q19 168 166 168h167q69 0 118 -49.5t49 -118.5v-416h-167v84q-10 -84 -83 -84h-84q-68 0 -117 49t-49 117v1q0 69 49 118t117 49h167zM417 250h-83q-35 0 -59.5 -24.5t-24.5 -58.5v-1q0 -33 24.5 -57.5
t59.5 -24.5q34 0 58.5 24.5t24.5 57.5v84zM285 634v103h98v-103h-98zM167 787v83h333v-83h-333z" />
    <glyph glyph-name="AEmacron" unicode="&#x1e2;" horiz-adv-x="916" 
d="M84 0v584q0 68 49 117t117 49h584v-84h-250v-250h166v-82h-166v-250h250v-84h-417v334h-167v-334h-166zM250 416h167v168q0 34 -24.5 58t-58.5 24q-35 0 -59.5 -24t-24.5 -58v-168zM292 800v84h333v-84h-333z" />
    <glyph glyph-name="aemacron" unicode="&#x1e3;" horiz-adv-x="1000" 
d="M417 250h-83q-35 0 -59.5 -24.5t-24.5 -58.5v-1q0 -33 24.5 -57.5t59.5 -24.5q34 0 58.5 24.5t24.5 57.5v84zM584 334h166v82q0 34 -24.5 59t-58.5 25t-58.5 -24.5t-24.5 -59.5v-82zM167 416h-83q19 168 166 168h167q40 0 83 -23q43 23 84 23h166q68 0 117.5 -49.5
t49.5 -118.5v-166h-333v-84q0 -33 24 -57.5t59 -24.5h83q84 0 84 82h83q-19 -166 -167 -166h-166q-41 0 -84 23q-43 -23 -83 -23h-167q-68 0 -117 49t-49 117v1q0 69 49 118t117 49h167v82q0 35 -24.5 59.5t-58.5 24.5h-84q-74 0 -83 -84zM334 634v83h333v-83h-333z" />
    <glyph glyph-name="uni01DD" unicode="&#x1dd;" horiz-adv-x="667" 
d="M83 334h333v83q0 34 -24.5 59t-58.5 25h-84q-83 0 -83 -84h-83q19 167 166 167h167q68 0 117.5 -49t49.5 -118v-250q0 -68 -49.5 -117t-117.5 -49h-167q-68 0 -117 49t-49 117v167zM416 251h-167v-84q0 -34 24.5 -58.5t59.5 -24.5q34 0 58.5 24.5t24.5 58.5v84z" />
    <glyph glyph-name="Gcaron" unicode="&#x1e6;" 
d="M334 416h250v-250q0 -82 -53.5 -124t-113.5 -42h-167q-68 0 -117 49t-49 117v418q0 67 48 116.5t118 49.5h167q157 0 167 -166h-84q-10 82 -83 82h-83q-35 0 -59.5 -24t-24.5 -58v-418q0 -34 24.5 -58t59.5 -24q79 4 83 82v168h-83v82zM500 967l-125 -167h-83l-125 167
h83l84 -83l83 83h83z" />
    <glyph glyph-name="gcaron" unicode="&#x1e7;" 
d="M584 584v-668q0 -68 -49.5 -117t-117.5 -49h-167q-147 0 -166 166h83q6 -82 83 -82h84q34 0 58.5 24t24.5 58v168q-10 -84 -83 -84h-84q-68 0 -117 49t-49 117v250q0 70 49 119t117 49h334zM417 500h-83q-35 0 -59.5 -24.5t-24.5 -59.5v-250q0 -33 24.5 -57.5t59.5 -24.5
q34 0 58.5 24.5t24.5 57.5v334zM500 800l-125 -166h-83l-125 167h83l84 -84l83 83h83z" />
    <glyph glyph-name="Kcaron" unicode="&#x1e8;" horiz-adv-x="750" 
d="M84 0v750h166v-306l270 306h147l-333 -375l333 -375h-167l-250 291v-291h-166zM542 967l-125 -167h-83l-125 167h83l83 -83l84 83h83z" />
    <glyph glyph-name="kcaron" unicode="&#x1e9;" 
d="M84 0v750h166v-375l250 209h167l-349 -293l349 -291h-167l-250 209v-209h-166zM542 967l-125 -167h-83l-125 167h83l83 -83l84 83h83z" />
    <glyph glyph-name="Oogonek" unicode="&#x1ea;" 
d="M250 750h167q69 0 118 -49t49 -117v-418q0 -67 -49 -116.5t-118 -49.5h-167q-68 0 -117 49t-49 117v418q0 68 49 117t117 49zM250 584v-418q0 -33 24.5 -57.5t59.5 -24.5q34 0 58.5 24.5t24.5 57.5v418q0 34 -24.5 58t-58.5 24q-35 0 -59.5 -24t-24.5 -58zM414 -84h-42
q-20 0 -30.5 -10t-10.5 -31t10 -31t30 -10q6 0 17 2l32 -77q-34 -9 -53 -9q-42 0 -81 35.5t-39 89.5q0 51 37 88t88 37h42v-84z" />
    <glyph glyph-name="oogonek" unicode="&#x1eb;" 
d="M250 584h167q69 0 118 -49.5t49 -118.5v-250q0 -67 -49 -116.5t-118 -49.5h-167q-68 0 -117 49t-49 117v250q0 70 49 119t117 49zM250 416v-250q0 -33 24.5 -57.5t59.5 -24.5q34 0 58.5 24.5t24.5 57.5v250q0 35 -24.5 59.5t-58.5 24.5q-35 0 -59.5 -24.5t-24.5 -59.5z
M414 -84h-42q-20 0 -30.5 -10t-10.5 -31t10 -31t30 -10q6 0 17 2l32 -77q-34 -9 -53 -9q-42 0 -81 35.5t-39 89.5q0 51 37 88t88 37h42v-84z" />
    <glyph glyph-name="Oogonekmacron" unicode="&#x1ec;" 
d="M250 750h167q69 0 118 -49t49 -117v-418q0 -67 -49 -116.5t-118 -49.5h-167q-68 0 -117 49t-49 117v418q0 68 49 117t117 49zM250 584v-418q0 -33 24.5 -57.5t59.5 -24.5q34 0 58.5 24.5t24.5 57.5v418q0 34 -24.5 58t-58.5 24q-35 0 -59.5 -24t-24.5 -58zM414 -84h-42
q-20 0 -30.5 -10t-10.5 -31t10 -31t30 -10q6 0 17 2l32 -77q-34 -9 -53 -9q-42 0 -81 35.5t-39 89.5q0 51 37 88t88 37h42v-84zM167 800v84h333v-84h-333z" />
    <glyph glyph-name="oogonekmacron" unicode="&#x1ed;" 
d="M250 584h167q69 0 118 -49.5t49 -118.5v-250q0 -67 -49 -116.5t-118 -49.5h-167q-68 0 -117 49t-49 117v250q0 70 49 119t117 49zM250 416v-250q0 -33 24.5 -57.5t59.5 -24.5q34 0 58.5 24.5t24.5 57.5v250q0 35 -24.5 59.5t-58.5 24.5q-35 0 -59.5 -24.5t-24.5 -59.5z
M414 -84h-42q-20 0 -30.5 -10t-10.5 -31t10 -31t30 -10q6 0 17 2l32 -77q-34 -9 -53 -9q-42 0 -81 35.5t-39 89.5q0 51 37 88t88 37h42v-84zM167 634v83h333v-83h-333z" />
    <glyph glyph-name="jcaron" unicode="&#x1f0;" horiz-adv-x="500" 
d="M250 584h166v-584q0 -68 -49 -117t-117 -49h-84q-147 0 -166 166h84q7 -84 82 -84q35 0 59.5 25t24.5 59v584zM375 800l-125 -166h-83l-125 167h83l83 -84l84 83h83z" />
    <glyph glyph-name="DZ" unicode="&#x1f1;" horiz-adv-x="1332" 
d="M84 0v750h333q69 0 118 -49t49 -117v-418q0 -67 -49 -116.5t-118 -49.5h-333zM250 84h84q34 0 58.5 24.5t24.5 57.5v418q0 34 -24.5 58t-58.5 24h-84v-582zM750 750h500v-84l-334 -582h334v-84h-500v84l334 582h-334v84z" />
    <glyph glyph-name="Dz" unicode="&#x1f2;" horiz-adv-x="1317" 
d="M84 0v750h333q69 0 118 -49t49 -117v-418q0 -67 -49 -116.5t-118 -49.5h-333zM250 84h84q34 0 58.5 24.5t24.5 57.5v418q0 34 -24.5 58t-58.5 24h-84v-582zM750 584h500v-84l-334 -416h334v-84h-500v84l334 416h-334v84z" />
    <glyph glyph-name="dz" unicode="&#x1f3;" horiz-adv-x="1327" 
d="M584 0h-167v84q-10 -84 -83 -84h-84q-68 0 -117 49t-49 117v250q0 70 49 119t117 49h167v166h167v-750zM417 500h-83q-35 0 -59.5 -24.5t-24.5 -59.5v-250q0 -33 24.5 -57.5t59.5 -24.5q34 0 58.5 24.5t24.5 57.5v334zM750 584h500v-84l-334 -416h334v-84h-500v84
l334 416h-334v84z" />
    <glyph glyph-name="Gacute" unicode="&#x1f4;" 
d="M334 416h250v-250q0 -82 -53.5 -124t-113.5 -42h-167q-68 0 -117 49t-49 117v418q0 67 48 116.5t118 49.5h167q157 0 167 -166h-84q-10 82 -83 82h-83q-35 0 -59.5 -24t-24.5 -58v-418q0 -34 24.5 -58t59.5 -24q79 4 83 82v168h-83v82zM250 800l84 167h83l-83 -167h-84z
" />
    <glyph glyph-name="gacute" unicode="&#x1f5;" 
d="M584 584v-668q0 -68 -49.5 -117t-117.5 -49h-167q-147 0 -166 166h83q6 -82 83 -82h84q34 0 58.5 24t24.5 58v168q-10 -84 -83 -84h-84q-68 0 -117 49t-49 117v250q0 70 49 119t117 49h334zM417 500h-83q-35 0 -59.5 -24.5t-24.5 -59.5v-250q0 -33 24.5 -57.5t59.5 -24.5
q34 0 58.5 24.5t24.5 57.5v334zM333 633l83 167h84l-84 -167h-83z" />
    <glyph glyph-name="Ngrave" unicode="&#x1f8;" horiz-adv-x="750" 
d="M84 0v750h37l463 -416v416h83v-750h-38l-462 416v-416h-83zM375 800l-83 167h83l84 -167h-84z" />
    <glyph glyph-name="ngrave" unicode="&#x1f9;" 
d="M84 0v584h166v-84q5 42 26 63t58 21h83q69 0 118 -49.5t49 -118.5v-416h-167v416q0 35 -24.5 59.5t-58.5 24.5q-35 0 -59.5 -24.5t-24.5 -59.5v-416h-166zM334 634l-84 167h84l83 -167h-83z" />
    <glyph glyph-name="Aringacute" unicode="&#x1fa;" 
d="M84 0v584q0 68 49 117t117 49h167q69 0 118 -49t49 -117v-584h-167v334h-167v-334h-166zM250 416h167v168q0 34 -24.5 58t-58.5 24q-35 0 -59.5 -24t-24.5 -58v-168zM167 967q0 69 49 118t118 49q68 0 117 -49t49 -118q0 -68 -49 -117.5t-117 -49.5q-69 0 -118 49.5
t-49 117.5zM250 967q0 -34 24.5 -58.5t59.5 -24.5q34 0 58.5 24.5t24.5 58.5t-24.5 58.5t-58.5 24.5t-59 -24.5t-25 -58.5zM250 1184l84 167h83l-83 -167h-84z" />
    <glyph glyph-name="aringacute" unicode="&#x1fb;" 
d="M417 334v82q0 35 -24.5 59.5t-58.5 24.5h-84q-74 0 -83 -84h-83q19 168 166 168h167q69 0 118 -49.5t49 -118.5v-416h-167v84q-10 -84 -83 -84h-84q-68 0 -117 49t-49 117v1q0 69 49 118t117 49h167zM417 250h-83q-35 0 -59.5 -24.5t-24.5 -58.5v-1q0 -33 24.5 -57.5
t59.5 -24.5q34 0 58.5 24.5t24.5 57.5v84zM167 801q0 68 49 117t118 49q68 0 117 -49t49 -118q0 -67 -49 -116.5t-117 -49.5q-69 0 -118 49.5t-49 117.5zM250 801q0 -35 24.5 -59.5t59.5 -24.5q34 0 58.5 24.5t24.5 59.5q0 34 -24.5 58.5t-58.5 24.5t-59 -24.5t-25 -58.5z
M250 1017l84 167h83l-83 -167h-84z" />
    <glyph glyph-name="AEacute" unicode="&#x1fc;" horiz-adv-x="916" 
d="M84 0v584q0 68 49 117t117 49h584v-84h-250v-250h166v-82h-166v-250h250v-84h-417v334h-167v-334h-166zM250 416h167v168q0 34 -24.5 58t-58.5 24q-35 0 -59.5 -24t-24.5 -58v-168zM375 800l84 167h83l-83 -167h-84z" />
    <glyph glyph-name="aeacute" unicode="&#x1fd;" horiz-adv-x="1000" 
d="M417 250h-83q-35 0 -59.5 -24.5t-24.5 -58.5v-1q0 -33 24.5 -57.5t59.5 -24.5q34 0 58.5 24.5t24.5 57.5v84zM584 334h166v82q0 34 -24.5 59t-58.5 25t-58.5 -24.5t-24.5 -59.5v-82zM167 416h-83q19 168 166 168h167q40 0 83 -23q43 23 84 23h166q68 0 117.5 -49.5
t49.5 -118.5v-166h-333v-84q0 -33 24 -57.5t59 -24.5h83q84 0 84 82h83q-19 -166 -167 -166h-166q-41 0 -84 23q-43 -23 -83 -23h-167q-68 0 -117 49t-49 117v1q0 69 49 118t117 49h167v82q0 35 -24.5 59.5t-58.5 24.5h-84q-74 0 -83 -84zM417 634l83 167h84l-84 -167h-83z
" />
    <glyph glyph-name="Oslashacute" unicode="&#x1fe;" 
d="M84 0l35 64q-35 54 -35 102v418q0 68 49 117t117 49h167q37 0 74 -17l9 17h84l-36 -64q36 -54 36 -102v-418q0 -67 -49 -116.5t-118 -49.5h-167q-36 0 -74 17l-9 -17h-83zM252 154q13 -70 82 -70q34 0 58.5 24.5t24.5 57.5v284zM416 598q-18 68 -82 68q-35 0 -59.5 -24
t-24.5 -58v-284zM250 800l84 167h83l-83 -167h-84z" />
    <glyph glyph-name="oslashacute" unicode="&#x1ff;" 
d="M584 584l-41 -58q41 -57 41 -110v-250q0 -67 -49 -116.5t-118 -49.5h-167q-36 0 -72 16l-11 -16h-83l41 57q-41 57 -41 109v250q0 70 49 119t117 49h167q36 0 72 -17l11 17h84zM250 233l158 221q-29 46 -74 46q-35 0 -59.5 -24.5t-24.5 -59.5v-183zM417 350l-158 -221
q29 -45 75 -45q34 0 58.5 24.5t24.5 57.5v184zM250 634l84 167h83l-83 -167h-84z" />
    <glyph glyph-name="Hcaron" unicode="&#x21e;" 
d="M84 0v750h166v-334h167v334h167v-750h-167v334h-167v-334h-166zM500 967l-125 -167h-83l-125 167h83l84 -83l83 83h83z" />
    <glyph glyph-name="hcaron" unicode="&#x21f;" 
d="M84 0v750h166v-250q5 42 26 63t58 21h83q69 0 118 -49.5t49 -118.5v-416h-167v416q0 35 -24.5 59.5t-58.5 24.5q-35 0 -59.5 -24.5t-24.5 -59.5v-416h-166zM500 967l-125 -167h-83l-125 167h83l84 -83l83 83h83z" />
    <glyph glyph-name="Adotaccent" unicode="&#x226;" 
d="M84 0v584q0 68 49 117t117 49h167q69 0 118 -49t49 -117v-584h-167v334h-167v-334h-166zM250 416h167v168q0 34 -24.5 58t-58.5 24q-35 0 -59.5 -24t-24.5 -58v-168zM285 800v103h98v-103h-98z" />
    <glyph glyph-name="adotaccent" unicode="&#x227;" 
d="M417 334v82q0 35 -24.5 59.5t-58.5 24.5h-84q-74 0 -83 -84h-83q19 168 166 168h167q69 0 118 -49.5t49 -118.5v-416h-167v84q-10 -84 -83 -84h-84q-68 0 -117 49t-49 117v1q0 69 49 118t117 49h167zM417 250h-83q-35 0 -59.5 -24.5t-24.5 -58.5v-1q0 -33 24.5 -57.5
t59.5 -24.5q34 0 58.5 24.5t24.5 57.5v84zM285 634v103h98v-103h-98z" />
    <glyph glyph-name="Ecedilla" unicode="&#x228;" horiz-adv-x="584" 
d="M84 0v750h416v-84h-250v-250h167v-82h-167v-250h250v-84h-416zM211 -84v84h43q51 0 88 -37t37 -88q0 -54 -39.5 -89.5t-81.5 -35.5q-18 0 -53 9l32 77q11 -2 18 -2q20 0 30 10t10 31t-10.5 31t-30.5 10h-43z" />
    <glyph glyph-name="ecedilla" unicode="&#x229;" 
d="M584 250h-334v-84q0 -33 24.5 -57.5t59.5 -24.5h83q83 0 83 82h84q-20 -166 -167 -166h-167q-68 0 -117 49t-49 117v250q0 70 49 119t117 49h167q69 0 118 -49.5t49 -118.5v-166zM250 334h167v82q0 35 -24.5 59.5t-58.5 24.5q-35 0 -59.5 -24.5t-24.5 -59.5v-82zM253 -84
v84h42q51 0 88 -37t37 -88q0 -54 -39 -89.5t-81 -35.5q-18 0 -53 9l32 77q11 -2 17 -2q21 0 31 10t10 31t-10.5 31t-31.5 10h-42z" />
    <glyph glyph-name="Odieresismacron" unicode="&#x22a;" 
d="M250 750h167q69 0 118 -49t49 -117v-418q0 -67 -49 -116.5t-118 -49.5h-167q-68 0 -117 49t-49 117v418q0 68 49 117t117 49zM250 584v-418q0 -33 24.5 -57.5t59.5 -24.5q34 0 58.5 24.5t24.5 57.5v418q0 34 -24.5 58t-58.5 24q-35 0 -59.5 -24t-24.5 -58zM167 800v103
h98v-103h-98zM402 800v103h98v-103h-98zM167 953v84h333v-84h-333z" />
    <glyph glyph-name="odieresismacron" unicode="&#x22b;" 
d="M250 584h167q69 0 118 -49.5t49 -118.5v-250q0 -67 -49 -116.5t-118 -49.5h-167q-68 0 -117 49t-49 117v250q0 70 49 119t117 49zM250 416v-250q0 -33 24.5 -57.5t59.5 -24.5q34 0 58.5 24.5t24.5 57.5v250q0 35 -24.5 59.5t-58.5 24.5q-35 0 -59.5 -24.5t-24.5 -59.5z
M167 634v103h98v-103h-98zM402 634v103h98v-103h-98zM167 787v83h333v-83h-333z" />
    <glyph glyph-name="Otildemacron" unicode="&#x22c;" 
d="M250 750h167q69 0 118 -49t49 -117v-418q0 -67 -49 -116.5t-118 -49.5h-167q-68 0 -117 49t-49 117v418q0 68 49 117t117 49zM250 584v-418q0 -33 24.5 -57.5t59.5 -24.5q34 0 58.5 24.5t24.5 57.5v418q0 34 -24.5 58t-58.5 24q-35 0 -59.5 -24t-24.5 -58zM167 800h-83
q19 167 166 167q48 0 104 -49l11 -10q28 -24 52 -24q73 0 83 83h84q-20 -167 -167 -167q-48 0 -104 49l-11 10q-28 25 -52 25q-73 0 -83 -84zM167 1017v84h333v-84h-333z" />
    <glyph glyph-name="otildemacron" unicode="&#x22d;" 
d="M250 584h167q69 0 118 -49.5t49 -118.5v-250q0 -67 -49 -116.5t-118 -49.5h-167q-68 0 -117 49t-49 117v250q0 70 49 119t117 49zM250 416v-250q0 -33 24.5 -57.5t59.5 -24.5q34 0 58.5 24.5t24.5 57.5v250q0 35 -24.5 59.5t-58.5 24.5q-35 0 -59.5 -24.5t-24.5 -59.5z
M167 634h-83q19 167 166 167q48 0 104 -49l11 -10q28 -25 52 -25q73 0 83 84h84q-20 -167 -167 -167q-48 0 -104 48l-11 11q-28 24 -52 24q-73 0 -83 -83zM167 851v83h333v-83h-333z" />
    <glyph glyph-name="Odotaccent" unicode="&#x22e;" 
d="M250 750h167q69 0 118 -49t49 -117v-418q0 -67 -49 -116.5t-118 -49.5h-167q-68 0 -117 49t-49 117v418q0 68 49 117t117 49zM250 584v-418q0 -33 24.5 -57.5t59.5 -24.5q34 0 58.5 24.5t24.5 57.5v418q0 34 -24.5 58t-58.5 24q-35 0 -59.5 -24t-24.5 -58zM285 800v103
h98v-103h-98z" />
    <glyph glyph-name="odotaccent" unicode="&#x22f;" 
d="M250 584h167q69 0 118 -49.5t49 -118.5v-250q0 -67 -49 -116.5t-118 -49.5h-167q-68 0 -117 49t-49 117v250q0 70 49 119t117 49zM250 416v-250q0 -33 24.5 -57.5t59.5 -24.5q34 0 58.5 24.5t24.5 57.5v250q0 35 -24.5 59.5t-58.5 24.5q-35 0 -59.5 -24.5t-24.5 -59.5z
M285 634v103h98v-103h-98z" />
    <glyph glyph-name="Odotaccentmacron" unicode="&#x230;" 
d="M250 750h167q69 0 118 -49t49 -117v-418q0 -67 -49 -116.5t-118 -49.5h-167q-68 0 -117 49t-49 117v418q0 68 49 117t117 49zM250 584v-418q0 -33 24.5 -57.5t59.5 -24.5q34 0 58.5 24.5t24.5 57.5v418q0 34 -24.5 58t-58.5 24q-35 0 -59.5 -24t-24.5 -58zM285 800v103
h98v-103h-98zM167 953v84h333v-84h-333z" />
    <glyph glyph-name="odotaccentmacron" unicode="&#x231;" 
d="M250 584h167q69 0 118 -49.5t49 -118.5v-250q0 -67 -49 -116.5t-118 -49.5h-167q-68 0 -117 49t-49 117v250q0 70 49 119t117 49zM250 416v-250q0 -33 24.5 -57.5t59.5 -24.5q34 0 58.5 24.5t24.5 57.5v250q0 35 -24.5 59.5t-58.5 24.5q-35 0 -59.5 -24.5t-24.5 -59.5z
M285 634v103h98v-103h-98zM167 787v83h333v-83h-333z" />
    <glyph glyph-name="Ymacron" unicode="&#x232;" 
d="M250 0v334q-166 19 -166 166v250h166v-250q0 -34 24.5 -59t59.5 -25q34 0 58.5 25t24.5 59v250h167v-250q0 -147 -167 -166v-334h-167zM167 800v84h333v-84h-333z" />
    <glyph glyph-name="ymacron" unicode="&#x233;" 
d="M167 -84q6 -82 83 -82h84q34 0 58.5 24t24.5 58v168q-10 -84 -83 -84h-84q-68 0 -117 49t-49 117v418h166v-418q0 -33 24.5 -57.5t59.5 -24.5q34 0 58.5 24.5t24.5 57.5v418h167v-668q0 -68 -49.5 -117t-117.5 -49h-167q-147 0 -166 166h83zM167 634v83h333v-83h-333z
" />
    <glyph glyph-name="ereversed" unicode="&#x258;" 
d="M84 416q0 69 49 118.5t117 49.5h167q68 0 117.5 -49t49.5 -119v-250q0 -68 -49 -117t-118 -49h-167q-147 0 -166 166h83q0 -82 83 -82h84q34 0 58.5 24.5t24.5 57.5v84h-333v166zM417 416q0 35 -24.5 59.5t-58.5 24.5t-59 -24.5t-25 -59.5v-82h167v82z" />
    <glyph glyph-name="schwa" unicode="&#x259;" 
d="M84 334h333v83q0 34 -24.5 58.5t-58.5 24.5h-84q-83 0 -83 -83h-83q19 167 166 167h167q69 0 118 -49t49 -118v-250q0 -69 -49.5 -118t-117.5 -49h-167q-68 0 -117 49.5t-49 117.5v167zM417 250h-167v-83q0 -34 25 -58.5t59 -24.5t58.5 24.5t24.5 58.5v83z" />
    <glyph glyph-name="gravecmb" unicode="&#x300;" horiz-adv-x="0" 
d="M-335 666l-84 168h84l84 -168h-84z" />
    <glyph glyph-name="acutecmb" unicode="&#x301;" horiz-adv-x="0" 
d="M-419 666l84 168h84l-84 -168h-84z" />
    <glyph glyph-name="circumflexcmb" unicode="&#x302;" horiz-adv-x="0" 
d="M-501 666l125 168h82l125 -168h-82l-84 84l-84 -84h-82z" />
    <glyph glyph-name="tildecmb" unicode="&#x303;" horiz-adv-x="0" 
d="M-502 666h-83q19 168 166 168q48 0 104 -49l11 -10q28 -25 52 -25q73 0 83 84h84q-20 -168 -167 -168q-48 0 -104 49l-11 11q-28 24 -52 24q-73 0 -83 -84z" />
    <glyph glyph-name="macroncmb" unicode="&#x304;" horiz-adv-x="0" 
d="M-501 666v84h332v-84h-332z" />
    <glyph glyph-name="brevecmb" unicode="&#x306;" horiz-adv-x="0" 
d="M-251 834h83q-19 -168 -167 -168q-147 0 -166 168h83q9 -84 83 -84t84 84z" />
    <glyph glyph-name="dotaccentcmb" unicode="&#x307;" horiz-adv-x="0" 
d="M-384 666v104h98v-104h-98z" />
    <glyph glyph-name="dieresiscmb" unicode="&#x308;" horiz-adv-x="0" 
d="M-501 666v104h97v-104h-97zM-266 666v104h97v-104h-97z" />
    <glyph glyph-name="ringcmb" unicode="&#x30a;" horiz-adv-x="0" 
d="M-501 834q0 68 49 117t117 49t117 -49t49 -118q0 -67 -48.5 -117t-117.5 -50t-117.5 50t-48.5 118zM-419 834q0 -35 24.5 -59.5t59.5 -24.5t59.5 24.5t24.5 59.5q0 34 -25 58t-59 24t-59 -24t-25 -58z" />
    <glyph glyph-name="hungarumlautcmb" unicode="&#x30b;" horiz-adv-x="0" 
d="M-501 666l82 168h84l-84 -168h-82zM-335 666l84 168h82l-82 -168h-84z" />
    <glyph glyph-name="caroncmb" unicode="&#x30c;" horiz-adv-x="0" 
d="M-169 833l-125 -167h-82l-125 168h82l84 -84l84 83h82z" />
    <glyph glyph-name="commaaccent" unicode="&#x326;" horiz-adv-x="0" 
d="M-418 166h166v-166q0 -148 -166 -166v82q80 4 83 84h-83v166z" />
    <glyph glyph-name="cedillacmb" unicode="&#x327;" horiz-adv-x="0" 
d="M-416 -84v84h43q51 0 88 -37t37 -88q0 -54 -39 -89.5t-82 -35.5q-18 0 -52 9l31 77q12 -2 18 -2q20 0 30 10t10 31t-10.5 31t-30.5 10h-43z" />
    <glyph glyph-name="ogonekcmb" unicode="&#x328;" horiz-adv-x="0" 
d="M-255 -84h-41q-21 0 -31.5 -10t-10.5 -31t10 -31t30 -10q6 0 18 2l31 -77q-34 -9 -52 -9q-42 0 -81 35.5t-39 89.5q0 51 37 88t88 37h41v-84z" />
    <glyph glyph-name="soliduslongoverlaycmb" unicode="&#x338;" horiz-adv-x="0" 
d="M-543 0l333 834h83l-333 -834h-83z" />
    <glyph glyph-name="combininggraphemejoiner" unicode="&#x34f;" horiz-adv-x="0" 
 />
    <glyph glyph-name="Aringbelow" unicode="&#x1e00;" 
d="M84 0v584q0 68 49 117t117 49h167q69 0 118 -49t49 -117v-584h-167v334h-167v-334h-166zM250 416h167v168q0 34 -24.5 58t-58.5 24q-35 0 -59.5 -24t-24.5 -58v-168zM167 -216q0 68 49 117t118 49q68 0 117 -49t49 -118q0 -67 -49 -117t-117 -50q-69 0 -118 50t-49 118z
M250 -216q0 -35 24.5 -59.5t59.5 -24.5q34 0 58.5 24.5t24.5 59.5q0 34 -24.5 58t-58.5 24t-59 -24t-25 -58z" />
    <glyph glyph-name="aringbelow" unicode="&#x1e01;" 
d="M417 334v82q0 35 -24.5 59.5t-58.5 24.5h-84q-74 0 -83 -84h-83q19 168 166 168h167q69 0 118 -49.5t49 -118.5v-416h-167v84q-10 -84 -83 -84h-84q-68 0 -117 49t-49 117v1q0 69 49 118t117 49h167zM417 250h-83q-35 0 -59.5 -24.5t-24.5 -58.5v-1q0 -33 24.5 -57.5
t59.5 -24.5q34 0 58.5 24.5t24.5 57.5v84zM167 -216q0 68 49 117t118 49q68 0 117 -49t49 -118q0 -67 -49 -117t-117 -50q-69 0 -118 50t-49 118zM250 -216q0 -35 24.5 -59.5t59.5 -24.5q34 0 58.5 24.5t24.5 59.5q0 34 -24.5 58t-58.5 24t-59 -24t-25 -58z" />
    <glyph glyph-name="Bdotaccent" unicode="&#x1e02;" 
d="M84 0v750h333q69 0 118 -49t49 -117v-43q0 -73 -42 -114.5t-125 -51.5q83 0 125 -50t42 -116v-43q0 -67 -49.5 -116.5t-117.5 -49.5h-333zM250 416h84q34 0 58.5 25t24.5 59v84q0 34 -24.5 58t-58.5 24h-84v-250zM250 84h84q34 0 58.5 24.5t24.5 57.5v84q0 84 -83 84h-84
v-250zM285 800v103h98v-103h-98z" />
    <glyph glyph-name="bdotaccent" unicode="&#x1e03;" 
d="M84 0v750h166v-250q5 42 26 63t58 21h83q69 0 118 -49.5t49 -118.5v-250q0 -67 -49 -116.5t-118 -49.5h-333zM250 84h84q34 0 58.5 24.5t24.5 57.5v250q0 35 -24.5 59.5t-58.5 24.5q-35 0 -59.5 -24.5t-24.5 -59.5v-332zM285 800v103h98v-103h-98z" />
    <glyph glyph-name="Bdotbelow" unicode="&#x1e04;" 
d="M84 0v750h333q69 0 118 -49t49 -117v-43q0 -73 -42 -114.5t-125 -51.5q83 0 125 -50t42 -116v-43q0 -67 -49.5 -116.5t-117.5 -49.5h-333zM250 416h84q34 0 58.5 25t24.5 59v84q0 34 -24.5 58t-58.5 24h-84v-250zM250 84h84q34 0 58.5 24.5t24.5 57.5v84q0 84 -83 84h-84
v-250zM285 -153v103h98v-103h-98z" />
    <glyph glyph-name="bdotbelow" unicode="&#x1e05;" 
d="M84 0v750h166v-250q5 42 26 63t58 21h83q69 0 118 -49.5t49 -118.5v-250q0 -67 -49 -116.5t-118 -49.5h-333zM250 84h84q34 0 58.5 24.5t24.5 57.5v250q0 35 -24.5 59.5t-58.5 24.5q-35 0 -59.5 -24.5t-24.5 -59.5v-332zM285 -153v103h98v-103h-98z" />
    <glyph glyph-name="Blinebelow" unicode="&#x1e06;" 
d="M84 0v750h333q69 0 118 -49t49 -117v-43q0 -73 -42 -114.5t-125 -51.5q83 0 125 -50t42 -116v-43q0 -67 -49.5 -116.5t-117.5 -49.5h-333zM250 416h84q34 0 58.5 25t24.5 59v84q0 34 -24.5 58t-58.5 24h-84v-250zM250 84h84q34 0 58.5 24.5t24.5 57.5v84q0 84 -83 84h-84
v-250zM167 -134v84h333v-84h-333z" />
    <glyph glyph-name="blinebelow" unicode="&#x1e07;" 
d="M84 0v750h166v-250q5 42 26 63t58 21h83q69 0 118 -49.5t49 -118.5v-250q0 -67 -49 -116.5t-118 -49.5h-333zM250 84h84q34 0 58.5 24.5t24.5 57.5v250q0 35 -24.5 59.5t-58.5 24.5q-35 0 -59.5 -24.5t-24.5 -59.5v-332zM167 -134v84h333v-84h-333z" />
    <glyph glyph-name="Ccedillaacute" unicode="&#x1e08;" 
d="M286 -241l32 77q11 -2 17 -2q20 0 30 10t10 31t-10 31t-31 10h-42v84h-42q-68 0 -117 49t-49 117v418q0 67 48 116.5t118 49.5h167q157 0 167 -166h-84q-10 82 -83 82h-83q-35 0 -59.5 -24t-24.5 -58v-418q0 -33 24.5 -57.5t59.5 -24.5h83q74 0 83 82h84
q-11 -166 -167 -166h-83q51 0 88 -37t37 -88t-34.5 -88t-86.5 -37q-18 0 -52 9zM250 800l84 167h83l-83 -167h-84z" />
    <glyph glyph-name="ccedillaacute" unicode="&#x1e09;" horiz-adv-x="584" 
d="M250 0q-166 19 -166 166v250q0 70 49 119t117 49h84q157 0 166 -168h-83q-10 84 -83 84q-35 0 -59.5 -24.5t-24.5 -59.5v-250q0 -33 24.5 -57.5t59.5 -24.5q73 0 83 82h83q-10 -166 -166 -166h-42q52 0 88.5 -37.5t36.5 -87.5q0 -51 -34.5 -88t-85.5 -37q-18 0 -53 9
l32 77q11 -2 17 -2q21 0 31 10t10 31t-10.5 31t-31.5 10h-42v84zM208 634l84 167h83l-83 -167h-84z" />
    <glyph glyph-name="Ddotaccent" unicode="&#x1e0a;" 
d="M84 0v750h333q69 0 118 -49t49 -117v-418q0 -67 -49 -116.5t-118 -49.5h-333zM250 84h84q34 0 58.5 24.5t24.5 57.5v418q0 34 -24.5 58t-58.5 24h-84v-582zM285 800v103h98v-103h-98z" />
    <glyph glyph-name="ddotaccent" unicode="&#x1e0b;" 
d="M584 0h-167v84q-10 -84 -83 -84h-84q-68 0 -117 49t-49 117v250q0 70 49 119t117 49h167v166h167v-750zM417 500h-83q-35 0 -59.5 -24.5t-24.5 -59.5v-250q0 -33 24.5 -57.5t59.5 -24.5q34 0 58.5 24.5t24.5 57.5v334zM285 800v103h98v-103h-98z" />
    <glyph glyph-name="Ddotbelow" unicode="&#x1e0c;" 
d="M84 0v750h333q69 0 118 -49t49 -117v-418q0 -67 -49 -116.5t-118 -49.5h-333zM250 84h84q34 0 58.5 24.5t24.5 57.5v418q0 34 -24.5 58t-58.5 24h-84v-582zM285 -153v103h98v-103h-98z" />
    <glyph glyph-name="ddotbelow" unicode="&#x1e0d;" 
d="M584 0h-167v84q-10 -84 -83 -84h-84q-68 0 -117 49t-49 117v250q0 70 49 119t117 49h167v166h167v-750zM417 500h-83q-35 0 -59.5 -24.5t-24.5 -59.5v-250q0 -33 24.5 -57.5t59.5 -24.5q34 0 58.5 24.5t24.5 57.5v334zM285 -153v103h98v-103h-98z" />
    <glyph glyph-name="Dlinebelow" unicode="&#x1e0e;" 
d="M84 0v750h333q69 0 118 -49t49 -117v-418q0 -67 -49 -116.5t-118 -49.5h-333zM250 84h84q34 0 58.5 24.5t24.5 57.5v418q0 34 -24.5 58t-58.5 24h-84v-582zM167 -134v84h333v-84h-333z" />
    <glyph glyph-name="dlinebelow" unicode="&#x1e0f;" 
d="M584 0h-167v84q-10 -84 -83 -84h-84q-68 0 -117 49t-49 117v250q0 70 49 119t117 49h167v166h167v-750zM417 500h-83q-35 0 -59.5 -24.5t-24.5 -59.5v-250q0 -33 24.5 -57.5t59.5 -24.5q34 0 58.5 24.5t24.5 57.5v334zM167 -134v84h333v-84h-333z" />
    <glyph glyph-name="Dcedilla" unicode="&#x1e10;" 
d="M84 0v750h333q69 0 118 -49t49 -117v-418q0 -67 -49 -116.5t-118 -49.5h-333zM250 84h84q34 0 58.5 24.5t24.5 57.5v418q0 34 -24.5 58t-58.5 24h-84v-582zM250 -50h167v-166q0 -148 -167 -167v83q81 3 84 84h-84v166z" />
    <glyph glyph-name="dcedilla" unicode="&#x1e11;" 
d="M584 0h-167v84q-10 -84 -83 -84h-84q-68 0 -117 49t-49 117v250q0 70 49 119t117 49h167v166h167v-750zM417 500h-83q-35 0 -59.5 -24.5t-24.5 -59.5v-250q0 -33 24.5 -57.5t59.5 -24.5q34 0 58.5 24.5t24.5 57.5v334zM250 -50h167v-166q0 -148 -167 -167v83q81 3 84 84
h-84v166z" />
    <glyph glyph-name="Dcircumflexbelow" unicode="&#x1e12;" 
d="M84 0v750h333q69 0 118 -49t49 -117v-418q0 -67 -49 -116.5t-118 -49.5h-333zM250 84h84q34 0 58.5 24.5t24.5 57.5v418q0 34 -24.5 58t-58.5 24h-84v-582zM167 -217l125 167h83l125 -167h-83l-83 83l-84 -83h-83z" />
    <glyph glyph-name="dcircumflexbelow" unicode="&#x1e13;" 
d="M584 0h-167v84q-10 -84 -83 -84h-84q-68 0 -117 49t-49 117v250q0 70 49 119t117 49h167v166h167v-750zM417 500h-83q-35 0 -59.5 -24.5t-24.5 -59.5v-250q0 -33 24.5 -57.5t59.5 -24.5q34 0 58.5 24.5t24.5 57.5v334zM167 -217l125 167h83l125 -167h-83l-83 83l-84 -83
h-83z" />
    <glyph glyph-name="Emacrongrave" unicode="&#x1e14;" horiz-adv-x="584" 
d="M84 0v750h416v-84h-250v-250h167v-82h-167v-250h250v-84h-416zM125 800v84h333v-84h-333zM292 934l-84 167h84l83 -167h-83z" />
    <glyph glyph-name="emacrongrave" unicode="&#x1e15;" 
d="M584 250h-334v-84q0 -33 24.5 -57.5t59.5 -24.5h83q83 0 83 82h84q-20 -166 -167 -166h-167q-68 0 -117 49t-49 117v250q0 70 49 119t117 49h167q69 0 118 -49.5t49 -118.5v-166zM250 334h167v82q0 35 -24.5 59.5t-58.5 24.5q-35 0 -59.5 -24.5t-24.5 -59.5v-82zM167 634
v83h333v-83h-333zM334 767l-84 167h84l83 -167h-83z" />
    <glyph glyph-name="Emacronacute" unicode="&#x1e16;" horiz-adv-x="584" 
d="M84 0v750h416v-84h-250v-250h167v-82h-167v-250h250v-84h-416zM125 800v84h333v-84h-333zM208 934l84 167h83l-83 -167h-84z" />
    <glyph glyph-name="emacronacute" unicode="&#x1e17;" 
d="M584 250h-334v-84q0 -33 24.5 -57.5t59.5 -24.5h83q83 0 83 82h84q-20 -166 -167 -166h-167q-68 0 -117 49t-49 117v250q0 70 49 119t117 49h167q69 0 118 -49.5t49 -118.5v-166zM250 334h167v82q0 35 -24.5 59.5t-58.5 24.5q-35 0 -59.5 -24.5t-24.5 -59.5v-82zM167 634
v83h333v-83h-333zM250 767l84 167h83l-83 -167h-84z" />
    <glyph glyph-name="Ecircumflexbelow" unicode="&#x1e18;" horiz-adv-x="584" 
d="M84 0v750h416v-84h-250v-250h167v-82h-167v-250h250v-84h-416zM125 -217l125 167h83l125 -167h-83l-83 83l-84 -83h-83z" />
    <glyph glyph-name="ecircumflexbelow" unicode="&#x1e19;" 
d="M584 250h-334v-84q0 -33 24.5 -57.5t59.5 -24.5h83q83 0 83 82h84q-20 -166 -167 -166h-167q-68 0 -117 49t-49 117v250q0 70 49 119t117 49h167q69 0 118 -49.5t49 -118.5v-166zM250 334h167v82q0 35 -24.5 59.5t-58.5 24.5q-35 0 -59.5 -24.5t-24.5 -59.5v-82z
M167 -217l125 167h83l125 -167h-83l-83 83l-84 -83h-83z" />
    <glyph glyph-name="Etildebelow" unicode="&#x1e1a;" horiz-adv-x="584" 
d="M84 0v750h416v-84h-250v-250h167v-82h-167v-250h250v-84h-416zM125 -217h-83q19 167 166 167q49 0 104 -49l11 -10q28 -25 52 -25q73 0 83 84h84q-20 -167 -167 -167q-48 0 -104 49l-11 10q-28 24 -52 24q-73 0 -83 -83z" />
    <glyph glyph-name="etildebelow" unicode="&#x1e1b;" 
d="M584 250h-334v-84q0 -33 24.5 -57.5t59.5 -24.5h83q83 0 83 82h84q-20 -166 -167 -166h-167q-68 0 -117 49t-49 117v250q0 70 49 119t117 49h167q69 0 118 -49.5t49 -118.5v-166zM250 334h167v82q0 35 -24.5 59.5t-58.5 24.5q-35 0 -59.5 -24.5t-24.5 -59.5v-82z
M167 -217h-83q19 167 166 167q48 0 104 -49l11 -10q28 -25 52 -25q73 0 83 84h84q-20 -167 -167 -167q-48 0 -104 49l-11 10q-28 24 -52 24q-73 0 -83 -83z" />
    <glyph glyph-name="Ecedillabreve" unicode="&#x1e1c;" horiz-adv-x="584" 
d="M84 0v750h416v-84h-250v-250h167v-82h-167v-250h250v-84h-416zM375 967h84q-20 -167 -168 -167q-146 0 -166 167h84q9 -83 82 -83q74 0 84 83zM211 -84v84h43q51 0 88 -37t37 -88q0 -54 -39.5 -89.5t-81.5 -35.5q-18 0 -53 9l32 77q11 -2 18 -2q20 0 30 10t10 31
t-10.5 31t-30.5 10h-43z" />
    <glyph glyph-name="ecedillabreve" unicode="&#x1e1d;" 
d="M584 250h-334v-84q0 -33 24.5 -57.5t59.5 -24.5h83q83 0 83 82h84q-20 -166 -167 -166h-167q-68 0 -117 49t-49 117v250q0 70 49 119t117 49h167q69 0 118 -49.5t49 -118.5v-166zM250 334h167v82q0 35 -24.5 59.5t-58.5 24.5q-35 0 -59.5 -24.5t-24.5 -59.5v-82zM417 801
h83q-19 -167 -167 -167q-147 0 -166 167h83q9 -84 83 -84t84 84zM253 -84v84h42q51 0 88 -37t37 -88q0 -54 -39 -89.5t-81 -35.5q-18 0 -53 9l32 77q11 -2 17 -2q21 0 31 10t10 31t-10.5 31t-31.5 10h-42z" />
    <glyph glyph-name="Fdotaccent" unicode="&#x1e1e;" horiz-adv-x="584" 
d="M84 0v750h416v-84h-250v-250h167v-82h-167v-334h-166zM243 800v103h98v-103h-98z" />
    <glyph glyph-name="fdotaccent" unicode="&#x1e1f;" horiz-adv-x="500" 
d="M167 0v500h-83v84h83v7q0 65 47 112t112 47h174v-84h-91q-31 0 -53 -22.5t-22 -52.5v-7h83v-84h-83v-500h-167zM243 800v103h98v-103h-98z" />
    <glyph glyph-name="Gmacron" unicode="&#x1e20;" 
d="M334 416h250v-250q0 -82 -53.5 -124t-113.5 -42h-167q-68 0 -117 49t-49 117v418q0 67 48 116.5t118 49.5h167q157 0 167 -166h-84q-10 82 -83 82h-83q-35 0 -59.5 -24t-24.5 -58v-418q0 -34 24.5 -58t59.5 -24q79 4 83 82v168h-83v82zM167 800v84h333v-84h-333z" />
    <glyph glyph-name="gmacron" unicode="&#x1e21;" 
d="M584 584v-668q0 -68 -49.5 -117t-117.5 -49h-167q-147 0 -166 166h83q6 -82 83 -82h84q34 0 58.5 24t24.5 58v168q-10 -84 -83 -84h-84q-68 0 -117 49t-49 117v250q0 70 49 119t117 49h334zM417 500h-83q-35 0 -59.5 -24.5t-24.5 -59.5v-250q0 -33 24.5 -57.5t59.5 -24.5
q34 0 58.5 24.5t24.5 57.5v334zM167 634v83h333v-83h-333z" />
    <glyph glyph-name="Hdotaccent" unicode="&#x1e22;" 
d="M84 0v750h166v-334h167v334h167v-750h-167v334h-167v-334h-166zM285 800v103h98v-103h-98z" />
    <glyph glyph-name="hdotaccent" unicode="&#x1e23;" 
d="M84 0v750h166v-250q5 42 26 63t58 21h83q69 0 118 -49.5t49 -118.5v-416h-167v416q0 35 -24.5 59.5t-58.5 24.5q-35 0 -59.5 -24.5t-24.5 -59.5v-416h-166zM285 800v103h98v-103h-98z" />
    <glyph glyph-name="Hdotbelow" unicode="&#x1e24;" 
d="M84 0v750h166v-334h167v334h167v-750h-167v334h-167v-334h-166zM285 -153v103h98v-103h-98z" />
    <glyph glyph-name="hdotbelow" unicode="&#x1e25;" 
d="M84 0v750h166v-250q5 42 26 63t58 21h83q69 0 118 -49.5t49 -118.5v-416h-167v416q0 35 -24.5 59.5t-58.5 24.5q-35 0 -59.5 -24.5t-24.5 -59.5v-416h-166zM285 -153v103h98v-103h-98z" />
    <glyph glyph-name="Hdieresis" unicode="&#x1e26;" 
d="M84 0v750h166v-334h167v334h167v-750h-167v334h-167v-334h-166zM167 800v103h98v-103h-98zM402 800v103h98v-103h-98z" />
    <glyph glyph-name="hdieresis" unicode="&#x1e27;" 
d="M84 0v750h166v-250q5 42 26 63t58 21h83q69 0 118 -49.5t49 -118.5v-416h-167v416q0 35 -24.5 59.5t-58.5 24.5q-35 0 -59.5 -24.5t-24.5 -59.5v-416h-166zM167 800v103h98v-103h-98zM402 800v103h98v-103h-98z" />
    <glyph glyph-name="Hcedilla" unicode="&#x1e28;" 
d="M84 0v750h166v-334h167v334h167v-750h-167v334h-167v-334h-166zM89 -84v84h43q51 0 88 -37t37 -88q0 -54 -39 -89.5t-82 -35.5q-18 0 -52 9l31 77q12 -2 18 -2q20 0 30 10t10 31t-10.5 31t-30.5 10h-43z" />
    <glyph glyph-name="hcedilla" unicode="&#x1e29;" 
d="M84 0v750h166v-250q5 42 26 63t58 21h83q69 0 118 -49.5t49 -118.5v-416h-167v416q0 35 -24.5 59.5t-58.5 24.5q-35 0 -59.5 -24.5t-24.5 -59.5v-416h-166zM89 -84v84h43q51 0 88 -37t37 -88q0 -54 -39 -89.5t-82 -35.5q-18 0 -52 9l31 77q12 -2 18 -2q20 0 30 10t10 31
t-10.5 31t-30.5 10h-43z" />
    <glyph glyph-name="Hbrevebelow" unicode="&#x1e2a;" 
d="M84 0v750h166v-334h167v334h167v-750h-167v334h-167v-334h-166zM417 -50h83q-19 -167 -167 -167q-147 0 -166 167h83q9 -84 83 -84t84 84z" />
    <glyph glyph-name="hbrevebelow" unicode="&#x1e2b;" 
d="M84 0v750h166v-250q5 42 26 63t58 21h83q69 0 118 -49.5t49 -118.5v-416h-167v416q0 35 -24.5 59.5t-58.5 24.5q-35 0 -59.5 -24.5t-24.5 -59.5v-416h-166zM417 -50h83q-19 -167 -167 -167q-147 0 -166 167h83q9 -84 83 -84t84 84z" />
    <glyph glyph-name="Itildebelow" unicode="&#x1e2c;" horiz-adv-x="500" 
d="M166 0v750h167v-750h-167zM83 -217h-83q19 167 166 167q48 0 104 -49l11 -10q28 -25 52 -25q73 0 83 84h84q-20 -167 -167 -167q-48 0 -104 49l-11 10q-28 24 -52 24q-73 0 -83 -83z" />
    <glyph glyph-name="itildebelow" unicode="&#x1e2d;" horiz-adv-x="334" 
d="M84 666v84h166v-84h-166zM84 0v584h166v-584h-166zM0 -217h-83q19 167 166 167q49 0 104 -49l11 -10q28 -25 52 -25q73 0 83 84h84q-20 -167 -167 -167q-48 0 -104 49l-11 10q-28 24 -52 24q-73 0 -83 -83z" />
    <glyph glyph-name="Idieresisacute" unicode="&#x1e2e;" horiz-adv-x="500" 
d="M166 0v750h167v-750h-167zM83 800v103h98v-103h-98zM318 800v103h98v-103h-98zM166 953l84 167h83l-83 -167h-84z" />
    <glyph glyph-name="idieresisacute" unicode="&#x1e2f;" horiz-adv-x="334" 
d="M84 0v584h166v-584h-166zM0 634v103h98v-103h-98zM236 634v103h97v-103h-97zM83 787l84 167h83l-83 -167h-84z" />
    <glyph glyph-name="Kacute" unicode="&#x1e30;" horiz-adv-x="750" 
d="M84 0v750h166v-306l270 306h147l-333 -375l333 -375h-167l-250 291v-291h-166zM292 800l83 167h84l-84 -167h-83z" />
    <glyph glyph-name="kacute" unicode="&#x1e31;" 
d="M84 0v750h166v-375l250 209h167l-349 -293l349 -291h-167l-250 209v-209h-166zM292 800l83 167h84l-84 -167h-83z" />
    <glyph glyph-name="Kdotbelow" unicode="&#x1e32;" horiz-adv-x="750" 
d="M84 0v750h166v-306l270 306h147l-333 -375l333 -375h-167l-250 291v-291h-166zM327 -153v103h98v-103h-98z" />
    <glyph glyph-name="kdotbelow" unicode="&#x1e33;" 
d="M84 0v750h166v-375l250 209h167l-349 -293l349 -291h-167l-250 209v-209h-166zM327 -153v103h98v-103h-98z" />
    <glyph glyph-name="Klinebelow" unicode="&#x1e34;" horiz-adv-x="750" 
d="M84 0v750h166v-306l270 306h147l-333 -375l333 -375h-167l-250 291v-291h-166zM209 -134v84h333v-84h-333z" />
    <glyph glyph-name="klinebelow" unicode="&#x1e35;" 
d="M84 0v750h166v-375l250 209h167l-349 -293l349 -291h-167l-250 209v-209h-166zM209 -134v84h333v-84h-333z" />
    <glyph glyph-name="Ldotbelow" unicode="&#x1e36;" horiz-adv-x="584" 
d="M84 0v750h166v-666h250v-84h-416zM243 -153v103h98v-103h-98z" />
    <glyph glyph-name="ldotbelow" unicode="&#x1e37;" horiz-adv-x="334" 
d="M84 0v750h166v-750h-166zM118 -153v103h98v-103h-98z" />
    <glyph glyph-name="Ldotbelowmacron" unicode="&#x1e38;" horiz-adv-x="584" 
d="M84 0v750h166v-666h250v-84h-416zM243 -153v103h98v-103h-98zM125 800v84h333v-84h-333z" />
    <glyph glyph-name="ldotbelowmacron" unicode="&#x1e39;" horiz-adv-x="334" 
d="M84 0v750h166v-750h-166zM118 -153v103h98v-103h-98zM0 800v84h333v-84h-333z" />
    <glyph glyph-name="Llinebelow" unicode="&#x1e3a;" horiz-adv-x="584" 
d="M84 0v750h166v-666h250v-84h-416zM125 -134v84h333v-84h-333z" />
    <glyph glyph-name="llinebelow" unicode="&#x1e3b;" horiz-adv-x="334" 
d="M84 0v750h166v-750h-166zM0 -134v84h333v-84h-333z" />
    <glyph glyph-name="Lcircumflexbelow" unicode="&#x1e3c;" horiz-adv-x="584" 
d="M84 0v750h166v-666h250v-84h-416zM125 -217l125 167h83l125 -167h-83l-83 83l-84 -83h-83z" />
    <glyph glyph-name="lcircumflexbelow" unicode="&#x1e3d;" horiz-adv-x="334" 
d="M84 0v750h166v-750h-166zM0 -217l125 167h83l125 -167h-83l-83 83l-84 -83h-83z" />
    <glyph glyph-name="Macute" unicode="&#x1e3e;" horiz-adv-x="1000" 
d="M84 0v750h37l357 -355l356 355h83v-750h-167v459l-293 -293l-290 293v-459h-83zM417 800l83 167h84l-84 -167h-83z" />
    <glyph glyph-name="macute" unicode="&#x1e3f;" horiz-adv-x="1000" 
d="M584 0h-167v416q0 35 -24.5 59.5t-58.5 24.5q-35 0 -59.5 -24.5t-24.5 -59.5v-416h-166v584h166v-84q5 42 26 63t58 21h83q85 0 125 -59q20 29 51 44t74 15h83q68 0 117.5 -49t49.5 -119v-416h-167v416q0 34 -24.5 59t-58.5 25t-58.5 -24.5t-24.5 -59.5v-416zM417 634
l83 167h84l-84 -167h-83z" />
    <glyph glyph-name="Mdotaccent" unicode="&#x1e40;" horiz-adv-x="1000" 
d="M84 0v750h37l357 -355l356 355h83v-750h-167v459l-293 -293l-290 293v-459h-83zM452 800v103h98v-103h-98z" />
    <glyph glyph-name="mdotaccent" unicode="&#x1e41;" horiz-adv-x="1000" 
d="M584 0h-167v416q0 35 -24.5 59.5t-58.5 24.5q-35 0 -59.5 -24.5t-24.5 -59.5v-416h-166v584h166v-84q5 42 26 63t58 21h83q85 0 125 -59q20 29 51 44t74 15h83q68 0 117.5 -49t49.5 -119v-416h-167v416q0 34 -24.5 59t-58.5 25t-58.5 -24.5t-24.5 -59.5v-416zM452 634
v103h98v-103h-98z" />
    <glyph glyph-name="Mdotbelow" unicode="&#x1e42;" horiz-adv-x="1000" 
d="M84 0v750h37l357 -355l356 355h83v-750h-167v459l-293 -293l-290 293v-459h-83zM452 -153v103h98v-103h-98z" />
    <glyph glyph-name="mdotbelow" unicode="&#x1e43;" horiz-adv-x="1000" 
d="M584 0h-167v416q0 35 -24.5 59.5t-58.5 24.5q-35 0 -59.5 -24.5t-24.5 -59.5v-416h-166v584h166v-84q5 42 26 63t58 21h83q85 0 125 -59q20 29 51 44t74 15h83q68 0 117.5 -49t49.5 -119v-416h-167v416q0 34 -24.5 59t-58.5 25t-58.5 -24.5t-24.5 -59.5v-416zM452 -153
v103h98v-103h-98z" />
    <glyph glyph-name="Ndotaccent" unicode="&#x1e44;" horiz-adv-x="750" 
d="M84 0v750h37l463 -416v416h83v-750h-38l-462 416v-416h-83zM327 800v103h98v-103h-98z" />
    <glyph glyph-name="ndotaccent" unicode="&#x1e45;" 
d="M84 0v584h166v-84q5 42 26 63t58 21h83q69 0 118 -49.5t49 -118.5v-416h-167v416q0 35 -24.5 59.5t-58.5 24.5q-35 0 -59.5 -24.5t-24.5 -59.5v-416h-166zM285 634v103h98v-103h-98z" />
    <glyph glyph-name="Ndotbelow" unicode="&#x1e46;" horiz-adv-x="750" 
d="M84 0v750h37l463 -416v416h83v-750h-38l-462 416v-416h-83zM327 -153v103h98v-103h-98z" />
    <glyph glyph-name="ndotbelow" unicode="&#x1e47;" 
d="M84 0v584h166v-84q5 42 26 63t58 21h83q69 0 118 -49.5t49 -118.5v-416h-167v416q0 35 -24.5 59.5t-58.5 24.5q-35 0 -59.5 -24.5t-24.5 -59.5v-416h-166zM285 -153v103h98v-103h-98z" />
    <glyph glyph-name="Nlinebelow" unicode="&#x1e48;" horiz-adv-x="750" 
d="M84 0v750h37l463 -416v416h83v-750h-38l-462 416v-416h-83zM209 -134v84h333v-84h-333z" />
    <glyph glyph-name="nlinebelow" unicode="&#x1e49;" 
d="M84 0v584h166v-84q5 42 26 63t58 21h83q69 0 118 -49.5t49 -118.5v-416h-167v416q0 35 -24.5 59.5t-58.5 24.5q-35 0 -59.5 -24.5t-24.5 -59.5v-416h-166zM167 -134v84h333v-84h-333z" />
    <glyph glyph-name="Ncircumflexbelow" unicode="&#x1e4a;" horiz-adv-x="750" 
d="M84 0v750h37l463 -416v416h83v-750h-38l-462 416v-416h-83zM209 -217l125 167h83l125 -167h-83l-84 83l-83 -83h-83z" />
    <glyph glyph-name="ncircumflexbelow" unicode="&#x1e4b;" 
d="M84 0v584h166v-84q5 42 26 63t58 21h83q69 0 118 -49.5t49 -118.5v-416h-167v416q0 35 -24.5 59.5t-58.5 24.5q-35 0 -59.5 -24.5t-24.5 -59.5v-416h-166zM167 -217l125 167h83l125 -167h-83l-83 83l-84 -83h-83z" />
    <glyph glyph-name="Otildeacute" unicode="&#x1e4c;" 
d="M250 750h167q69 0 118 -49t49 -117v-418q0 -67 -49 -116.5t-118 -49.5h-167q-68 0 -117 49t-49 117v418q0 68 49 117t117 49zM250 584v-418q0 -33 24.5 -57.5t59.5 -24.5q34 0 58.5 24.5t24.5 57.5v418q0 34 -24.5 58t-58.5 24q-35 0 -59.5 -24t-24.5 -58zM167 800h-83
q19 167 166 167q48 0 104 -49l11 -10q28 -24 52 -24q73 0 83 83h84q-20 -167 -167 -167q-48 0 -104 49l-11 10q-28 25 -52 25q-73 0 -83 -84zM250 1017l84 167h83l-83 -167h-84z" />
    <glyph glyph-name="otildeacute" unicode="&#x1e4d;" 
d="M250 584h167q69 0 118 -49.5t49 -118.5v-250q0 -67 -49 -116.5t-118 -49.5h-167q-68 0 -117 49t-49 117v250q0 70 49 119t117 49zM250 416v-250q0 -33 24.5 -57.5t59.5 -24.5q34 0 58.5 24.5t24.5 57.5v250q0 35 -24.5 59.5t-58.5 24.5q-35 0 -59.5 -24.5t-24.5 -59.5z
M167 634h-83q19 167 166 167q48 0 104 -49l11 -10q28 -25 52 -25q73 0 83 84h84q-20 -167 -167 -167q-48 0 -104 48l-11 11q-28 24 -52 24q-73 0 -83 -83zM250 851l84 167h83l-83 -167h-84z" />
    <glyph glyph-name="Otildedieresis" unicode="&#x1e4e;" 
d="M250 750h167q69 0 118 -49t49 -117v-418q0 -67 -49 -116.5t-118 -49.5h-167q-68 0 -117 49t-49 117v418q0 68 49 117t117 49zM250 584v-418q0 -33 24.5 -57.5t59.5 -24.5q34 0 58.5 24.5t24.5 57.5v418q0 34 -24.5 58t-58.5 24q-35 0 -59.5 -24t-24.5 -58zM167 800h-83
q19 167 166 167q48 0 104 -49l11 -10q28 -24 52 -24q73 0 83 83h84q-20 -167 -167 -167q-48 0 -104 49l-11 10q-28 25 -52 25q-73 0 -83 -84zM167 1017v103h98v-103h-98zM402 1017v103h98v-103h-98z" />
    <glyph glyph-name="otildedieresis" unicode="&#x1e4f;" 
d="M250 584h167q69 0 118 -49.5t49 -118.5v-250q0 -67 -49 -116.5t-118 -49.5h-167q-68 0 -117 49t-49 117v250q0 70 49 119t117 49zM250 416v-250q0 -33 24.5 -57.5t59.5 -24.5q34 0 58.5 24.5t24.5 57.5v250q0 35 -24.5 59.5t-58.5 24.5q-35 0 -59.5 -24.5t-24.5 -59.5z
M167 634h-83q19 167 166 167q48 0 104 -49l11 -10q28 -25 52 -25q73 0 83 84h84q-20 -167 -167 -167q-48 0 -104 48l-11 11q-28 24 -52 24q-73 0 -83 -83zM167 851v103h98v-103h-98zM402 851v103h98v-103h-98z" />
    <glyph glyph-name="Omacrongrave" unicode="&#x1e50;" 
d="M250 750h167q69 0 118 -49t49 -117v-418q0 -67 -49 -116.5t-118 -49.5h-167q-68 0 -117 49t-49 117v418q0 68 49 117t117 49zM250 584v-418q0 -33 24.5 -57.5t59.5 -24.5q34 0 58.5 24.5t24.5 57.5v418q0 34 -24.5 58t-58.5 24q-35 0 -59.5 -24t-24.5 -58zM167 800v84
h333v-84h-333zM334 934l-84 167h84l83 -167h-83z" />
    <glyph glyph-name="omacrongrave" unicode="&#x1e51;" 
d="M250 584h167q69 0 118 -49.5t49 -118.5v-250q0 -67 -49 -116.5t-118 -49.5h-167q-68 0 -117 49t-49 117v250q0 70 49 119t117 49zM250 416v-250q0 -33 24.5 -57.5t59.5 -24.5q34 0 58.5 24.5t24.5 57.5v250q0 35 -24.5 59.5t-58.5 24.5q-35 0 -59.5 -24.5t-24.5 -59.5z
M167 634v83h333v-83h-333zM334 767l-84 167h84l83 -167h-83z" />
    <glyph glyph-name="Omacronacute" unicode="&#x1e52;" 
d="M250 750h167q69 0 118 -49t49 -117v-418q0 -67 -49 -116.5t-118 -49.5h-167q-68 0 -117 49t-49 117v418q0 68 49 117t117 49zM250 584v-418q0 -33 24.5 -57.5t59.5 -24.5q34 0 58.5 24.5t24.5 57.5v418q0 34 -24.5 58t-58.5 24q-35 0 -59.5 -24t-24.5 -58zM167 800v84
h333v-84h-333zM250 934l84 167h83l-83 -167h-84z" />
    <glyph glyph-name="omacronacute" unicode="&#x1e53;" 
d="M250 584h167q69 0 118 -49.5t49 -118.5v-250q0 -67 -49 -116.5t-118 -49.5h-167q-68 0 -117 49t-49 117v250q0 70 49 119t117 49zM250 416v-250q0 -33 24.5 -57.5t59.5 -24.5q34 0 58.5 24.5t24.5 57.5v250q0 35 -24.5 59.5t-58.5 24.5q-35 0 -59.5 -24.5t-24.5 -59.5z
M167 634v83h333v-83h-333zM250 767l84 167h83l-83 -167h-84z" />
    <glyph glyph-name="Pacute" unicode="&#x1e54;" 
d="M84 0v750h333q69 0 118 -49t49 -117v-84q0 -68 -49 -117t-118 -49h-167v-334h-166zM250 416h84q34 0 58.5 25t24.5 59v84q0 34 -24.5 58t-58.5 24h-84v-250zM250 800l84 167h83l-83 -167h-84z" />
    <glyph glyph-name="pacute" unicode="&#x1e55;" 
d="M84 584h166v-84q0 42 21 63t63 21h83q69 0 118 -49.5t49 -118.5v-250q0 -68 -49 -117t-118 -49h-167v-166h-166v750zM250 84h84q34 0 58.5 24t24.5 58v250q0 35 -24.5 59.5t-58.5 24.5q-35 0 -59.5 -24.5t-24.5 -59.5v-332zM250 634l84 167h83l-83 -167h-84z" />
    <glyph glyph-name="Pdotaccent" unicode="&#x1e56;" 
d="M84 0v750h333q69 0 118 -49t49 -117v-84q0 -68 -49 -117t-118 -49h-167v-334h-166zM250 416h84q34 0 58.5 25t24.5 59v84q0 34 -24.5 58t-58.5 24h-84v-250zM285 800v103h98v-103h-98z" />
    <glyph glyph-name="pdotaccent" unicode="&#x1e57;" 
d="M84 584h166v-84q0 42 21 63t63 21h83q69 0 118 -49.5t49 -118.5v-250q0 -68 -49 -117t-118 -49h-167v-166h-166v750zM250 84h84q34 0 58.5 24t24.5 58v250q0 35 -24.5 59.5t-58.5 24.5q-35 0 -59.5 -24.5t-24.5 -59.5v-332zM285 634v103h98v-103h-98z" />
    <glyph glyph-name="Rdotaccent" unicode="&#x1e58;" 
d="M84 0v750h333q69 0 118 -49t49 -117v-46q0 -56 -38.5 -107.5t-128.5 -51.5h83q34 0 59 -24.5t25 -59.5v-295h-167v250q0 34 -24.5 59t-58.5 25h-84v-334h-166zM250 416h84q34 0 58.5 25t24.5 59v84q0 34 -24.5 58t-58.5 24h-84v-250zM285 800v103h98v-103h-98z" />
    <glyph glyph-name="rdotaccent" unicode="&#x1e59;" horiz-adv-x="500" 
d="M250 0h-166v584h166v-168q10 84 51.5 126t115.5 42h83v-168h-166q-35 0 -59.5 -24t-24.5 -58v-334zM243 634v103h98v-103h-98z" />
    <glyph glyph-name="Rdotbelow" unicode="&#x1e5a;" 
d="M84 0v750h333q69 0 118 -49t49 -117v-46q0 -56 -38.5 -107.5t-128.5 -51.5h83q34 0 59 -24.5t25 -59.5v-295h-167v250q0 34 -24.5 59t-58.5 25h-84v-334h-166zM250 416h84q34 0 58.5 25t24.5 59v84q0 34 -24.5 58t-58.5 24h-84v-250zM285 -153v103h98v-103h-98z" />
    <glyph glyph-name="rdotbelow" unicode="&#x1e5b;" horiz-adv-x="500" 
d="M250 0h-166v584h166v-168q10 84 51.5 126t115.5 42h83v-168h-166q-35 0 -59.5 -24t-24.5 -58v-334zM243 -153v103h98v-103h-98z" />
    <glyph glyph-name="Rdotbelowmacron" unicode="&#x1e5c;" 
d="M84 0v750h333q69 0 118 -49t49 -117v-46q0 -56 -38.5 -107.5t-128.5 -51.5h83q34 0 59 -24.5t25 -59.5v-295h-167v250q0 34 -24.5 59t-58.5 25h-84v-334h-166zM250 416h84q34 0 58.5 25t24.5 59v84q0 34 -24.5 58t-58.5 24h-84v-250zM167 800v84h333v-84h-333zM285 -153
v103h98v-103h-98z" />
    <glyph glyph-name="rdotbelowmacron" unicode="&#x1e5d;" horiz-adv-x="500" 
d="M250 0h-166v584h166v-168q10 84 51.5 126t115.5 42h83v-168h-166q-35 0 -59.5 -24t-24.5 -58v-334zM125 634v83h333v-83h-333zM243 -153v103h98v-103h-98z" />
    <glyph glyph-name="Rlinebelow" unicode="&#x1e5e;" 
d="M84 0v750h333q69 0 118 -49t49 -117v-46q0 -56 -38.5 -107.5t-128.5 -51.5h83q34 0 59 -24.5t25 -59.5v-295h-167v250q0 34 -24.5 59t-58.5 25h-84v-334h-166zM250 416h84q34 0 58.5 25t24.5 59v84q0 34 -24.5 58t-58.5 24h-84v-250zM167 -134v84h333v-84h-333z" />
    <glyph glyph-name="rlinebelow" unicode="&#x1e5f;" horiz-adv-x="500" 
d="M250 0h-166v584h166v-168q10 84 51.5 126t115.5 42h83v-168h-166q-35 0 -59.5 -24t-24.5 -58v-334zM125 -134v84h333v-84h-333z" />
    <glyph glyph-name="Sdotaccent" unicode="&#x1e60;" horiz-adv-x="584" 
d="M500 584h-83q-11 83 -79 83q-43 0 -65.5 -21t-22.5 -63q0 -31 25 -58l176 -199q49 -55 49 -117v-43q0 -67 -49 -116.5t-117 -49.5h-84q-83 0 -124.5 42t-41.5 124h83q-1 -8 -1 -13q0 -34 26.5 -51.5t57.5 -17.5q45 0 64.5 21.5t19.5 62.5q0 31 -25 58l-177 198
q-48 54 -48 117v43q0 68 48.5 117t117.5 49h84q156 0 166 -166zM243 800v103h98v-103h-98z" />
    <glyph glyph-name="sdotaccent" unicode="&#x1e61;" horiz-adv-x="584" 
d="M500 416h-83q-11 84 -79 84q-44 0 -66 -17.5t-22 -51.5q0 -36 121 -101q99 -53 114 -88t15 -74q0 -70 -49 -119t-117 -49h-84q-166 0 -166 166h83q10 -83 78 -83q44 0 66.5 17.5t22.5 52.5t-121 101q-99 52 -114 87.5t-15 74.5q0 70 49 119t117 49h84q156 0 166 -168z
M243 634v103h98v-103h-98z" />
    <glyph glyph-name="Sdotbelow" unicode="&#x1e62;" horiz-adv-x="584" 
d="M500 584h-83q-11 83 -79 83q-43 0 -65.5 -21t-22.5 -63q0 -31 25 -58l176 -199q49 -55 49 -117v-43q0 -67 -49 -116.5t-117 -49.5h-84q-83 0 -124.5 42t-41.5 124h83q-1 -8 -1 -13q0 -34 26.5 -51.5t57.5 -17.5q45 0 64.5 21.5t19.5 62.5q0 31 -25 58l-177 198
q-48 54 -48 117v43q0 68 48.5 117t117.5 49h84q156 0 166 -166zM243 -153v103h98v-103h-98z" />
    <glyph glyph-name="sdotbelow" unicode="&#x1e63;" horiz-adv-x="584" 
d="M500 416h-83q-11 84 -79 84q-44 0 -66 -17.5t-22 -51.5q0 -36 121 -101q99 -53 114 -88t15 -74q0 -70 -49 -119t-117 -49h-84q-166 0 -166 166h83q10 -83 78 -83q44 0 66.5 17.5t22.5 52.5t-121 101q-99 52 -114 87.5t-15 74.5q0 70 49 119t117 49h84q156 0 166 -168z
M243 -153v103h98v-103h-98z" />
    <glyph glyph-name="Sacutedotaccent" unicode="&#x1e64;" horiz-adv-x="584" 
d="M500 584h-83q-11 83 -79 83q-43 0 -65.5 -21t-22.5 -63q0 -31 25 -58l176 -199q49 -55 49 -117v-43q0 -67 -49 -116.5t-117 -49.5h-84q-83 0 -124.5 42t-41.5 124h83q-1 -8 -1 -13q0 -34 26.5 -51.5t57.5 -17.5q45 0 64.5 21.5t19.5 62.5q0 31 -25 58l-177 198
q-48 54 -48 117v43q0 68 48.5 117t117.5 49h84q156 0 166 -166zM208 800l84 167h83l-83 -167h-84zM243 1017v103h98v-103h-98z" />
    <glyph glyph-name="sacutedotaccent" unicode="&#x1e65;" horiz-adv-x="584" 
d="M500 416h-83q-11 84 -79 84q-44 0 -66 -17.5t-22 -51.5q0 -36 121 -101q99 -53 114 -88t15 -74q0 -70 -49 -119t-117 -49h-84q-166 0 -166 166h83q10 -83 78 -83q44 0 66.5 17.5t22.5 52.5t-121 101q-99 52 -114 87.5t-15 74.5q0 70 49 119t117 49h84q156 0 166 -168z
M208 634l84 167h83l-83 -167h-84zM243 851v103h98v-103h-98z" />
    <glyph glyph-name="Scarondotaccent" unicode="&#x1e66;" horiz-adv-x="584" 
d="M500 584h-83q-11 83 -79 83q-43 0 -65.5 -21t-22.5 -63q0 -31 25 -58l176 -199q49 -55 49 -117v-43q0 -67 -49 -116.5t-117 -49.5h-84q-83 0 -124.5 42t-41.5 124h83q-1 -8 -1 -13q0 -34 26.5 -51.5t57.5 -17.5q45 0 64.5 21.5t19.5 62.5q0 31 -25 58l-177 198
q-48 54 -48 117v43q0 68 48.5 117t117.5 49h84q156 0 166 -166zM458 967l-125 -167h-83l-125 167h83l84 -83l83 83h83zM243 1017v103h98v-103h-98z" />
    <glyph glyph-name="scarondotaccent" unicode="&#x1e67;" horiz-adv-x="584" 
d="M500 416h-83q-11 84 -79 84q-44 0 -66 -17.5t-22 -51.5q0 -36 121 -101q99 -53 114 -88t15 -74q0 -70 -49 -119t-117 -49h-84q-166 0 -166 166h83q10 -83 78 -83q44 0 66.5 17.5t22.5 52.5t-121 101q-99 52 -114 87.5t-15 74.5q0 70 49 119t117 49h84q156 0 166 -168z
M458 800l-125 -166h-83l-125 167h83l84 -84l83 83h83zM243 851v103h98v-103h-98z" />
    <glyph glyph-name="Sdotbelowdotaccent" unicode="&#x1e68;" horiz-adv-x="584" 
d="M500 584h-83q-11 83 -79 83q-43 0 -65.5 -21t-22.5 -63q0 -31 25 -58l176 -199q49 -55 49 -117v-43q0 -67 -49 -116.5t-117 -49.5h-84q-83 0 -124.5 42t-41.5 124h83q-1 -8 -1 -13q0 -34 26.5 -51.5t57.5 -17.5q45 0 64.5 21.5t19.5 62.5q0 31 -25 58l-177 198
q-48 54 -48 117v43q0 68 48.5 117t117.5 49h84q156 0 166 -166zM243 -153v103h98v-103h-98zM243 800v103h98v-103h-98z" />
    <glyph glyph-name="sdotbelowdotaccent" unicode="&#x1e69;" horiz-adv-x="584" 
d="M500 416h-83q-11 84 -79 84q-44 0 -66 -17.5t-22 -51.5q0 -36 121 -101q99 -53 114 -88t15 -74q0 -70 -49 -119t-117 -49h-84q-166 0 -166 166h83q10 -83 78 -83q44 0 66.5 17.5t22.5 52.5t-121 101q-99 52 -114 87.5t-15 74.5q0 70 49 119t117 49h84q156 0 166 -168z
M243 -153v103h98v-103h-98zM243 634v103h98v-103h-98z" />
    <glyph glyph-name="Tdotaccent" unicode="&#x1e6a;" horiz-adv-x="500" 
d="M166 0v666h-166v84h500v-84h-166v-666h-168zM201 800v103h98v-103h-98z" />
    <glyph glyph-name="tdotaccent" unicode="&#x1e6b;" horiz-adv-x="500" 
d="M167 750h167v-166h83v-84h-83v-334q0 -40 26.5 -61t48.5 -21h8v-84h-83q-69 0 -118 49t-49 117v334h-83v84h83v166zM202 800v103h98v-103h-98z" />
    <glyph glyph-name="Tdotbelow" unicode="&#x1e6c;" horiz-adv-x="500" 
d="M166 0v666h-166v84h500v-84h-166v-666h-168zM201 -153v103h98v-103h-98z" />
    <glyph glyph-name="tdotbelow" unicode="&#x1e6d;" horiz-adv-x="500" 
d="M167 750h167v-166h83v-84h-83v-334q0 -40 26.5 -61t48.5 -21h8v-84h-83q-69 0 -118 49t-49 117v334h-83v84h83v166zM202 -153v103h98v-103h-98z" />
    <glyph glyph-name="Tlinebelow" unicode="&#x1e6e;" horiz-adv-x="500" 
d="M166 0v666h-166v84h500v-84h-166v-666h-168zM84 -134v84h332v-84h-332z" />
    <glyph glyph-name="tlinebelow" unicode="&#x1e6f;" horiz-adv-x="500" 
d="M167 750h167v-166h83v-84h-83v-334q0 -40 26.5 -61t48.5 -21h8v-84h-83q-69 0 -118 49t-49 117v334h-83v84h83v166zM84 -134v84h333v-84h-333z" />
    <glyph glyph-name="Tcircumflexbelow" unicode="&#x1e70;" horiz-adv-x="500" 
d="M166 0v666h-166v84h500v-84h-166v-666h-168zM84 -217l125 167h82l125 -167h-82l-84 83l-84 -83h-82z" />
    <glyph glyph-name="tcircumflexbelow" unicode="&#x1e71;" horiz-adv-x="500" 
d="M167 750h167v-166h83v-84h-83v-334q0 -40 26.5 -61t48.5 -21h8v-84h-83q-69 0 -118 49t-49 117v334h-83v84h83v166zM84 -217l125 167h83l125 -167h-83l-84 83l-83 -83h-83z" />
    <glyph glyph-name="Udieresisbelow" unicode="&#x1e72;" 
d="M417 750h167v-584q0 -67 -49 -116.5t-118 -49.5h-167q-68 0 -117 49t-49 117v584h166v-584q0 -33 24.5 -57.5t59.5 -24.5q34 0 58.5 24.5t24.5 57.5v584zM167 -153v103h98v-103h-98zM402 -153v103h98v-103h-98z" />
    <glyph glyph-name="udieresisbelow" unicode="&#x1e73;" 
d="M584 584v-584h-167v84q-10 -84 -83 -84h-84q-68 0 -117 49t-49 117v418h166v-418q0 -33 24.5 -57.5t59.5 -24.5q34 0 58.5 24.5t24.5 57.5v418h167zM167 -153v103h98v-103h-98zM402 -153v103h98v-103h-98z" />
    </font>
</defs>
</svg>
