<?xml version="1.0" encoding="utf-8"?>
<!-- Generator: Adobe Illustrator 18.0.0, SVG Export Plug-In . SVG Version: 6.00 Build 0)  -->
<!DOCTYPE svg PUBLIC "-//W3C//DTD SVG 1.1//EN" "http://www.w3.org/Graphics/SVG/1.1/DTD/svg11.dtd">
<svg version="1.1" id="Layer_1" xmlns="http://www.w3.org/2000/svg" xmlns:xlink="http://www.w3.org/1999/xlink" x="0px" y="0px"
	 viewBox="0 0 280.5 66" enable-background="new 0 0 280.5 66" xml:space="preserve">
<pattern  x="-850.5" y="-291" width="6" height="6" patternUnits="userSpaceOnUse" id="New_Pattern" viewBox="0.5 -6.5 6 6" overflow="visible">
	<g>
		<polygon fill="none" points="0.5,-6.5 6.5,-6.5 6.5,-0.5 0.5,-0.5 		"/>
		<polygon points="5.5,0 4.5,0 4.5,-1 5.5,-1 		"/>
		<polygon points="2.5,0 1.5,0 1.5,-1 2.5,-1 		"/>
		<polygon points="7,-3 6,-3 6,-4 7,-4 		"/>
		<polygon points="4,-3 3,-3 3,-4 4,-4 		"/>
		<polygon points="1,-3 0,-3 0,-4 1,-4 		"/>
		<polygon points="5.5,-6 4.5,-6 4.5,-7 5.5,-7 		"/>
		<polygon points="2.5,-6 1.5,-6 1.5,-7 2.5,-7 		"/>
	</g>
</pattern>
<g>
	<circle fill="#FFFFFF" cx="-876" cy="-66.2" r="8"/>
	<line fill="none" stroke="#000000" stroke-width="2" stroke-miterlimit="10" x1="-871" y1="-66.2" x2="-881" y2="-66.2"/>
</g>
<g>
	<circle fill="#FFFFFF" cx="-849.5" cy="-66.2" r="8"/>
	<g>
		<line fill="none" stroke="#000000" stroke-width="2" stroke-miterlimit="10" x1="-844.5" y1="-66.2" x2="-854.5" y2="-66.2"/>
		<line fill="none" stroke="#000000" stroke-width="2" stroke-miterlimit="10" x1="-849.5" y1="-71.2" x2="-849.5" y2="-61.2"/>
	</g>
</g>
<g>
	<circle fill="#FFFFFF" cx="-902" cy="-66.2" r="8"/>
	<g>
		<line fill="none" stroke="#000000" stroke-width="2" stroke-miterlimit="10" x1="-898.4" y1="-62.7" x2="-905.5" y2="-69.8"/>
		<line fill="none" stroke="#000000" stroke-width="2" stroke-miterlimit="10" x1="-898.4" y1="-69.8" x2="-905.5" y2="-62.7"/>
	</g>
</g>
<g>
	<rect x="-113.7" y="-466.5" stroke="#FFFFFF" stroke-miterlimit="10" width="385" height="202"/>
	<circle fill="#FFFFFF" cx="-106.7" cy="-459.5" r="3"/>
	<circle fill="#FFFFFF" cx="-97.7" cy="-459.5" r="3"/>
	<circle fill="#FFFFFF" cx="-88.7" cy="-459.5" r="3"/>
	<line fill="none" stroke="#FFFFFF" stroke-miterlimit="10" x1="-113.7" y1="-452.5" x2="271.3" y2="-452.5"/>
	<line fill="none" stroke="#FFFFFF" stroke-width="20" stroke-miterlimit="10" x1="-93.7" y1="-420.3" x2="3.1" y2="-420.3"/>
	<line fill="none" stroke="#FFFFFF" stroke-width="2" stroke-miterlimit="10" x1="-93.7" y1="-390.3" x2="7.1" y2="-390.3"/>
	<line fill="none" stroke="#FFFFFF" stroke-width="2" stroke-miterlimit="10" x1="-93.7" y1="-384.3" x2="-1.9" y2="-384.3"/>
	<line fill="none" stroke="#FFFFFF" stroke-width="2" stroke-miterlimit="10" x1="-93.7" y1="-378.3" x2="3.1" y2="-378.3"/>
	<line fill="none" stroke="#FFFFFF" stroke-width="2" stroke-miterlimit="10" x1="-93.7" y1="-372.3" x2="7.1" y2="-372.3"/>
	<line fill="none" stroke="#FFFFFF" stroke-width="2" stroke-miterlimit="10" x1="-93.7" y1="-366.3" x2="-1.9" y2="-366.3"/>
	<line fill="none" stroke="#FFFFFF" stroke-width="2" stroke-miterlimit="10" x1="-93.7" y1="-360.3" x2="3.1" y2="-360.3"/>
	<line fill="none" stroke="#FFFFFF" stroke-width="2" stroke-miterlimit="10" x1="-93.7" y1="-354.3" x2="7.1" y2="-354.3"/>
	<line fill="none" stroke="#FFFFFF" stroke-width="2" stroke-miterlimit="10" x1="-93.7" y1="-348.3" x2="-1.9" y2="-348.3"/>
	<line fill="none" stroke="#FFFFFF" stroke-width="2" stroke-miterlimit="10" x1="-93.7" y1="-342.3" x2="3.1" y2="-342.3"/>
	<line fill="none" stroke="#FFFFFF" stroke-width="2" stroke-miterlimit="10" x1="-93.7" y1="-336.3" x2="7.1" y2="-336.3"/>
	<line fill="none" stroke="#FFFFFF" stroke-width="2" stroke-miterlimit="10" x1="-93.7" y1="-330.3" x2="-1.9" y2="-330.3"/>
	<line fill="none" stroke="#FFFFFF" stroke-width="2" stroke-miterlimit="10" x1="-93.7" y1="-324.3" x2="3.1" y2="-324.3"/>
	<line fill="none" stroke="#FFFFFF" stroke-width="2" stroke-miterlimit="10" x1="-93.7" y1="-318.3" x2="7.1" y2="-318.3"/>
	<line fill="none" stroke="#FFFFFF" stroke-width="2" stroke-miterlimit="10" x1="-93.7" y1="-312.3" x2="-1.9" y2="-312.3"/>
	<line fill="none" stroke="#FFFFFF" stroke-width="2" stroke-miterlimit="10" x1="-93.7" y1="-306.3" x2="3.1" y2="-306.3"/>
	<line fill="none" stroke="#FFFFFF" stroke-width="2" stroke-miterlimit="10" x1="-93.7" y1="-300.3" x2="7.1" y2="-300.3"/>
	<line fill="none" stroke="#FFFFFF" stroke-width="2" stroke-miterlimit="10" x1="-93.7" y1="-294.3" x2="-1.9" y2="-294.3"/>
	<line fill="none" stroke="#FFFFFF" stroke-width="2" stroke-miterlimit="10" x1="-93.7" y1="-288.3" x2="3.1" y2="-288.3"/>
	<g>
		<path fill="#FFFFFF" d="M81.9-389.6c-1-4.4-0.2-8.6,2.5-12.7c3.5-5.5,7.9-8.3,13.2-8.5c2.9-0.1,5.5,0.5,7.6,1.7l-4.4,6.9
			c-1.9-0.6-3.4-0.8-4.7-0.6c-2.2,0.3-4.1,1.6-5.7,4.1c-1.6,2.4-1.8,5-0.7,7.7c1.1,2.7,3.5,5.3,7.2,7.7c3.7,2.4,6.9,3.4,9.7,3.1
			c2.8-0.3,4.9-1.6,6.4-3.9c1.5-2.4,1.9-4.7,1.1-6.9c-0.4-1.2-1.3-2.6-2.7-4.2l4.4-6.8c3.2,2.9,5.1,6.3,5.8,10.2
			c0.7,3.9-0.2,7.7-2.7,11.5c-3,4.7-6.9,7.4-11.7,8.1c-4.8,0.7-9.8-0.7-15.1-4.1C86.5-380.1,83-384.5,81.9-389.6z"/>
		<path fill="#FFFFFF" d="M160.8-400.7c-2.9,3.1-7.2,4.7-12.7,4.8c-5.6,0.1-9.9-1.4-12.9-4.4c-4-3.7-6.1-9-6.2-16
			c-0.1-7.2,1.8-12.6,5.7-16.2c2.9-3.1,7.2-4.7,12.7-4.8c5.6-0.1,9.9,1.4,12.9,4.4c4,3.5,6.1,8.9,6.2,16
			C166.5-409.9,164.6-404.5,160.8-400.7z M155.5-406.6c1.9-2.4,2.8-5.8,2.7-10.2c-0.1-4.4-1.1-7.8-3-10.1c-1.9-2.4-4.5-3.5-7.8-3.5
			c-3.2,0.1-5.8,1.3-7.7,3.7c-1.9,2.4-2.8,5.8-2.7,10.2c0.1,4.4,1.1,7.8,3.1,10.1c2,2.4,4.6,3.5,7.8,3.5
			C151.1-402.9,153.7-404.1,155.5-406.6z"/>
		<path fill="#FFFFFF" d="M201.4-416.6l4.9,7l-13.5,28.3l22.4-15.6l4.4,6.3l-32.1,22.4l-4.7-6.7l13.7-28.9L173.6-388l-4.4-6.3
			L201.4-416.6z"/>
		<path fill="#FFFFFF" d="M216.6-324.7l-6.7-1.9l3.2-11.3l-31-8.8l2.2-7.9l31,8.8l3.2-11.3l6.7,1.9L216.6-324.7z"/>
		<path fill="#FFFFFF" d="M164.5-292.3l18.7-9l-3.6-7.5l-17.1,8.2l-2.9-6.1l17.1-8.2l-4.4-9.1l-19.5,9.4l-3-6.3l26.7-12.8l16.9,35.3
			L167.5-286L164.5-292.3z"/>
		<path fill="#FFFFFF" d="M128.2-286.1l-7.7-3.9l-1.6-31.4L106.7-297l-6.8-3.4l17.6-34.9l7.3,3.7l1.7,32l12.5-24.8l6.8,3.4
			L128.2-286.1z"/>
		<path fill="#FFFFFF" d="M71.1-359.6l6.8-1.5l2.6,11.4l31.4-7.1l1.8,8l-31.4,7.1l2.6,11.5l-6.8,1.5L71.1-359.6z"/>
	</g>
</g>
<g>
	<rect x="1" y="1" fill="#FFFFFF" stroke="#000000" stroke-width="2" stroke-miterlimit="10" width="64" height="64"/>
	<circle cx="8" cy="8" r="3"/>
	<circle cx="17" cy="8" r="3"/>
	<circle cx="26" cy="8" r="3"/>
	<line fill="none" stroke="#000000" stroke-width="2" stroke-miterlimit="10" x1="1" y1="15" x2="65" y2="15"/>
</g>
<g>
	<rect x="-592.3" y="261.7" fill="#FFFFFF" width="1280" height="30"/>
	<rect x="-592.3" y="261.7" fill="url(#New_Pattern)" width="1280" height="30"/>
</g>
<g>
	<polygon fill="#FFFFFF" stroke="#000000" stroke-width="2" stroke-miterlimit="10" points="85,65 133,65 133,13 121,1 85,1 	"/>
	<polyline fill="none" stroke="#000000" stroke-width="2" stroke-miterlimit="10" points="133,13 121,13 121,1 	"/>
</g>
<g>
	<line fill="none" stroke="#000000" stroke-width="6" stroke-miterlimit="10" x1="163" y1="15" x2="211" y2="15"/>
	<line fill="none" stroke="#000000" stroke-width="6" stroke-miterlimit="10" x1="163" y1="27" x2="211" y2="27"/>
	<line fill="none" stroke="#000000" stroke-width="6" stroke-miterlimit="10" x1="163" y1="39" x2="211" y2="39"/>
	<line fill="none" stroke="#000000" stroke-width="6" stroke-miterlimit="10" x1="163" y1="51" x2="211" y2="51"/>
	<circle cx="156" cy="15" r="3"/>
	<circle cx="156" cy="27" r="3"/>
	<circle cx="156" cy="39" r="3"/>
	<circle cx="156" cy="51" r="3"/>
</g>
<g>
	<path id="path4109" fill="#FFFFFF" d="M245.6,1c0,0.8,0,1.7,0,2.5l0,0.4l-0.4,0c-0.8,0-1.7,0-2.5,0c0,8.6,0,17.1,0,25.7V30l-0.4,0
		c-0.7,0-1.4,0-2.1,0l-0.4,0l0-0.4c0-0.8,0-1.7,0-2.5c-2.9,0-5.8,0-8.7,0c0,2.9,0,5.8,0,8.7c0.8,0,1.7,0.1,2.5,0l0.5,0l-0.1,0.5
		c-0.1,0.8,0,1.7,0,2.5c0.8,0,1.6,0.1,2.4,0.1h0.3l0,0.3c0.1,1.8,0.1,3.6,0.1,5.4c0.8,0,1.7,0,2.5,0.1l0.4,0l0,0.4
		c0,1.8,0,3.6,0,5.4c0.8,0,1.7,0.1,2.5,0l0.4,0l0,0.4c-0.1,1.8,0,3.6,0,5.4c0.8,0,1.6,0,2.5,0h0.4l0,0.4c0,2.8,0,5.5,0.1,8.3
		c4.8,0.1,9.6,0.1,14.4,0.1c4.9,0,9.8,0,14.7-0.1c-0.1-2.8,0.2-5.5,0.1-8.3l0-0.4l0.4,0c0.8,0,1.6,0,2.5,0c0-2.8,0-5.5,0-8.3v-0.3
		l0.3,0c0.8-0.1,1.7-0.1,2.5-0.1c0-3.1,0-6.2,0.1-9.2v0v0c-0.1-3.7,0-7.4-0.1-11.1c-0.8,0-1.7,0-2.5,0l-0.4,0l0-0.4
		c0-0.8,0-1.6,0-2.5c-0.9,0-1.7,0-2.5,0l-0.3,0l0-0.3c-0.1-0.8,0-1.7,0-2.6c-1.8,0-3.6,0-5.4,0l-0.4,0l0-0.4c0-0.8,0-1.6,0-2.5
		c-2.8-0.1-5.5-0.1-8.3-0.1l-0.4,0l0-0.4c0-0.8-0.1-1.7-0.1-2.5c-1.8,0-3.6,0-5.4,0l-0.4,0l0-0.4c0-3.7,0-7.5,0-11.2
		c-0.5,0-1,0-1.4,0c-0.4,0-0.7,0-1.1,0l-0.4,0l0-0.4c0-0.9,0-1.7-0.1-2.6C249.4,1,247.5,1,245.6,1L245.6,1z"/>
	<path id="path3016" fill="#1C1C1C" d="M245.6,1c1.9,0,3.8,0,5.7,0c0.1,1,0.1,1.9,0.1,2.9c-1.9,0-3.9,0-5.8,0
		C245.5,2.9,245.6,2,245.6,1z"/>
	<path id="path3018" fill="#1C1C1C" d="M242.7,3.9c1,0,1.9,0,2.9,0c0,10.7,0,21.3,0,32c-1,0-1.9,0-2.9,0c0-1,0-1.9,0-2.9
		c-1,0-1.9,0-2.9,0c0-1,0-2,0-2.9c1,0,1.9,0,2.9,0C242.6,21.3,242.6,12.6,242.7,3.9L242.7,3.9z"/>
	<path id="path3020" fill="#1C1C1C" d="M251.4,3.9c1,0,1.9,0,2.9,0c0,3.9,0,7.7,0,11.6c1.9,0.1,3.8,0,5.8,0c0,1,0,1.9,0.1,2.9
		c2.9,0,5.8-0.1,8.7,0.1c0,0.9,0,1.9,0,2.8c1.9,0,3.9,0,5.8,0c0,1,0,1.9,0.1,2.9c1,0.1,1.9,0,2.9,0.1c0,0.9,0,1.9,0,2.8
		c0.9,0,1.9,0,2.9,0c0,3.7,0,7.4,0.1,11.1c-0.1,3.1,0,6.2-0.1,9.3c-1,0-1.9,0-2.9,0.1c0,2.9,0,5.7,0,8.6c-1,0-1.9,0.1-2.9,0
		c-0.1-2.9-0.1-5.8,0-8.8c1,0,1.9,0,2.9,0c0-6.8,0-13.6,0-20.3c-1,0-1.9,0-2.9,0c-0.1-0.9,0-1.9-0.1-2.8c-1-0.2-1.9-0.1-2.9-0.1
		c0,2.9,0,5.8,0,8.7c-0.9,0-1.9,0-2.8,0c-0.1-3.9,0-7.8,0-11.6c-1.9,0-3.9,0-5.8,0c0,2.9,0,5.8,0,8.7c-1,0-1.9,0-2.9,0
		c0-3.9,0-7.7,0-11.6c-1.9,0-3.9,0-5.8,0c0,3.9,0,7.7,0,11.6c-1,0-1.9,0-2.9,0C251.3,21.3,251.3,12.6,251.4,3.9L251.4,3.9z"/>
	<path id="path3026" fill="#1C1C1C" d="M231,27.2c2.9,0,5.8,0,8.7,0c0,1,0,1.9,0,2.9c-1.9,0-3.9,0-5.8,0c-0.1,1.9,0.1,3.8,0,5.8
		c-1,0.1-1.9,0-2.9,0C231,33,231,30.1,231,27.2z"/>
	<path id="path3030" fill="#1C1C1C" d="M234,35.9c0.9-0.1,1.9-0.1,2.8-0.1c0,1,0,1.9,0,2.9c1,0,1.9,0,2.9,0c0,1.9,0,3.9,0,5.8
		c1,0,1.9,0,2.9,0c0,1.9,0.1,3.9-0.1,5.8c-0.9,0.1-1.9,0-2.8,0c0-1.9,0-3.8,0-5.7c-1,0-1.9,0-2.9-0.1c0-1.9,0.1-3.8-0.1-5.7
		c-0.9,0-1.9,0-2.8-0.1C233.9,37.8,233.8,36.9,234,35.9L234,35.9z"/>
	<path id="path3038" fill="#1C1C1C" d="M242.7,50.4c0.9-0.1,1.9,0,2.9,0c0,1.9,0,3.9,0,5.8c1,0,1.9,0,2.9,0c0,1.9,0,3.9,0,5.8
		c7.7,0,15.5,0,23.2,0c0-1.9,0-3.9,0-5.8c1,0,2,0,3,0c0.2,2.9-0.1,5.8,0,8.7c-4.9,0.1-9.8,0.1-14.7,0.1c-4.8,0-9.6,0-14.4-0.1
		c0-2.9,0-5.8-0.1-8.7c-0.9,0-1.9,0-2.8,0C242.7,54.3,242.5,52.3,242.7,50.4L242.7,50.4z"/>
</g>
<path d="M446.7-38.5h-8.1v-17.8h-6.2v-6.2h-14.6v-7h-2v7h-14.6v6.2h-6.2v17.8h-8.1v2h8.1v17.8h6.2v6.2h14.6v7h2v-7h14.6v-6.2h6.2
	v-17.8h8.1V-38.5z M426-56.1v17.6h-8.3v-17.6H426z M407.4-56.1h8.3v17.6h-8.3V-56.1z M407.4-18.9v-17.6h8.3v17.6H407.4z M426-18.9
	h-8.3v-17.6h8.3V-18.9z"/>
</svg>
