<?xml version="1.0" encoding="utf-8"?>
<!-- Generator: Adobe Illustrator 18.0.0, SVG Export Plug-In . SVG Version: 6.00 Build 0)  -->
<!DOCTYPE svg PUBLIC "-//W3C//DTD SVG 1.1//EN" "http://www.w3.org/Graphics/SVG/1.1/DTD/svg11.dtd">
<svg version="1.1" id="Layer_1" xmlns="http://www.w3.org/2000/svg" xmlns:xlink="http://www.w3.org/1999/xlink" x="0px" y="0px"
	 viewBox="0 0 386 203" enable-background="new 0 0 386 203" xml:space="preserve">
<pattern  x="-736.4" y="176" width="6" height="6" patternUnits="userSpaceOnUse" id="New_Pattern" viewBox="0.5 -6.5 6 6" overflow="visible">
	<g>
		<polygon fill="none" points="0.5,-6.5 6.5,-6.5 6.5,-0.5 0.5,-0.5 		"/>
		<polygon points="5.5,0 4.5,0 4.5,-1 5.5,-1 		"/>
		<polygon points="2.5,0 1.5,0 1.5,-1 2.5,-1 		"/>
		<polygon points="7,-3 6,-3 6,-4 7,-4 		"/>
		<polygon points="4,-3 3,-3 3,-4 4,-4 		"/>
		<polygon points="1,-3 0,-3 0,-4 1,-4 		"/>
		<polygon points="5.5,-6 4.5,-6 4.5,-7 5.5,-7 		"/>
		<polygon points="2.5,-6 1.5,-6 1.5,-7 2.5,-7 		"/>
	</g>
</pattern>
<g>
	<circle fill="#FFFFFF" cx="-761.8" cy="400.8" r="8"/>
	<line fill="none" stroke="#000000" stroke-width="2" stroke-miterlimit="10" x1="-756.8" y1="400.8" x2="-766.8" y2="400.8"/>
</g>
<g>
	<circle fill="#FFFFFF" cx="-735.4" cy="400.8" r="8"/>
	<g>
		<line fill="none" stroke="#000000" stroke-width="2" stroke-miterlimit="10" x1="-730.4" y1="400.8" x2="-740.4" y2="400.8"/>
		<line fill="none" stroke="#000000" stroke-width="2" stroke-miterlimit="10" x1="-735.4" y1="395.8" x2="-735.4" y2="405.8"/>
	</g>
</g>
<g>
	<circle fill="#FFFFFF" cx="-787.8" cy="400.8" r="8"/>
	<g>
		<line fill="none" stroke="#000000" stroke-width="2" stroke-miterlimit="10" x1="-784.3" y1="404.3" x2="-791.3" y2="397.2"/>
		<line fill="none" stroke="#000000" stroke-width="2" stroke-miterlimit="10" x1="-784.3" y1="397.2" x2="-791.3" y2="404.3"/>
	</g>
</g>
<g>
	<rect x="0.5" y="0.5" stroke="#FFFFFF" stroke-miterlimit="10" width="385" height="202"/>
	<circle fill="#FFFFFF" cx="7.5" cy="7.5" r="3"/>
	<circle fill="#FFFFFF" cx="16.5" cy="7.5" r="3"/>
	<circle fill="#FFFFFF" cx="25.5" cy="7.5" r="3"/>
	<line fill="none" stroke="#FFFFFF" stroke-miterlimit="10" x1="0.5" y1="14.5" x2="385.5" y2="14.5"/>
	<line fill="none" stroke="#FFFFFF" stroke-width="20" stroke-miterlimit="10" x1="20.5" y1="46.7" x2="117.2" y2="46.7"/>
	<line fill="none" stroke="#FFFFFF" stroke-width="2" stroke-miterlimit="10" x1="20.5" y1="76.7" x2="121.2" y2="76.7"/>
	<line fill="none" stroke="#FFFFFF" stroke-width="2" stroke-miterlimit="10" x1="20.5" y1="82.7" x2="112.2" y2="82.7"/>
	<line fill="none" stroke="#FFFFFF" stroke-width="2" stroke-miterlimit="10" x1="20.5" y1="88.7" x2="117.2" y2="88.7"/>
	<line fill="none" stroke="#FFFFFF" stroke-width="2" stroke-miterlimit="10" x1="20.5" y1="94.7" x2="121.2" y2="94.7"/>
	<line fill="none" stroke="#FFFFFF" stroke-width="2" stroke-miterlimit="10" x1="20.5" y1="100.7" x2="112.2" y2="100.7"/>
	<line fill="none" stroke="#FFFFFF" stroke-width="2" stroke-miterlimit="10" x1="20.5" y1="106.7" x2="117.2" y2="106.7"/>
	<line fill="none" stroke="#FFFFFF" stroke-width="2" stroke-miterlimit="10" x1="20.5" y1="112.7" x2="121.2" y2="112.7"/>
	<line fill="none" stroke="#FFFFFF" stroke-width="2" stroke-miterlimit="10" x1="20.5" y1="118.7" x2="112.2" y2="118.7"/>
	<line fill="none" stroke="#FFFFFF" stroke-width="2" stroke-miterlimit="10" x1="20.5" y1="124.7" x2="117.2" y2="124.7"/>
	<line fill="none" stroke="#FFFFFF" stroke-width="2" stroke-miterlimit="10" x1="20.5" y1="130.7" x2="121.2" y2="130.7"/>
	<line fill="none" stroke="#FFFFFF" stroke-width="2" stroke-miterlimit="10" x1="20.5" y1="136.7" x2="112.2" y2="136.7"/>
	<line fill="none" stroke="#FFFFFF" stroke-width="2" stroke-miterlimit="10" x1="20.5" y1="142.7" x2="117.2" y2="142.7"/>
	<line fill="none" stroke="#FFFFFF" stroke-width="2" stroke-miterlimit="10" x1="20.5" y1="148.7" x2="121.2" y2="148.7"/>
	<line fill="none" stroke="#FFFFFF" stroke-width="2" stroke-miterlimit="10" x1="20.5" y1="154.7" x2="112.2" y2="154.7"/>
	<line fill="none" stroke="#FFFFFF" stroke-width="2" stroke-miterlimit="10" x1="20.5" y1="160.7" x2="117.2" y2="160.7"/>
	<line fill="none" stroke="#FFFFFF" stroke-width="2" stroke-miterlimit="10" x1="20.5" y1="166.7" x2="121.2" y2="166.7"/>
	<line fill="none" stroke="#FFFFFF" stroke-width="2" stroke-miterlimit="10" x1="20.5" y1="172.7" x2="112.2" y2="172.7"/>
	<line fill="none" stroke="#FFFFFF" stroke-width="2" stroke-miterlimit="10" x1="20.5" y1="178.7" x2="117.2" y2="178.7"/>
	<g>
		<path fill="#FFFFFF" d="M196.1,77.4c-1-4.4-0.2-8.6,2.5-12.7c3.5-5.5,7.9-8.3,13.2-8.5c2.9-0.1,5.5,0.5,7.6,1.7l-4.4,6.9
			c-1.9-0.6-3.4-0.8-4.7-0.6c-2.2,0.3-4.1,1.6-5.7,4.1c-1.6,2.4-1.8,5-0.7,7.7c1.1,2.7,3.5,5.3,7.2,7.7c3.7,2.4,6.9,3.4,9.7,3.1
			c2.8-0.3,4.9-1.6,6.4-3.9c1.5-2.4,1.9-4.7,1.1-6.9c-0.4-1.2-1.3-2.6-2.7-4.2l4.4-6.8c3.2,2.9,5.1,6.3,5.8,10.2
			c0.7,3.9-0.2,7.7-2.7,11.5c-3,4.7-6.9,7.4-11.7,8.1c-4.8,0.7-9.8-0.7-15.1-4.1C200.6,86.8,197.2,82.5,196.1,77.4z"/>
		<path fill="#FFFFFF" d="M274.9,66.3c-2.9,3.1-7.2,4.7-12.7,4.8c-5.6,0.1-9.9-1.4-12.9-4.4c-4-3.7-6.1-9-6.2-16
			c-0.1-7.2,1.8-12.6,5.7-16.2c2.9-3.1,7.2-4.7,12.7-4.8c5.6-0.1,9.9,1.4,12.9,4.4c4,3.5,6.1,8.9,6.2,16
			C280.7,57.1,278.8,62.5,274.9,66.3z M269.7,60.4c1.9-2.4,2.8-5.8,2.7-10.2c-0.1-4.4-1.1-7.8-3-10.1c-1.9-2.4-4.5-3.5-7.8-3.5
			c-3.2,0.1-5.8,1.3-7.7,3.7c-1.9,2.4-2.8,5.8-2.7,10.2c0.1,4.4,1.1,7.8,3.1,10.1c2,2.4,4.6,3.5,7.8,3.5
			C265.3,64.1,267.8,62.9,269.7,60.4z"/>
		<path fill="#FFFFFF" d="M315.5,50.4l4.9,7l-13.5,28.3l22.4-15.6l4.4,6.3l-32.1,22.4l-4.7-6.7l13.7-28.9L287.7,79l-4.4-6.3
			L315.5,50.4z"/>
		<path fill="#FFFFFF" d="M330.8,142.3l-6.7-1.9l3.2-11.3l-31-8.8l2.2-7.9l31,8.8l3.2-11.3l6.7,1.9L330.8,142.3z"/>
		<path fill="#FFFFFF" d="M278.6,174.7l18.7-9l-3.6-7.5l-17.1,8.2l-2.9-6.1l17.1-8.2l-4.4-9.1l-19.5,9.4l-3-6.3l26.7-12.8l16.9,35.3
			L281.6,181L278.6,174.7z"/>
		<path fill="#FFFFFF" d="M242.3,180.9l-7.7-3.9l-1.6-31.4L220.8,170l-6.8-3.4l17.6-34.9l7.3,3.7l1.7,32l12.5-24.8l6.8,3.4
			L242.3,180.9z"/>
		<path fill="#FFFFFF" d="M185.2,107.4l6.8-1.5l2.6,11.4l31.4-7.1l1.8,8l-31.4,7.1l2.6,11.5l-6.8,1.5L185.2,107.4z"/>
	</g>
</g>
<g>
	<rect x="115.2" y="468" fill="#FFFFFF" stroke="#000000" stroke-width="2" stroke-miterlimit="10" width="64" height="64"/>
	<circle cx="122.2" cy="475" r="3"/>
	<circle cx="131.2" cy="475" r="3"/>
	<circle cx="140.2" cy="475" r="3"/>
	<line fill="none" stroke="#000000" stroke-width="2" stroke-miterlimit="10" x1="115.2" y1="482" x2="179.2" y2="482"/>
</g>
<g>
	<rect x="-478.1" y="728.7" fill="#FFFFFF" width="1280" height="30"/>
	<rect x="-478.1" y="728.7" fill="url(#New_Pattern)" width="1280" height="30"/>
</g>
<g>
	<polygon fill="#FFFFFF" stroke="#000000" stroke-width="2" stroke-miterlimit="10" points="199.2,532 247.2,532 247.2,480 
		235.2,468 199.2,468 	"/>
	<polyline fill="none" stroke="#000000" stroke-width="2" stroke-miterlimit="10" points="247.2,480 235.2,480 235.2,468 	"/>
</g>
<g>
	<line fill="none" stroke="#000000" stroke-width="6" stroke-miterlimit="10" x1="277.2" y1="482" x2="325.2" y2="482"/>
	<line fill="none" stroke="#000000" stroke-width="6" stroke-miterlimit="10" x1="277.2" y1="494" x2="325.2" y2="494"/>
	<line fill="none" stroke="#000000" stroke-width="6" stroke-miterlimit="10" x1="277.2" y1="506" x2="325.2" y2="506"/>
	<line fill="none" stroke="#000000" stroke-width="6" stroke-miterlimit="10" x1="277.2" y1="518" x2="325.2" y2="518"/>
	<circle cx="270.2" cy="482" r="3"/>
	<circle cx="270.2" cy="494" r="3"/>
	<circle cx="270.2" cy="506" r="3"/>
	<circle cx="270.2" cy="518" r="3"/>
</g>
<g>
	<path id="path4109" fill="#FFFFFF" d="M359.7,468c0,0.8,0,1.7,0,2.5l0,0.4l-0.4,0c-0.8,0-1.7,0-2.5,0c0,8.6,0,17.1,0,25.7v0.4
		l-0.4,0c-0.7,0-1.4,0-2.1,0l-0.4,0l0-0.4c0-0.8,0-1.7,0-2.5c-2.9,0-5.8,0-8.7,0c0,2.9,0,5.8,0,8.7c0.8,0,1.7,0.1,2.5,0l0.5,0
		l-0.1,0.5c-0.1,0.8,0,1.7,0,2.5c0.8,0,1.6,0.1,2.4,0.1h0.3l0,0.3c0.1,1.8,0.1,3.6,0.1,5.4c0.8,0,1.7,0,2.5,0.1l0.4,0l0,0.4
		c0,1.8,0,3.6,0,5.4c0.8,0,1.7,0.1,2.5,0l0.4,0l0,0.4c-0.1,1.8,0,3.6,0,5.4c0.8,0,1.6,0,2.5,0h0.4l0,0.4c0,2.8,0,5.5,0.1,8.3
		c4.8,0.1,9.6,0.1,14.4,0.1c4.9,0,9.8,0,14.7-0.1c-0.1-2.8,0.2-5.5,0.1-8.3l0-0.4l0.4,0c0.8,0,1.6,0,2.5,0c0-2.8,0-5.5,0-8.3v-0.3
		l0.3,0c0.8-0.1,1.7-0.1,2.5-0.1c0-3.1,0-6.2,0.1-9.2v0v0c-0.1-3.7,0-7.4-0.1-11.1c-0.8,0-1.7,0-2.5,0l-0.4,0l0-0.4
		c0-0.8,0-1.6,0-2.5c-0.9,0-1.7,0-2.5,0l-0.3,0l0-0.3c-0.1-0.8,0-1.7,0-2.6c-1.8,0-3.6,0-5.4,0l-0.4,0l0-0.4c0-0.8,0-1.6,0-2.5
		c-2.8-0.1-5.5-0.1-8.3-0.1l-0.4,0l0-0.4c0-0.8-0.1-1.7-0.1-2.5c-1.8,0-3.6,0-5.4,0l-0.4,0l0-0.4c0-3.7,0-7.5,0-11.2
		c-0.5,0-1,0-1.4,0c-0.4,0-0.7,0-1.1,0l-0.4,0l0-0.4c0-0.9,0-1.7-0.1-2.6C363.5,468,361.6,468,359.7,468L359.7,468z"/>
	<path id="path3016" fill="#1C1C1C" d="M359.7,468c1.9,0,3.8,0,5.7,0c0.1,1,0.1,1.9,0.1,2.9c-1.9,0-3.9,0-5.8,0
		C359.7,469.9,359.7,469,359.7,468z"/>
	<path id="path3018" fill="#1C1C1C" d="M356.8,470.9c1,0,1.9,0,2.9,0c0,10.7,0,21.3,0,32c-1,0-1.9,0-2.9,0c0-1,0-1.9,0-2.9
		c-1,0-1.9,0-2.9,0c0-1,0-2,0-2.9c1,0,1.9,0,2.9,0C356.8,488.3,356.8,479.6,356.8,470.9L356.8,470.9z"/>
	<path id="path3020" fill="#1C1C1C" d="M365.5,470.9c1,0,1.9,0,2.9,0c0,3.9,0,7.7,0,11.6c1.9,0.1,3.8,0,5.8,0c0,1,0,1.9,0.1,2.9
		c2.9,0,5.8-0.1,8.7,0.1c0,0.9,0,1.9,0,2.8c1.9,0,3.9,0,5.8,0c0,1,0,1.9,0.1,2.9c1,0.1,1.9,0,2.9,0.1c0,0.9,0,1.9,0,2.8
		c0.9,0,1.9,0,2.9,0c0,3.7,0,7.4,0.1,11.1c-0.1,3.1,0,6.2-0.1,9.3c-1,0-1.9,0-2.9,0.1c0,2.9,0,5.7,0,8.6c-1,0-1.9,0.1-2.9,0
		c-0.1-2.9-0.1-5.8,0-8.8c1,0,1.9,0,2.9,0c0-6.8,0-13.6,0-20.3c-1,0-1.9,0-2.9,0c-0.1-0.9,0-1.9-0.1-2.8c-1-0.2-1.9-0.1-2.9-0.1
		c0,2.9,0,5.8,0,8.7c-0.9,0-1.9,0-2.8,0c-0.1-3.9,0-7.8,0-11.6c-1.9,0-3.9,0-5.8,0c0,2.9,0,5.8,0,8.7c-1,0-1.9,0-2.9,0
		c0-3.9,0-7.7,0-11.6c-1.9,0-3.9,0-5.8,0c0,3.9,0,7.7,0,11.6c-1,0-1.9,0-2.9,0C365.5,488.3,365.5,479.6,365.5,470.9L365.5,470.9z"/>
	<path id="path3026" fill="#1C1C1C" d="M345.2,494.2c2.9,0,5.8,0,8.7,0c0,1,0,1.9,0,2.9c-1.9,0-3.9,0-5.8,0c-0.1,1.9,0.1,3.8,0,5.8
		c-1,0.1-1.9,0-2.9,0C345.2,500,345.2,497.1,345.2,494.2z"/>
	<path id="path3030" fill="#1C1C1C" d="M348.2,502.9c0.9-0.1,1.9-0.1,2.8-0.1c0,1,0,1.9,0,2.9c1,0,1.9,0,2.9,0c0,1.9,0,3.9,0,5.8
		c1,0,1.9,0,2.9,0c0,1.9,0.1,3.9-0.1,5.8c-0.9,0.1-1.9,0-2.8,0c0-1.9,0-3.8,0-5.7c-1,0-1.9,0-2.9-0.1c0-1.9,0.1-3.8-0.1-5.7
		c-0.9,0-1.9,0-2.8-0.1C348.1,504.8,347.9,503.8,348.2,502.9L348.2,502.9z"/>
	<path id="path3038" fill="#1C1C1C" d="M356.9,517.4c0.9-0.1,1.9,0,2.9,0c0,1.9,0,3.9,0,5.8c1,0,1.9,0,2.9,0c0,1.9,0,3.9,0,5.8
		c7.7,0,15.5,0,23.2,0c0-1.9,0-3.9,0-5.8c1,0,2,0,3,0c0.2,2.9-0.1,5.8,0,8.7c-4.9,0.1-9.8,0.1-14.7,0.1c-4.8,0-9.6,0-14.4-0.1
		c0-2.9,0-5.8-0.1-8.7c-0.9,0-1.9,0-2.8,0C356.8,521.3,356.7,519.3,356.9,517.4L356.9,517.4z"/>
</g>
<path d="M560.9,428.5h-8.1v-17.8h-6.2v-6.2h-14.6v-7h-2v7h-14.6v6.2H509v17.8h-8.1v2h8.1v17.8h6.2v6.2h14.6v7h2v-7h14.6v-6.2h6.2
	v-17.8h8.1V428.5z M540.2,410.9v17.6h-8.3v-17.6H540.2z M521.6,410.9h8.3v17.6h-8.3V410.9z M521.6,448.1v-17.6h8.3v17.6H521.6z
	 M540.2,448.1h-8.3v-17.6h8.3V448.1z"/>
</svg>
